<svg id="Layer_1" data-name="Layer 1" xmlns="http://www.w3.org/2000/svg" viewBox="0 0 24 24"><defs><style>.cls-1{fill:none;}</style></defs><title>1-net-p</title><path d="M20,5a1.75,1.75,0,0,1,0,.4,2.4,2.4,0,0,1-.12.38,2.21,2.21,0,0,1-.18.34,2.59,2.59,0,0,1-.54.54,2.21,2.21,0,0,1-.34.18A2.4,2.4,0,0,1,18.4,7a2,2,0,0,1-.8,0,2.4,2.4,0,0,1-.38-.12,2.21,2.21,0,0,1-.34-.18,2.59,2.59,0,0,1-.54-.54,2.21,2.21,0,0,1-.18-.34A2.4,2.4,0,0,1,16,5.4,1.75,1.75,0,0,1,16,5a1.75,1.75,0,0,1,0-.4,2.4,2.4,0,0,1,.12-.38,2.21,2.21,0,0,1,.18-.34,2.59,2.59,0,0,1,.54-.54,2.21,2.21,0,0,1,.34-.18A2.4,2.4,0,0,1,17.6,3a2,2,0,0,1,.8,0,2.4,2.4,0,0,1,.38.12,2.21,2.21,0,0,1,.34.18,2.59,2.59,0,0,1,.54.54,2.21,2.21,0,0,1,.18.34A2.4,2.4,0,0,1,20,4.6,1.75,1.75,0,0,1,20,5Z"/><path d="M9,21a1.34,1.34,0,0,1,0-.2,1.23,1.23,0,0,1,0-.19l0-.19c0-.06,0-.12,0-.18l.06-.18a1.34,1.34,0,0,1,.07-.18l.07-.16.09-.17-.49-.19c-.17-.07-.33-.14-.48-.22A4.09,4.09,0,0,1,8,18.89c-.15-.08-.3-.18-.44-.27a4.56,4.56,0,0,1-.42-.31A4.12,4.12,0,0,1,6.7,18l-.38-.35c-.12-.13-.24-.25-.35-.38l-.21.16-.21.15-.23.13-.24.1a1.34,1.34,0,0,1-.26.09,1.1,1.1,0,0,1-.26.06l-.27,0L4,18c.16.21.33.41.5.6s.35.39.53.57l.58.52c.2.17.41.33.62.48a7.39,7.39,0,0,0,.66.42,7.62,7.62,0,0,0,.69.38,7.84,7.84,0,0,0,.72.32q.36.15.75.27l0-.07v-.21a.15.15,0,0,1,0-.07.2.2,0,0,0,0-.07V21Z"/><path d="M6,15a1.75,1.75,0,0,1,0,.4,2.4,2.4,0,0,1-.12.38,2.21,2.21,0,0,1-.18.34,2.59,2.59,0,0,1-.54.54,2.21,2.21,0,0,1-.34.18A2.4,2.4,0,0,1,4.4,17,1.75,1.75,0,0,1,4,17a1.75,1.75,0,0,1-.4,0,2.4,2.4,0,0,1-.38-.12,2.21,2.21,0,0,1-.34-.18,2.59,2.59,0,0,1-.54-.54,2.21,2.21,0,0,1-.18-.34A2.4,2.4,0,0,1,2,15.4a2,2,0,0,1,0-.8,2.4,2.4,0,0,1,.12-.38,2.21,2.21,0,0,1,.18-.34,2.59,2.59,0,0,1,.54-.54,2.21,2.21,0,0,1,.34-.18A2.4,2.4,0,0,1,3.6,13,1.75,1.75,0,0,1,4,13a1.75,1.75,0,0,1,.4,0,2.4,2.4,0,0,1,.38.12,2.21,2.21,0,0,1,.34.18,2.59,2.59,0,0,1,.54.54,2.21,2.21,0,0,1,.18.34A2.4,2.4,0,0,1,6,14.6,1.75,1.75,0,0,1,6,15Z"/><polygon class="cls-1" points="13.08 20.67 13.07 20.66 13.07 20.66 13.06 20.65 13.05 20.64 13.06 20.65 13.07 20.66 13.07 20.66 13.08 20.67"/><path d="M13.05,20.64l-.21-.19-.19-.21L12.46,20l-.18-.23a1.27,1.27,0,0,1-.13-.19,1.27,1.27,0,0,1-.13-.19l-.12-.2a1.28,1.28,0,0,1-.11-.2,1.86,1.86,0,0,0-.34.07l-.32.11-.29.17a1.79,1.79,0,0,0-.25.22,2.26,2.26,0,0,0-.25.29,2.21,2.21,0,0,0-.18.34,2.4,2.4,0,0,0-.12.38,2,2,0,0,0,0,.8,2.4,2.4,0,0,0,.12.38,2.21,2.21,0,0,0,.18.34,2.59,2.59,0,0,0,.54.54,2.21,2.21,0,0,0,.34.18,2.4,2.4,0,0,0,.38.12,2,2,0,0,0,.8,0,2.4,2.4,0,0,0,.38-.12,2.21,2.21,0,0,0,.34-.18,2.26,2.26,0,0,0,.29-.25,1.43,1.43,0,0,0,.2-.23,2.08,2.08,0,0,0,.28-.54,2.81,2.81,0,0,0,.08-.31h0l-.24-.15L13.51,21l-.22-.17-.21-.18h0Z"/><path d="M13.05,20.64l-.21-.19-.19-.21L12.46,20l-.18-.23.18.23.19.21.19.21Z"/><path d="M14,21.33l-.23-.15a1.88,1.88,0,0,1-.23-.16l-.22-.17-.21-.18.21.18.22.17.22.16Z"/><path d="M21.93,11a2.11,2.11,0,0,0,0,.25l0,.26c0,.09,0,.17,0,.26A2.26,2.26,0,0,1,22,12V11h-.07Z"/><path d="M21.6,9.2c-.07-.23-.14-.44-.22-.66s-.17-.43-.27-.64-.19-.41-.3-.61-.22-.4-.34-.59l-.16.21-.17.18L20,7.27a1.49,1.49,0,0,1-.2.15l-.21.14-.23.13-.24.1-.25.08c.1.15.18.31.27.46s.16.32.23.48.14.33.2.5.12.34.17.51V10a.06.06,0,0,1,0,0l.55.24.56.25.55.24.55.25-.06-.45c0-.15,0-.3-.07-.45l-.09-.44C21.68,9.48,21.64,9.34,21.6,9.2Z"/><path d="M21.93,13l-.55-.25-.55-.24-.56-.25L19.72,12l-.55-.25-.56-.24-.55-.25L17.5,11l-1.12.5-1.13.5-1.12.5L13,13v3a5.89,5.89,0,0,0,.09,1,6.52,6.52,0,0,0,.25,1,7.66,7.66,0,0,0,.4.93,6.79,6.79,0,0,0,.54.85l.18.23.19.21.19.21.21.19h0l.21.18.22.17a1.88,1.88,0,0,0,.23.16l.23.15a3.35,3.35,0,0,0,.36.21l.38.19.39.15a2.64,2.64,0,0,0,.4.12,5.15,5.15,0,0,0,.93-.33,5.56,5.56,0,0,0,.86-.48,6.61,6.61,0,0,0,.77-.63A6.76,6.76,0,0,0,21.26,19a6.36,6.36,0,0,0,.4-.93,5.52,5.52,0,0,0,.25-1A5.89,5.89,0,0,0,22,16V14a2.26,2.26,0,0,0,0-.26c0-.09,0-.17,0-.26l0-.26A2.11,2.11,0,0,1,21.93,13Z"/><path d="M15.49,2.63,15,2.47l-.48-.14-.49-.12-.5-.09L13,2.05l-.52,0h-1l-.25,0-.25,0a9.69,9.69,0,0,0-1.72.33,9.58,9.58,0,0,0-1.6.6,10.56,10.56,0,0,0-1.46.86A10.33,10.33,0,0,0,4.93,4.93,10.21,10.21,0,0,0,3.71,6.41a9.6,9.6,0,0,0-.92,1.7A9.79,9.79,0,0,0,2.2,10,10.23,10.23,0,0,0,2,12v.19s0,.06,0,.09v.47l.2-.17.22-.14.23-.13.24-.11.26-.08.26-.07.27,0H4v-.23a1.77,1.77,0,0,0,0-.23,1.79,1.79,0,0,0,0-.23l0-.22,0-.22,0-.22a2.07,2.07,0,0,0,0-.22c0-.07,0-.15,0-.22l.6.6.6.6L6,12l.6.59.59.6.6.6.6.6L9,15v1a1.75,1.75,0,0,0,0,.4,2.4,2.4,0,0,0,.12.38,2.21,2.21,0,0,0,.18.34,2.59,2.59,0,0,0,.54.54,2.21,2.21,0,0,0,.34.18,2.4,2.4,0,0,0,.38.12,1.75,1.75,0,0,0,.4,0v.18l.09,0,.09,0,.09,0,.1,0c-.06-.16-.11-.33-.16-.5s-.08-.34-.11-.52a4.67,4.67,0,0,1-.08-.52c0-.18,0-.36,0-.54V12H8V10h2l.2,0a.6.6,0,0,0,.19-.06,1.4,1.4,0,0,0,.17-.09l.15-.12.12-.15a1.4,1.4,0,0,0,.09-.17A.6.6,0,0,0,11,9.2,1.23,1.23,0,0,0,11,9V7h2a1.75,1.75,0,0,0,.4,0,2.4,2.4,0,0,0,.38-.12,2.21,2.21,0,0,0,.34-.18,2.59,2.59,0,0,0,.54-.54,2.21,2.21,0,0,0,.18-.34A2.4,2.4,0,0,0,15,5.4,1.75,1.75,0,0,0,15,5V4.59h0a2,2,0,0,1,.05-.26,1.83,1.83,0,0,1,.06-.25l.09-.25.11-.23.12-.22.15-.21c.05-.06.1-.13.16-.19A1,1,0,0,1,16,2.82Z"/></svg>