<svg id="Layer_1" data-name="Layer 1" xmlns="http://www.w3.org/2000/svg" viewBox="0 0 24 24"><title>1-net</title><path d="M20,5a1.75,1.75,0,0,1,0,.4,2.4,2.4,0,0,1-.12.38,2.21,2.21,0,0,1-.18.34,2.59,2.59,0,0,1-.54.54,2.21,2.21,0,0,1-.34.18A2.4,2.4,0,0,1,18.4,7a2,2,0,0,1-.8,0,2.4,2.4,0,0,1-.38-.12,2.21,2.21,0,0,1-.34-.18,2.59,2.59,0,0,1-.54-.54,2.21,2.21,0,0,1-.18-.34A2.4,2.4,0,0,1,16,5.4,1.75,1.75,0,0,1,16,5a1.75,1.75,0,0,1,0-.4,2.4,2.4,0,0,1,.12-.38,2.21,2.21,0,0,1,.18-.34,2.59,2.59,0,0,1,.54-.54,2.21,2.21,0,0,1,.34-.18A2.4,2.4,0,0,1,17.6,3a2,2,0,0,1,.8,0,2.4,2.4,0,0,1,.38.12,2.21,2.21,0,0,1,.34.18,2.59,2.59,0,0,1,.54.54,2.21,2.21,0,0,1,.18.34A2.4,2.4,0,0,1,20,4.6,1.75,1.75,0,0,1,20,5Z"/><path d="M14,21a1.75,1.75,0,0,1,0,.4,2.4,2.4,0,0,1-.12.38,2.21,2.21,0,0,1-.18.34,2.59,2.59,0,0,1-.54.54,2.21,2.21,0,0,1-.34.18,2.4,2.4,0,0,1-.38.12,2,2,0,0,1-.8,0,2.4,2.4,0,0,1-.38-.12,2.21,2.21,0,0,1-.34-.18,2.59,2.59,0,0,1-.54-.54,2.21,2.21,0,0,1-.18-.34A2.4,2.4,0,0,1,10,21.4a2,2,0,0,1,0-.8,2.4,2.4,0,0,1,.12-.38,2.21,2.21,0,0,1,.18-.34,2.59,2.59,0,0,1,.54-.54,2.21,2.21,0,0,1,.34-.18A2.4,2.4,0,0,1,11.6,19a2,2,0,0,1,.8,0,2.4,2.4,0,0,1,.38.12,2.21,2.21,0,0,1,.34.18,2.59,2.59,0,0,1,.54.54,2.21,2.21,0,0,1,.18.34,2.4,2.4,0,0,1,.12.38A1.75,1.75,0,0,1,14,21Z"/><path d="M9,21a1.34,1.34,0,0,1,0-.2,1.23,1.23,0,0,1,0-.19l0-.19c0-.06,0-.12,0-.18l.06-.18a1.34,1.34,0,0,1,.07-.18l.07-.16.09-.17-.49-.19c-.17-.07-.33-.14-.48-.22A4.09,4.09,0,0,1,8,18.89c-.15-.08-.3-.18-.44-.27a4.56,4.56,0,0,1-.42-.31A4.12,4.12,0,0,1,6.7,18l-.38-.35c-.12-.13-.24-.25-.35-.38l-.21.16-.21.15-.23.13-.24.1a1.34,1.34,0,0,1-.26.09,1.1,1.1,0,0,1-.26.06l-.27,0L4,18c.16.21.33.41.5.6s.35.39.53.57l.58.52c.2.17.41.33.62.48a7.39,7.39,0,0,0,.66.42,7.62,7.62,0,0,0,.69.38,7.84,7.84,0,0,0,.72.32q.36.15.75.27l0-.07v-.21a.15.15,0,0,1,0-.07.2.2,0,0,0,0-.07V21Z"/><path d="M20.47,6.7l-.16.21-.17.18L20,7.27a1.49,1.49,0,0,1-.2.15l-.21.14-.23.13-.24.1-.25.08c.1.15.18.31.27.46s.16.32.23.48.14.33.2.5.12.34.17.51.09.35.13.53.07.35.1.54a4.87,4.87,0,0,1,.06.55c0,.18,0,.37,0,.56a6.51,6.51,0,0,1,0,.77,6.46,6.46,0,0,1-.11.75,6,6,0,0,1-.17.73q-.11.35-.24.69c-.09.23-.19.45-.3.67a6.44,6.44,0,0,1-.36.63c-.13.21-.27.4-.42.6s-.3.37-.46.55a1.48,1.48,0,0,0-.12-.29,2.4,2.4,0,0,0-.16-.27l-.2-.24-.23-.2a1.4,1.4,0,0,0-.26-.16l-.29-.13a1.55,1.55,0,0,0-.31-.07A1.84,1.84,0,0,0,16,16H15V13a1.23,1.23,0,0,0,0-.2.6.6,0,0,0-.06-.19,1.4,1.4,0,0,0-.09-.17l-.12-.15-.15-.12a1.4,1.4,0,0,0-.17-.09A.6.6,0,0,0,14.2,12L14,12H8V10h2l.2,0a.6.6,0,0,0,.19-.06,1.4,1.4,0,0,0,.17-.09l.15-.12.12-.15a1.4,1.4,0,0,0,.09-.17A.6.6,0,0,0,11,9.2,1.23,1.23,0,0,0,11,9V7h2a1.75,1.75,0,0,0,.4,0,2.4,2.4,0,0,0,.38-.12,2.21,2.21,0,0,0,.34-.18,2.59,2.59,0,0,0,.54-.54,2.21,2.21,0,0,0,.18-.34A2.4,2.4,0,0,0,15,5.4,1.75,1.75,0,0,0,15,5V4.59h0a2,2,0,0,1,.05-.26,1.83,1.83,0,0,1,.06-.25l.09-.25.11-.23.12-.22.15-.21c.05-.06.1-.13.16-.19A1,1,0,0,1,16,2.82l-.46-.19L15,2.47l-.48-.14-.49-.12-.5-.09L13,2.05l-.52,0H12a10.23,10.23,0,0,0-2,.2,9.79,9.79,0,0,0-1.88.59,9.6,9.6,0,0,0-1.7.92,10,10,0,0,0-2.7,2.7,9.6,9.6,0,0,0-.92,1.7A9.79,9.79,0,0,0,2.2,10,10.23,10.23,0,0,0,2,12v.75l.2-.17.22-.14.23-.13.24-.11.26-.08.26-.07.27,0H4v-.23a1.77,1.77,0,0,0,0-.23,1.79,1.79,0,0,0,0-.23l0-.22,0-.22,0-.22a2.07,2.07,0,0,0,0-.22c0-.07,0-.15,0-.22l.6.6.6.6L6,12l.6.59.59.6.6.6.6.6L9,15v1a1.75,1.75,0,0,0,0,.4,2.4,2.4,0,0,0,.12.38,2.21,2.21,0,0,0,.18.34,2.59,2.59,0,0,0,.54.54,2.21,2.21,0,0,0,.34.18,2.4,2.4,0,0,0,.38.12,1.75,1.75,0,0,0,.4,0v.18l.12,0,.12,0,.12,0,.13,0,.12,0,.13,0H12a2.91,2.91,0,0,1,.6.06,2.7,2.7,0,0,1,.57.18,2.49,2.49,0,0,1,.51.27,3.34,3.34,0,0,1,.81.81,2.49,2.49,0,0,1,.27.51,2.7,2.7,0,0,1,.18.57A2.91,2.91,0,0,1,15,21v.14a.2.2,0,0,0,0,.07.15.15,0,0,1,0,.07v.21l0,.07A10.61,10.61,0,0,0,16.42,21a10.2,10.2,0,0,0,1.35-.8,10.6,10.6,0,0,0,1.2-1A10.49,10.49,0,0,0,20,18a8.67,8.67,0,0,0,.84-1.32,9.45,9.45,0,0,0,.63-1.46,8.9,8.9,0,0,0,.39-1.56A10,10,0,0,0,22,12q0-.36,0-.72c0-.24,0-.48-.07-.71s-.08-.47-.13-.7-.11-.45-.17-.67-.14-.44-.22-.66-.17-.43-.27-.64-.19-.41-.3-.61S20.59,6.89,20.47,6.7Z"/><path d="M6,15a1.75,1.75,0,0,1,0,.4,2.4,2.4,0,0,1-.12.38,2.21,2.21,0,0,1-.18.34,2.59,2.59,0,0,1-.54.54,2.21,2.21,0,0,1-.34.18A2.4,2.4,0,0,1,4.4,17,1.75,1.75,0,0,1,4,17a1.75,1.75,0,0,1-.4,0,2.4,2.4,0,0,1-.38-.12,2.21,2.21,0,0,1-.34-.18,2.59,2.59,0,0,1-.54-.54,2.21,2.21,0,0,1-.18-.34A2.4,2.4,0,0,1,2,15.4a2,2,0,0,1,0-.8,2.4,2.4,0,0,1,.12-.38,2.21,2.21,0,0,1,.18-.34,2.59,2.59,0,0,1,.54-.54,2.21,2.21,0,0,1,.34-.18A2.4,2.4,0,0,1,3.6,13,1.75,1.75,0,0,1,4,13a1.75,1.75,0,0,1,.4,0,2.4,2.4,0,0,1,.38.12,2.21,2.21,0,0,1,.34.18,2.59,2.59,0,0,1,.54.54,2.21,2.21,0,0,1,.18.34A2.4,2.4,0,0,1,6,14.6,1.75,1.75,0,0,1,6,15Z"/></svg>