<svg id="Layer_1" data-name="Layer 1" xmlns="http://www.w3.org/2000/svg" viewBox="0 0 24 24"><title>5-net</title><path d="M12,4a8.53,8.53,0,0,0-1.61.16,8.44,8.44,0,0,0-1.5.47,7.44,7.44,0,0,0-1.36.74A7.58,7.58,0,0,0,5.37,7.53a7.44,7.44,0,0,0-.74,1.36,8.44,8.44,0,0,0-.47,1.5,8.18,8.18,0,0,0,0,3.22,8.44,8.44,0,0,0,.47,1.5,7.44,7.44,0,0,0,.74,1.36,7.58,7.58,0,0,0,2.16,2.16,7.44,7.44,0,0,0,1.36.74,8.44,8.44,0,0,0,1.5.47,8.18,8.18,0,0,0,3.22,0,8.44,8.44,0,0,0,1.5-.47,7.44,7.44,0,0,0,1.36-.74,7.58,7.58,0,0,0,2.16-2.16,7.44,7.44,0,0,0,.74-1.36,8.44,8.44,0,0,0,.47-1.5,8.18,8.18,0,0,0,0-3.22,8.44,8.44,0,0,0-.47-1.5,7.44,7.44,0,0,0-.74-1.36,7.58,7.58,0,0,0-2.16-2.16,7.44,7.44,0,0,0-1.36-.74,8.44,8.44,0,0,0-1.5-.47A8.53,8.53,0,0,0,12,4Zm-.8,14.34a5.62,5.62,0,0,1-1.15-.25A5.78,5.78,0,0,1,9,17.65,7.37,7.37,0,0,1,8,17a6.74,6.74,0,0,1-.82-.78,6,6,0,0,1-.68-.91,6.58,6.58,0,0,1-.51-1,6,6,0,0,1-.32-1.12A6.58,6.58,0,0,1,5.6,12v-.18c0-.07,0-.13,0-.19s0-.12,0-.18a1.1,1.1,0,0,1,0-.18,1.1,1.1,0,0,1,0-.18l0-.17,0-.18c0-.06,0-.11,0-.17l.48.48.48.48.48.48.47.47.48.48.48.48.48.48.48.48v.8a1.66,1.66,0,0,0,0,.32,1.32,1.32,0,0,0,.1.3,1.71,1.71,0,0,0,.14.27,1.73,1.73,0,0,0,.44.44,1.71,1.71,0,0,0,.27.14,1.32,1.32,0,0,0,.3.1,1.66,1.66,0,0,0,.32,0v1.54Zm5.52-2a1.6,1.6,0,0,0-.1-.23,1.55,1.55,0,0,0-.12-.22,1.37,1.37,0,0,0-.16-.18,1.54,1.54,0,0,0-.19-.17,1.07,1.07,0,0,0-.21-.13l-.23-.1-.25-.06-.26,0h-.8V12.8a.88.88,0,0,0,0-.16.83.83,0,0,0,0-.15,1,1,0,0,0-.08-.14l-.09-.11-.12-.1-.14-.08-.15,0-.16,0H8.8V10.4h1.6l.16,0,.15,0,.14-.08.12-.09.09-.12a1,1,0,0,0,.08-.14.83.83,0,0,0,0-.15.78.78,0,0,0,0-.16V8h1.6a1.66,1.66,0,0,0,.32,0,1.32,1.32,0,0,0,.3-.1,1.71,1.71,0,0,0,.27-.14,1.73,1.73,0,0,0,.44-.44A1.71,1.71,0,0,0,14.27,7a1.32,1.32,0,0,0,.1-.3,1.66,1.66,0,0,0,0-.32V6.07a6,6,0,0,1,.84.42A6.47,6.47,0,0,1,16.7,7.66a6.88,6.88,0,0,1,.58.73,6.56,6.56,0,0,1,.47.81,5.21,5.21,0,0,1,.35.88,5.73,5.73,0,0,1,.22.93,6.61,6.61,0,0,1,.08,1c0,.21,0,.41,0,.62s-.05.4-.09.6a4.07,4.07,0,0,1-.14.58,5.1,5.1,0,0,1-.19.55,5.22,5.22,0,0,1-.24.54c-.09.17-.19.34-.29.5a4.07,4.07,0,0,1-.33.48C17,16,16.85,16.17,16.72,16.31Z"/><path d="M24,12a1.23,1.23,0,0,1,0,.2.6.6,0,0,1-.06.19.56.56,0,0,1-.09.17l-.12.15-.15.12a.56.56,0,0,1-.17.09.6.6,0,0,1-.19.06L23,13l-.2,0a.6.6,0,0,1-.19-.06.56.56,0,0,1-.17-.09l-.15-.12-.12-.15a.56.56,0,0,1-.09-.17A.6.6,0,0,1,22,12.2a1,1,0,0,1,0-.4.6.6,0,0,1,.06-.19.56.56,0,0,1,.09-.17l.12-.15.15-.12a.56.56,0,0,1,.17-.09A.6.6,0,0,1,22.8,11l.2,0,.2,0a.6.6,0,0,1,.19.06.56.56,0,0,1,.17.09l.15.12.12.15a.56.56,0,0,1,.09.17.6.6,0,0,1,.06.19A1.23,1.23,0,0,1,24,12Z"/><path d="M22,6a1.23,1.23,0,0,1,0,.2.6.6,0,0,1-.06.19.56.56,0,0,1-.09.17l-.12.15-.15.12a.56.56,0,0,1-.17.09A.6.6,0,0,1,21.2,7L21,7l-.2,0a.6.6,0,0,1-.19-.06.56.56,0,0,1-.17-.09l-.15-.12-.12-.15a.56.56,0,0,1-.09-.17A.6.6,0,0,1,20,6.2a1,1,0,0,1,0-.4.6.6,0,0,1,.06-.19.56.56,0,0,1,.09-.17l.12-.15.15-.12a.56.56,0,0,1,.17-.09A.6.6,0,0,1,20.8,5L21,5l.2,0a.6.6,0,0,1,.19.06.56.56,0,0,1,.17.09l.15.12.12.15a.56.56,0,0,1,.09.17A.6.6,0,0,1,22,5.8,1.23,1.23,0,0,1,22,6Z"/><path d="M18,2a1.23,1.23,0,0,1,0,.2.6.6,0,0,1-.06.19.56.56,0,0,1-.09.17l-.12.15-.15.12a.56.56,0,0,1-.17.09A.6.6,0,0,1,17.2,3L17,3l-.2,0a.6.6,0,0,1-.19-.06.56.56,0,0,1-.17-.09l-.15-.12-.12-.15a.56.56,0,0,1-.09-.17A.6.6,0,0,1,16,2.2,1.23,1.23,0,0,1,16,2a1.23,1.23,0,0,1,0-.2.6.6,0,0,1,.06-.19.56.56,0,0,1,.09-.17l.12-.15.15-.12a.56.56,0,0,1,.17-.09A.6.6,0,0,1,16.8,1L17,1l.2,0a.6.6,0,0,1,.19.06.56.56,0,0,1,.17.09l.15.12.12.15a.56.56,0,0,1,.09.17A.6.6,0,0,1,18,1.8,1.23,1.23,0,0,1,18,2Z"/><path d="M13,1a1.23,1.23,0,0,1,0,.2.6.6,0,0,1-.06.19.56.56,0,0,1-.09.17l-.12.15-.15.12a.56.56,0,0,1-.17.09A.6.6,0,0,1,12.2,2L12,2l-.2,0a.6.6,0,0,1-.19-.06.56.56,0,0,1-.17-.09l-.15-.12-.12-.15a.56.56,0,0,1-.09-.17A.6.6,0,0,1,11,1.2,1.23,1.23,0,0,1,11,1a1.23,1.23,0,0,1,0-.2.6.6,0,0,1,.06-.19.56.56,0,0,1,.09-.17l.12-.15.15-.12a.56.56,0,0,1,.17-.09A.6.6,0,0,1,11.8,0L12,0l.2,0a.6.6,0,0,1,.19.06.56.56,0,0,1,.17.09l.15.12.12.15a.56.56,0,0,1,.09.17A.6.6,0,0,1,13,.8,1.23,1.23,0,0,1,13,1Z"/><path d="M8,2a1.23,1.23,0,0,1,0,.2.6.6,0,0,1-.06.19.56.56,0,0,1-.09.17l-.12.15-.15.12a.56.56,0,0,1-.17.09A.6.6,0,0,1,7.2,3L7,3,6.8,3a.6.6,0,0,1-.19-.06.56.56,0,0,1-.17-.09l-.15-.12-.12-.15a.56.56,0,0,1-.09-.17A.6.6,0,0,1,6,2.2,1.23,1.23,0,0,1,6,2a1.23,1.23,0,0,1,0-.2.6.6,0,0,1,.06-.19.56.56,0,0,1,.09-.17l.12-.15.15-.12a.56.56,0,0,1,.17-.09A.6.6,0,0,1,6.8,1L7,1l.2,0a.6.6,0,0,1,.19.06.56.56,0,0,1,.17.09l.15.12.12.15a.56.56,0,0,1,.09.17A.6.6,0,0,1,8,1.8,1.23,1.23,0,0,1,8,2Z"/><path d="M4,6a1.23,1.23,0,0,1,0,.2.6.6,0,0,1-.06.19.56.56,0,0,1-.09.17l-.12.15-.15.12a.56.56,0,0,1-.17.09A.6.6,0,0,1,3.2,7L3,7,2.8,7a.6.6,0,0,1-.19-.06.56.56,0,0,1-.17-.09l-.15-.12-.12-.15a.56.56,0,0,1-.09-.17A.6.6,0,0,1,2,6.2a1,1,0,0,1,0-.4.6.6,0,0,1,.06-.19.56.56,0,0,1,.09-.17l.12-.15.15-.12a.56.56,0,0,1,.17-.09A.6.6,0,0,1,2.8,5L3,5l.2,0a.6.6,0,0,1,.19.06.56.56,0,0,1,.17.09l.15.12.12.15a.56.56,0,0,1,.09.17A.6.6,0,0,1,4,5.8,1.23,1.23,0,0,1,4,6Z"/><path d="M2,12a1.23,1.23,0,0,1,0,.2.6.6,0,0,1-.06.19.56.56,0,0,1-.09.17l-.12.15-.15.12a.56.56,0,0,1-.17.09A.6.6,0,0,1,1.2,13L1,13,.8,13a.6.6,0,0,1-.19-.06.56.56,0,0,1-.17-.09l-.15-.12-.12-.15a.56.56,0,0,1-.09-.17A.6.6,0,0,1,0,12.2a1,1,0,0,1,0-.4.6.6,0,0,1,.06-.19.56.56,0,0,1,.09-.17l.12-.15.15-.12a.56.56,0,0,1,.17-.09A.6.6,0,0,1,.8,11L1,11l.2,0a.6.6,0,0,1,.19.06.56.56,0,0,1,.17.09l.15.12.12.15a.56.56,0,0,1,.09.17A.6.6,0,0,1,2,11.8,1.23,1.23,0,0,1,2,12Z"/><path d="M4,18a1.23,1.23,0,0,1,0,.2.6.6,0,0,1-.06.19.56.56,0,0,1-.09.17l-.12.15-.15.12a.56.56,0,0,1-.17.09A.6.6,0,0,1,3.2,19L3,19l-.2,0a.6.6,0,0,1-.19-.06.56.56,0,0,1-.17-.09l-.15-.12-.12-.15a.56.56,0,0,1-.09-.17A.6.6,0,0,1,2,18.2a1,1,0,0,1,0-.4.6.6,0,0,1,.06-.19.56.56,0,0,1,.09-.17l.12-.15.15-.12a.56.56,0,0,1,.17-.09A.6.6,0,0,1,2.8,17L3,17l.2,0a.6.6,0,0,1,.19.06.56.56,0,0,1,.17.09l.15.12.12.15a.56.56,0,0,1,.09.17A.6.6,0,0,1,4,17.8,1.23,1.23,0,0,1,4,18Z"/><path d="M8,22a1.23,1.23,0,0,1,0,.2.6.6,0,0,1-.06.19.56.56,0,0,1-.09.17l-.12.15-.15.12a.56.56,0,0,1-.17.09A.6.6,0,0,1,7.2,23L7,23l-.2,0a.6.6,0,0,1-.19-.06.56.56,0,0,1-.17-.09l-.15-.12-.12-.15a.56.56,0,0,1-.09-.17A.6.6,0,0,1,6,22.2a1,1,0,0,1,0-.4.6.6,0,0,1,.06-.19.56.56,0,0,1,.09-.17l.12-.15.15-.12a.56.56,0,0,1,.17-.09A.6.6,0,0,1,6.8,21L7,21l.2,0a.6.6,0,0,1,.19.06.56.56,0,0,1,.17.09l.15.12.12.15a.56.56,0,0,1,.09.17A.6.6,0,0,1,8,21.8,1.23,1.23,0,0,1,8,22Z"/><path d="M13,23a1.23,1.23,0,0,1,0,.2.6.6,0,0,1-.06.19.56.56,0,0,1-.09.17l-.12.15-.15.12a.56.56,0,0,1-.17.09.6.6,0,0,1-.19.06L12,24l-.2,0a.6.6,0,0,1-.19-.06.56.56,0,0,1-.17-.09l-.15-.12-.12-.15a.56.56,0,0,1-.09-.17A.6.6,0,0,1,11,23.2a1,1,0,0,1,0-.4.6.6,0,0,1,.06-.19.56.56,0,0,1,.09-.17l.12-.15.15-.12a.56.56,0,0,1,.17-.09A.6.6,0,0,1,11.8,22l.2,0,.2,0a.6.6,0,0,1,.19.06.56.56,0,0,1,.17.09l.15.12.12.15a.56.56,0,0,1,.09.17.6.6,0,0,1,.06.19A1.23,1.23,0,0,1,13,23Z"/><path d="M22,18a1.23,1.23,0,0,1,0,.2.6.6,0,0,1-.06.19.56.56,0,0,1-.09.17l-.12.15-.15.12a.56.56,0,0,1-.17.09.6.6,0,0,1-.19.06L21,19l-.2,0a.6.6,0,0,1-.19-.06.56.56,0,0,1-.17-.09l-.15-.12-.12-.15a.56.56,0,0,1-.09-.17A.6.6,0,0,1,20,18.2a1,1,0,0,1,0-.4.6.6,0,0,1,.06-.19.56.56,0,0,1,.09-.17l.12-.15.15-.12a.56.56,0,0,1,.17-.09A.6.6,0,0,1,20.8,17l.2,0,.2,0a.6.6,0,0,1,.19.06.56.56,0,0,1,.17.09l.15.12.12.15a.56.56,0,0,1,.09.17.6.6,0,0,1,.06.19A1.23,1.23,0,0,1,22,18Z"/><path d="M18,22a1.23,1.23,0,0,1,0,.2.6.6,0,0,1-.06.19.56.56,0,0,1-.09.17l-.12.15-.15.12a.56.56,0,0,1-.17.09.6.6,0,0,1-.19.06L17,23l-.2,0a.6.6,0,0,1-.19-.06.56.56,0,0,1-.17-.09l-.15-.12-.12-.15a.56.56,0,0,1-.09-.17A.6.6,0,0,1,16,22.2a1,1,0,0,1,0-.4.6.6,0,0,1,.06-.19.56.56,0,0,1,.09-.17l.12-.15.15-.12a.56.56,0,0,1,.17-.09A.6.6,0,0,1,16.8,21l.2,0,.2,0a.6.6,0,0,1,.19.06.56.56,0,0,1,.17.09l.15.12.12.15a.56.56,0,0,1,.09.17.6.6,0,0,1,.06.19A1.23,1.23,0,0,1,18,22Z"/></svg>