<svg id="Layer_1" data-name="Layer 1" xmlns="http://www.w3.org/2000/svg" viewBox="0 0 24 24"><title>5-net-p</title><path d="M22,6a1.23,1.23,0,0,1,0,.2.6.6,0,0,1-.06.19.56.56,0,0,1-.09.17l-.12.15-.15.12a.56.56,0,0,1-.17.09A.6.6,0,0,1,21.2,7L21,7l-.2,0a.6.6,0,0,1-.19-.06.56.56,0,0,1-.17-.09l-.15-.12-.12-.15a.56.56,0,0,1-.09-.17A.6.6,0,0,1,20,6.2a1,1,0,0,1,0-.4.6.6,0,0,1,.06-.19.56.56,0,0,1,.09-.17l.12-.15.15-.12a.56.56,0,0,1,.17-.09A.6.6,0,0,1,20.8,5L21,5l.2,0a.6.6,0,0,1,.19.06.56.56,0,0,1,.17.09l.15.12.12.15a.56.56,0,0,1,.09.17A.6.6,0,0,1,22,5.8,1.23,1.23,0,0,1,22,6Z"/><path d="M18,2a1.23,1.23,0,0,1,0,.2.6.6,0,0,1-.06.19.56.56,0,0,1-.09.17l-.12.15-.15.12a.56.56,0,0,1-.17.09A.6.6,0,0,1,17.2,3L17,3l-.2,0a.6.6,0,0,1-.19-.06.56.56,0,0,1-.17-.09l-.15-.12-.12-.15a.56.56,0,0,1-.09-.17A.6.6,0,0,1,16,2.2,1.23,1.23,0,0,1,16,2a1.23,1.23,0,0,1,0-.2.6.6,0,0,1,.06-.19.56.56,0,0,1,.09-.17l.12-.15.15-.12a.56.56,0,0,1,.17-.09A.6.6,0,0,1,16.8,1L17,1l.2,0a.6.6,0,0,1,.19.06.56.56,0,0,1,.17.09l.15.12.12.15a.56.56,0,0,1,.09.17A.6.6,0,0,1,18,1.8,1.23,1.23,0,0,1,18,2Z"/><path d="M13,1a1.23,1.23,0,0,1,0,.2.6.6,0,0,1-.06.19.56.56,0,0,1-.09.17l-.12.15-.15.12a.56.56,0,0,1-.17.09A.6.6,0,0,1,12.2,2L12,2l-.2,0a.6.6,0,0,1-.19-.06.56.56,0,0,1-.17-.09l-.15-.12-.12-.15a.56.56,0,0,1-.09-.17A.6.6,0,0,1,11,1.2,1.23,1.23,0,0,1,11,1a1.23,1.23,0,0,1,0-.2.6.6,0,0,1,.06-.19.56.56,0,0,1,.09-.17l.12-.15.15-.12a.56.56,0,0,1,.17-.09A.6.6,0,0,1,11.8,0L12,0l.2,0a.6.6,0,0,1,.19.06.56.56,0,0,1,.17.09l.15.12.12.15a.56.56,0,0,1,.09.17A.6.6,0,0,1,13,.8,1.23,1.23,0,0,1,13,1Z"/><path d="M8,2a1.23,1.23,0,0,1,0,.2.6.6,0,0,1-.06.19.56.56,0,0,1-.09.17l-.12.15-.15.12a.56.56,0,0,1-.17.09A.6.6,0,0,1,7.2,3L7,3,6.8,3a.6.6,0,0,1-.19-.06.56.56,0,0,1-.17-.09l-.15-.12-.12-.15a.56.56,0,0,1-.09-.17A.6.6,0,0,1,6,2.2,1.23,1.23,0,0,1,6,2a1.23,1.23,0,0,1,0-.2.6.6,0,0,1,.06-.19.56.56,0,0,1,.09-.17l.12-.15.15-.12a.56.56,0,0,1,.17-.09A.6.6,0,0,1,6.8,1L7,1l.2,0a.6.6,0,0,1,.19.06.56.56,0,0,1,.17.09l.15.12.12.15a.56.56,0,0,1,.09.17A.6.6,0,0,1,8,1.8,1.23,1.23,0,0,1,8,2Z"/><path d="M4,6a1.23,1.23,0,0,1,0,.2.6.6,0,0,1-.06.19.56.56,0,0,1-.09.17l-.12.15-.15.12a.56.56,0,0,1-.17.09A.6.6,0,0,1,3.2,7L3,7,2.8,7a.6.6,0,0,1-.19-.06.56.56,0,0,1-.17-.09l-.15-.12-.12-.15a.56.56,0,0,1-.09-.17A.6.6,0,0,1,2,6.2a1,1,0,0,1,0-.4.6.6,0,0,1,.06-.19.56.56,0,0,1,.09-.17l.12-.15.15-.12a.56.56,0,0,1,.17-.09A.6.6,0,0,1,2.8,5L3,5l.2,0a.6.6,0,0,1,.19.06.56.56,0,0,1,.17.09l.15.12.12.15a.56.56,0,0,1,.09.17A.6.6,0,0,1,4,5.8,1.23,1.23,0,0,1,4,6Z"/><path d="M2,12a1.23,1.23,0,0,1,0,.2.6.6,0,0,1-.06.19.56.56,0,0,1-.09.17l-.12.15-.15.12a.56.56,0,0,1-.17.09A.6.6,0,0,1,1.2,13L1,13,.8,13a.6.6,0,0,1-.19-.06.56.56,0,0,1-.17-.09l-.15-.12-.12-.15a.56.56,0,0,1-.09-.17A.6.6,0,0,1,0,12.2a1,1,0,0,1,0-.4.6.6,0,0,1,.06-.19.56.56,0,0,1,.09-.17l.12-.15.15-.12a.56.56,0,0,1,.17-.09A.6.6,0,0,1,.8,11L1,11l.2,0a.6.6,0,0,1,.19.06.56.56,0,0,1,.17.09l.15.12.12.15a.56.56,0,0,1,.09.17A.6.6,0,0,1,2,11.8,1.23,1.23,0,0,1,2,12Z"/><path d="M4,18a1.23,1.23,0,0,1,0,.2.6.6,0,0,1-.06.19.56.56,0,0,1-.09.17l-.12.15-.15.12a.56.56,0,0,1-.17.09A.6.6,0,0,1,3.2,19L3,19l-.2,0a.6.6,0,0,1-.19-.06.56.56,0,0,1-.17-.09l-.15-.12-.12-.15a.56.56,0,0,1-.09-.17A.6.6,0,0,1,2,18.2a1,1,0,0,1,0-.4.6.6,0,0,1,.06-.19.56.56,0,0,1,.09-.17l.12-.15.15-.12a.56.56,0,0,1,.17-.09A.6.6,0,0,1,2.8,17L3,17l.2,0a.6.6,0,0,1,.19.06.56.56,0,0,1,.17.09l.15.12.12.15a.56.56,0,0,1,.09.17A.6.6,0,0,1,4,17.8,1.23,1.23,0,0,1,4,18Z"/><path d="M8,22a1.23,1.23,0,0,1,0,.2.6.6,0,0,1-.06.19.56.56,0,0,1-.09.17l-.12.15-.15.12a.56.56,0,0,1-.17.09A.6.6,0,0,1,7.2,23L7,23l-.2,0a.6.6,0,0,1-.19-.06.56.56,0,0,1-.17-.09l-.15-.12-.12-.15a.56.56,0,0,1-.09-.17A.6.6,0,0,1,6,22.2a1,1,0,0,1,0-.4.6.6,0,0,1,.06-.19.56.56,0,0,1,.09-.17l.12-.15.15-.12a.56.56,0,0,1,.17-.09A.6.6,0,0,1,6.8,21L7,21l.2,0a.6.6,0,0,1,.19.06.56.56,0,0,1,.17.09l.15.12.12.15a.56.56,0,0,1,.09.17A.6.6,0,0,1,8,21.8,1.23,1.23,0,0,1,8,22Z"/><path d="M13,23a1.23,1.23,0,0,1,0,.2.6.6,0,0,1-.06.19.56.56,0,0,1-.09.17l-.12.15-.15.12a.56.56,0,0,1-.17.09.6.6,0,0,1-.19.06L12,24l-.2,0a.6.6,0,0,1-.19-.06.56.56,0,0,1-.17-.09l-.15-.12-.12-.15a.56.56,0,0,1-.09-.17A.6.6,0,0,1,11,23.2a1,1,0,0,1,0-.4.6.6,0,0,1,.06-.19.56.56,0,0,1,.09-.17l.12-.15.15-.12a.56.56,0,0,1,.17-.09A.6.6,0,0,1,11.8,22l.2,0,.2,0a.6.6,0,0,1,.19.06.56.56,0,0,1,.17.09l.15.12.12.15a.56.56,0,0,1,.09.17.6.6,0,0,1,.06.19A1.23,1.23,0,0,1,13,23Z"/><path d="M22,13v3a5.89,5.89,0,0,1-.09,1,5.52,5.52,0,0,1-.25,1,6.36,6.36,0,0,1-.4.93,6.79,6.79,0,0,1-.54.85,5.9,5.9,0,0,1-.66.75,5.81,5.81,0,0,1-.77.64,5.56,5.56,0,0,1-.86.48,5.15,5.15,0,0,1-.93.33,5.15,5.15,0,0,1-.93-.33,5.56,5.56,0,0,1-.86-.48,5.81,5.81,0,0,1-.77-.64,5.9,5.9,0,0,1-.66-.75,6.79,6.79,0,0,1-.54-.85,7.66,7.66,0,0,1-.4-.93,6.52,6.52,0,0,1-.25-1A5.89,5.89,0,0,1,13,16V13l1.13-.5,1.12-.5,1.13-.5L17.5,11l1.13.5,1.12.5,1.13.5Z"/><path d="M19.4,9a7.63,7.63,0,0,0-.47-1,7.43,7.43,0,0,0-.58-.88,8.8,8.8,0,0,0-.69-.8,7.88,7.88,0,0,0-1.19-1,7.44,7.44,0,0,0-1.36-.74,8.44,8.44,0,0,0-1.5-.47A8.53,8.53,0,0,0,12,4h-.5l-.25,0-.25,0a8.37,8.37,0,0,0-1.32.28,9.21,9.21,0,0,0-1.23.48,9.75,9.75,0,0,0-1.12.67,10,10,0,0,0-1,.84,7.88,7.88,0,0,0-1,1.19,7.44,7.44,0,0,0-.74,1.36,8.44,8.44,0,0,0-.47,1.5,8.18,8.18,0,0,0,0,3.22,8.44,8.44,0,0,0,.47,1.5,7.44,7.44,0,0,0,.74,1.36,7.88,7.88,0,0,0,1,1.19,10,10,0,0,0,1,.84,9.75,9.75,0,0,0,1.12.67,9.21,9.21,0,0,0,1.23.48,8.37,8.37,0,0,0,1.32.28l.25,0,.25,0h.94l0-.05,0,0,0,0,0-.05a6.18,6.18,0,0,1-.36-.53c-.1-.19-.2-.38-.29-.57s-.17-.4-.25-.6-.13-.42-.18-.63v.87h0l-.05,0H11A6.68,6.68,0,0,1,9.91,18a6,6,0,0,1-1-.44A5.51,5.51,0,0,1,8,17a6.05,6.05,0,0,1-.78-.74,6,6,0,0,1-.68-.91,6.58,6.58,0,0,1-.51-1,6,6,0,0,1-.32-1.12A6.58,6.58,0,0,1,5.6,12v-.18c0-.07,0-.13,0-.19s0-.12,0-.18a1.1,1.1,0,0,1,0-.18,1.1,1.1,0,0,1,0-.18l0-.17,0-.18c0-.06,0-.11,0-.17l.48.48.48.48.48.48.47.47.48.48.48.48.48.48.48.48v.8a1.66,1.66,0,0,0,0,.32,1.32,1.32,0,0,0,.1.3,1.71,1.71,0,0,0,.14.27,1.59,1.59,0,0,0,.2.24l.2.17a1.55,1.55,0,0,0,.22.12l.25.1.26.05h.07l0-.2c0-.06,0-.13,0-.19a1.41,1.41,0,0,1,0-.2,1.34,1.34,0,0,1,0-.2V12H8.8V10.4h1.6l.16,0,.15,0,.14-.08.12-.1h0v0a.44.44,0,0,0,.08-.11.34.34,0,0,0,.06-.12.58.58,0,0,0,0-.14.61.61,0,0,0,0-.14V8h1.6a1.66,1.66,0,0,0,.32,0,1.32,1.32,0,0,0,.3-.1,1.71,1.71,0,0,0,.27-.14,1.73,1.73,0,0,0,.44-.44A1.71,1.71,0,0,0,14.27,7a1.32,1.32,0,0,0,.1-.3,1.66,1.66,0,0,0,0-.32V6.07a6,6,0,0,1,.84.42A6.47,6.47,0,0,1,16.7,7.66a6.88,6.88,0,0,1,.58.73s.07.11.11.17l.1.17.1.17.09.18.52.23.51.23.51.23.52.22A8.71,8.71,0,0,0,19.4,9Z"/></svg>