<svg id="Layer_1" data-name="Layer 1" xmlns="http://www.w3.org/2000/svg" viewBox="0 0 24 24"><defs><style>.cls-1{fill:#010101;}</style></defs><g id="art_1" data-name="art 1"><path class="cls-1" d="M1.00008,3V5h22V3a2,2,0,0,0-2-2h-18A2,2,0,0,0,1.00008,3ZM4,4.00092a1,1,0,1,1,1-1A1,1,0,0,1,4,4.00092ZM7.00008,4a1,1,0,1,1,1-1A1.003,1.003,0,0,1,7.00008,4Z"/></g><path class="cls-1" d="M.99658,5.99994v14a1.99944,1.99944,0,0,0,2,2h18a1.99947,1.99947,0,0,0,2-2v-14ZM12.5,16.75,9,19V10l3.5,2.25L16,14.5Z"/></svg>