<svg xmlns="http://www.w3.org/2000/svg" viewBox="0 0 24 24"><path d="M11.96887,8,8.93781,9.75v3.5L11.96887,15,15,13.25V9.75Zm1.53259,2.03949-1.5462.8927-1.53259-.88477,1.5462-.8927Zm-3.56365.88269,1.5.866v1.75043l-1.5-.866Zm2.5,2.65234V11.80829L14,10.90637v1.76624Z"/><rect x="10" y="4.5" width="4" height="1" transform="translate(17 -7) rotate(90)"/><rect x="10" y="17.5" width="4" height="1" transform="translate(30 6) rotate(90)"/><rect x="16.5" y="11" width="4" height="1" transform="matrix(-1, 0, 0, -1, 37, 23)"/><rect x="3.5" y="11" width="4" height="1" transform="matrix(-1, 0, 0, -1, 11, 23)"/><rect x="14.59619" y="15.59619" width="4" height="1" transform="translate(16.94975 39.2132) rotate(-135)"/><rect x="5.40381" y="6.40381" width="4" height="1" transform="translate(7.75736 17.02082) rotate(-135)"/><rect x="5.4038" y="15.59619" width="4" height="1" transform="translate(-9.2132 9.94974) rotate(-44.99997)"/><rect x="14.5962" y="6.40381" width="4" height="1" transform="translate(-0.02082 13.75735) rotate(-44.99997)"/><circle cx="4" cy="4" r="1"/><circle cx="1" cy="11.5" r="1"/><circle cx="23" cy="11.5" r="1"/><circle cx="12" cy="1" r="1"/><circle cx="19" cy="4" r="1"/><circle cx="20" cy="19" r="1"/><circle cx="12" cy="22" r="1"/><circle cx="4" cy="19" r="1"/></svg>