<svg xmlns="http://www.w3.org/2000/svg" viewBox="0 0 24 24"><path d="M12.03107,8,9,9.75v3.5L12.03107,15l3.03112-1.75V9.75Zm1.53259,2.03949-1.5462.8927-1.5326-.88477,1.54621-.8927ZM10,10.92218l1.5.866v1.75043l-1.5-.866Zm2.5,2.65234V11.80829l1.56219-.90192v1.76624Z"/><path d="M3.96887,1,.93781,2.75v3.5L3.96887,8,7,6.25V2.75ZM5.50146,3.03949l-1.5462.8927L2.42267,3.04742l1.5462-.8927Zm-3.56365.88269,1.5.866V6.53864l-1.5-.866Zm2.5,2.65234V4.80829L6,3.90637V5.67261Z"/><path d="M3.96887,16,.93781,17.75v3.5L3.96887,23,7,21.25v-3.5Zm1.53259,2.03949-1.5462.8927-1.53259-.88477,1.5462-.8927Zm-3.56365.88269,1.5.866v1.75043l-1.5-.866Zm2.5,2.65234V19.80829L6,18.90637v1.76624Z"/><path d="M20.03107,1,17,2.75v3.5L20.03107,8l3.03112-1.75V2.75Zm1.53259,2.03949-1.5462.8927-1.5326-.88477,1.54621-.8927ZM18,3.92218l1.5.866V6.53864l-1.5-.866Zm2.5,2.65234V4.80829l1.56219-.90192V5.67261Z"/><path d="M20.03107,16,17,17.75v3.5L20.03107,23l3.03112-1.75v-3.5Zm1.53259,2.03949-1.5462.8927-1.5326-.88477,1.54621-.8927ZM18,18.92218l1.5.866v1.75043l-1.5-.866Zm2.5,2.65234V19.80829l1.56219-.90192v1.76624Z"/><rect x="9" y="3" width="6" height="1"/><rect x="9" y="20" width="6" height="1"/><rect x="0.5" y="11.5" width="6" height="1" transform="translate(15.5 8.5) rotate(90)"/><rect x="17" y="11.5" width="6" height="1" transform="translate(32 -8) rotate(90)"/></svg>