<svg xmlns="http://www.w3.org/2000/svg" viewBox="0 0 24 24"><path d="M11.3205,20.525a2.15636,2.15636,0,0,1,2.1545-2.1545h2.78V17.05h-2.78a3.475,3.475,0,1,0,0,6.95h2.78V22.6795h-2.78A2.15636,2.15636,0,0,1,11.3205,20.525Zm2.8495.695h5.56V19.83H14.17Zm6.255-4.17h-2.78v1.3205h2.78a2.1545,2.1545,0,0,1,0,4.309h-2.78V24h2.78a3.475,3.475,0,0,0,0-6.95Z"/><path d="M10,0,1,5.25v10.5l7.14,4.17c-.01-.14-.04-.28-.04-.42a4.48727,4.48727,0,0,1,3.29-4.31V11.42l4.64-2.7v5.3L16,15h3V5.25ZM8.42,16.62,5.65,15l-1.68-.98V8.77l4.45,2.59ZM9.96,8.8,5.41,6.14,10,3.46l4.55,2.66Z"/></svg>