<svg id="Layer_1" data-name="Layer 1" xmlns="http://www.w3.org/2000/svg" viewBox="0 0 24 24"><defs><style>.cls-1{fill:#010101;}</style></defs><rect class="cls-1" x="9.00008" y="9.99815" width="8" height="2"/><polygon class="cls-1" points="24 9.998 21 9.998 21 7.998 19 7.998 19 9.998 19 11.998 19 13.998 21 13.998 21 11.998 24 11.998 24 9.998"/><rect class="cls-1" x="16" y="14.99815" width="8" height="2"/><polygon class="cls-1" points="9 16.998 12 16.998 12 18.998 14 18.998 14 16.998 14 14.998 14 12.998 12 12.998 12 14.998 9 14.998 9 16.998"/><rect class="cls-1" x="9.00008" y="19.99909" width="8" height="2"/><polygon class="cls-1" points="24 19.999 21 19.999 21 17.999 19 17.999 19 19.999 19 21.999 19 23.999 21 23.999 21 21.999 24 21.999 24 19.999"/><path class="cls-1" d="M7.00008,6.99906H21.9432a4.92074,4.92074,0,0,0-2.58881-.95825,7.49652,7.49652,0,0,0-14-2,5.99754,5.99754,0,0,0,.65,11.96h.99572Z"/></svg>