<svg id="Layer_1" data-name="Layer 1" xmlns="http://www.w3.org/2000/svg" viewBox="0 0 24 24"><defs><style>.cls-1{fill:#010101;}</style></defs><path class="cls-1" d="M10.00437,13.112V11.55641h7.77777V13.112Zm0,9.33338h4.66669V20.88978H10.00437Zm3.11115-6.22223H10.00437v1.55554h3.11115v1.55554h1.55554V14.66756H13.11552Zm4.66662,3.11108H16.2266v4.66669h1.55554V22.44533h6.22223V20.88978H17.78214ZM16.2266,17.77864h7.77777V16.2231H16.2266Zm4.66669-6.22223V10.00087H19.33775v4.66669h1.55554V13.112h3.11108V11.55641ZM19.35441,6.04085a7.49651,7.49651,0,0,0-14-2,5.99754,5.99754,0,0,0,.65,11.96h2v-8H22.96964A4.98194,4.98194,0,0,0,19.35441,6.04085Z"/></svg>