<svg id="Layer_1" data-name="Layer 1" xmlns="http://www.w3.org/2000/svg" viewBox="0 0 24 24"><path id="Art-board-1" d="M16.99756,11.02a1,1,0,1,1-1-1A1,1,0,0,1,16.99756,11.02Zm-4-1a1,1,0,1,0,1,1A1,1,0,0,0,12.99756,10.02Zm-3,0h-5v2h5Zm4.002,8.11469V20.048h4.01848V18.00713H13.99957Zm5.42332-3.09413a3.95778,3.95778,0,0,1,.39424.06034q.19389.0398.38065.09811.18658.05817.365.13387.17828.07552.34742.1676.169.09191.32778.19933.15865.10725.30613.229.14732.12162.28247.25674.135.135.25678.28242.12164.14729.22908.30608.10728.15862.19937.32775.09192.16895.16763.34738.07555.17826.1339.365.05817.18657.09813.38062a3.9547,3.9547,0,0,1,.06036.39423,4.00169,4.00169,0,0,1,.02057.4058q0,.21018-.02057.41466-.0204.20431-.06036.402-.03978.19749-.09813.38734-.05817.18967-.1339.37076-.07554.18091-.16763.35225-.09192.17118-.19937.33181-.10728.16045-.22908.30941-.12164.14879-.25678.28508-.135.13614-.28247.25881-.14731.12251-.30613.23059-.15864.10793-.32778.20045-.169.09235-.34742.16835-.17829.07582-.365.13431a3.93232,3.93232,0,0,1-.77489.15878,4.00188,4.00188,0,0,1-.40581.02057H17.002V21.02159h2.01513a1.99131,1.99131,0,0,0,.20182-.01023,1.96658,1.96658,0,0,0,.19606-.03q.09642-.01977.1893-.04877t.18154-.06655q.08867-.03756.17277-.08333t.163-.0991q.0789-.05333.15224-.11387t.14046-.12765q.06712-.0671.1277-.14042t.11392-.1522q.05334-.07887.09914-.163t.08336-.17274q.03758-.08864.06658-.1815t.0488-.18928a1.96932,1.96932,0,0,0,.03-.19605,1.991,1.991,0,0,0,.01022-.20181q0-.10691-.01022-.21066t-.03-.20379q-.01978-.1-.0488-.196t-.06658-.18726q-.03758-.09131-.08336-.17761t-.09914-.167q-.05335-.0807-.11392-.15551t-.1277-.14309q-.06713-.06828-.14046-.12972t-.15224-.11543q-.0789-.054-.163-.10022t-.17277-.08407q-.08866-.03786-.18154-.067a1.94882,1.94882,0,0,0-.38536-.07909,1.9884,1.9884,0,0,0-.20182-.01024H17.002V15.02h2.01513A4.0048,4.0048,0,0,1,19.42289,15.04056Zm-8.41156,4.165q.01014.1037.03.20379t.0488.196q.02893.09589.06658.18726t.08336.17761q.04572.08624.09915.167t.11392.15551q.06048.07473.12769.14309t.14047.12972q.07326.06136.15223.11543t.163.10022q.084.04615.17277.08407t.18154.067a1.94882,1.94882,0,0,0,.38536.07909,1.98845,1.98845,0,0,0,.20183.01024h2.02073V23.02H12.97805a4.00643,4.00643,0,0,1-.4059-.02056,3.959,3.959,0,0,1-.3943-.06034q-.19391-.0398-.38068-.09811-.18661-.05817-.36507-.13387-.17829-.07552-.34743-.1676-.169-.09191-.32778-.19933-.15864-.10725-.30612-.229-.14732-.12162-.28245-.25674-.135-.135-.25675-.28242-.12162-.14729-.229-.30608-.10726-.15863-.19934-.32775-.09191-.16895-.16761-.34738-.07554-.17826-.13387-.365-.05815-.18657-.09811-.38062a3.95467,3.95467,0,0,1-.06034-.39423,4.00169,4.00169,0,0,1-.02057-.4058q0-.21018.02057-.41466.02038-.20431.06034-.402.03978-.19749.09811-.38734.05817-.18968.13387-.37076.07554-.18092.16761-.35225.0919-.17118.19934-.33181.10726-.16045.229-.30941.12162-.14879.25675-.28508.135-.13614.28245-.25881.1473-.1225.30612-.23059.15864-.10793.32778-.20045.169-.09235.34743-.16835.17829-.07583.36507-.13431a3.93262,3.93262,0,0,1,.775-.15878,4.00352,4.00352,0,0,1,.4059-.02057h2.02073v1.99841H12.97805a1.99136,1.99136,0,0,0-.20183.01023,1.967,1.967,0,0,0-.19606.03q-.09642.01977-.1893.04877t-.18154.06655q-.08865.03756-.17277.08333t-.163.0991q-.07889.05333-.15223.11387t-.14047.12765q-.06713.0671-.12769.14042t-.11392.1522q-.05335.07887-.09915.163t-.08336.17274q-.03756.08863-.06658.1815t-.0488.18928a1.96639,1.96639,0,0,0-.03.196,1.98806,1.98806,0,0,0-.01023.20181Q11.0011,19.10178,11.01133,19.20553ZM7.80683,22.02H3.99756a2.00591,2.00591,0,0,1-2-2v-14a2.00587,2.00587,0,0,1,2-2h4.18a2.98811,2.98811,0,0,1,5.64,0h4.18a2.00587,2.00587,0,0,1,2,2v7h-2v-4h-14v4h8.98a2.821,2.821,0,0,0-.41.02l-.01715.00262A5.97608,5.97608,0,0,0,8.53437,15.02H3.99756v4h3l.00073.0144L6.99756,19.05l.00006.00116-.00006.00116c0,.069.00757.136.01032.2044.00372.06525.00488.1305.0097.1933l.00018.0011c.00318.04083.00208.08276.00623.12335l.00238.01557A5.9531,5.9531,0,0,0,7.80683,22.02Zm2.19073-17a1,1,0,1,0,1-1A1.003,1.003,0,0,0,9.99756,5.02Zm-5,13.02H7.08448a5.9529,5.9529,0,0,1,.7102-2H4.99756Z"/></svg>