<svg id="Layer_1" data-name="Layer 1" xmlns="http://www.w3.org/2000/svg" viewBox="0 0 24 24"><title>cluster_role_binding</title><circle cx="17" cy="11" r="1"/><circle cx="14" cy="11" r="1"/><rect x="6" y="10" width="5" height="2"/><rect x="6" y="16" width="5" height="2"/><path d="M11,19H5V15H19v1h1a3,3,0,0,1,1,.18V6a2,2,0,0,0-2-2H14.82A3,3,0,0,0,9.18,4H5A2,2,0,0,0,3,6V20a2,2,0,0,0,2,2h9A3,3,0,0,1,11,19ZM12,4a1,1,0,1,1-1,1A1,1,0,0,1,12,4ZM5,9H19v4H5Z"/><path d="M13.76,19A1.25,1.25,0,0,1,15,17.76h1.6V17H15a2,2,0,0,0,0,4h1.6v-.76H15A1.25,1.25,0,0,1,13.76,19Zm1.64.4h3.2v-.8H15.4ZM19,17H17.4v.76H19a1.24,1.24,0,0,1,0,2.48H17.4V21H19a2,2,0,0,0,0-4Z"/></svg>