<svg id="Layer_1" data-name="Layer 1" xmlns="http://www.w3.org/2000/svg" viewBox="0 0 24 24"><circle cx="16" cy="11" r="1"/><circle cx="13" cy="11" r="1"/><rect x="5" y="10" width="5" height="2"/><path d="M14,18h4v2H14V18Zm5-3H17v2h2.21a.64.64,0,0,1,.2,0l.19.05.18.06.17.09.17.1.15.11.14.13.13.15.11.15.1.17a1.42,1.42,0,0,1,.08.18,1.34,1.34,0,0,1,.07.18,1.46,1.46,0,0,1,.05.2l0,.2A1.55,1.55,0,0,1,21,19a1.41,1.41,0,0,1,0,.2l0,.19a1.05,1.05,0,0,1-.05.19,1,1,0,0,1-.07.18,1.42,1.42,0,0,1-.08.18,1.4,1.4,0,0,1-.1.16l-.11.15a2.58,2.58,0,0,1-.27.27l-.15.11-.17.1-.17.09-.18.06-.19.05a.64.64,0,0,1-.2,0H17v2h2a2.82,2.82,0,0,0,.41,0l.39-.06a2.36,2.36,0,0,0,.38-.1l.37-.13.35-.17.32-.2a3.55,3.55,0,0,0,.31-.23,3.45,3.45,0,0,0,.28-.26l.26-.28.23-.31a4.93,4.93,0,0,0,.37-.69c0-.12.09-.24.13-.37s.07-.26.1-.39a2.57,2.57,0,0,0,.06-.4c0-.14,0-.27,0-.42s0-.27,0-.4a2.76,2.76,0,0,0-.06-.4c0-.13-.06-.25-.1-.38s-.08-.24-.13-.36a3.78,3.78,0,0,0-.17-.35c-.06-.11-.13-.22-.2-.33a3.4,3.4,0,0,0-.23-.3,3.58,3.58,0,0,0-.26-.29l-.28-.25a3.55,3.55,0,0,0-.31-.23l-.32-.2-.35-.17a2.32,2.32,0,0,0-.37-.13,2.36,2.36,0,0,0-.38-.1L19.43,15A2.82,2.82,0,0,0,19,15Zm-8,4a1.41,1.41,0,0,1,0-.2l0-.19a1.05,1.05,0,0,1,.05-.19,1,1,0,0,1,.07-.18,1.42,1.42,0,0,1,.08-.18,1.4,1.4,0,0,1,.1-.16l.11-.15a2.58,2.58,0,0,1,.27-.27l.15-.11.17-.1.17-.09.18-.06.19-.05a.64.64,0,0,1,.2,0H15V15H13a2.82,2.82,0,0,0-.41,0l-.39.06a2.36,2.36,0,0,0-.38.1l-.37.13-.35.17-.32.2a3.55,3.55,0,0,0-.31.23,3.45,3.45,0,0,0-.28.26l-.26.28-.23.31a4.93,4.93,0,0,0-.37.69c-.05.12-.09.24-.13.37s-.07.26-.1.39a2.57,2.57,0,0,0-.06.4c0,.14,0,.27,0,.42s0,.27,0,.4a2.76,2.76,0,0,0,.06.4c0,.13.06.25.1.38s.08.24.13.36a3.78,3.78,0,0,0,.17.35c.06.11.13.22.2.33a3.4,3.4,0,0,0,.23.3,3.58,3.58,0,0,0,.26.29l.28.25a3.55,3.55,0,0,0,.31.23l.32.2.35.17a2.32,2.32,0,0,0,.37.13,2.36,2.36,0,0,0,.38.1l.39.06A2.82,2.82,0,0,0,13,23h2V21H12.78a.64.64,0,0,1-.2,0l-.19-.05-.18-.06L12,20.76l-.17-.1-.15-.11-.14-.13-.13-.15-.11-.15-.1-.17a1.42,1.42,0,0,1-.08-.18,1.34,1.34,0,0,1-.07-.18,1.46,1.46,0,0,1-.05-.2l0-.2A1.55,1.55,0,0,1,11,19Z"/><path d="M5,18H7.1v0c0-.17.08-.33.13-.5s.11-.32.17-.47.14-.31.22-.46.16-.29.25-.42A1.47,1.47,0,0,1,8,16H5Z"/><path d="M7.87,21.89c-.09-.14-.17-.28-.25-.42s-.15-.3-.22-.45-.12-.31-.17-.47-.09-.32-.13-.49A3.92,3.92,0,0,1,7,19.55a.49.49,0,0,1,0-.12H7c0-.06,0-.13,0-.19S7,19.1,7,19H7v0H4V15H8.9l.36-.27,0,0a5,5,0,0,1,2.87-1.63h0l.39-.06A2.82,2.82,0,0,1,13,13H4V9H18v4h1a2.82,2.82,0,0,1,.41,0l.39.06.18.05V6a2,2,0,0,0-2-2H13.82A3,3,0,0,0,8.18,4H4A2,2,0,0,0,2,6V20a2,2,0,0,0,2,2H8ZM11,4a1,1,0,1,1-1,1A1,1,0,0,1,11,4Z"/></svg>