<?xml version="1.0" encoding="utf-8"?>
<!-- Generator: Adobe Illustrator 23.0.4, SVG Export Plug-In . SVG Version: 6.00 Build 0)  -->
<svg version="1.1" id="Layer_1" xmlns="http://www.w3.org/2000/svg" xmlns:xlink="http://www.w3.org/1999/xlink" x="0px" y="0px"
	 viewBox="0 0 24 24" style="enable-background:new 0 0 24 24;" xml:space="preserve">
<title>content_lifecycle_management</title>
<rect x="6" y="7" width="8" height="2"/>
<rect x="6" y="11" width="12" height="2"/>
<rect x="6" y="15" width="3" height="2"/>
<path d="M14,3l-3-3v2H4C2.9,2,2,2.9,2,4v0v16v0c0,1.1,0.9,2,2,2h4v-2H6H4v-2v-5V6V4h2h5v2L14,3z"/>
<path d="M20,2h-4v2h2h2v2v12v0v2h-1.9H18h-5v-2l-3,3l3,3v-2h7c1.1,0,2-0.9,2-2v-0.7V4C22,2.9,21.1,2,20,2z"/>
</svg>
