<?xml version="1.0" encoding="utf-8"?>
<!-- Generator: Adobe Illustrator 23.0.4, SVG Export Plug-In . SVG Version: 6.00 Build 0)  -->
<svg version="1.1" id="Layer_1" xmlns="http://www.w3.org/2000/svg" xmlns:xlink="http://www.w3.org/1999/xlink" x="0px" y="0px"
	 viewBox="0 0 24 24" style="enable-background:new 0 0 24 24;" xml:space="preserve">
<title>content_lifecycle_management</title>
<rect x="6" y="7" width="8" height="2"/>
<rect x="6" y="11" width="12" height="2"/>
<rect x="6" y="15" width="3" height="2"/>
<g>
	<path d="M20,2h-4v2h2C18,2.9,18.9,2,20,2z"/>
	<path d="M22,19.3V4c0,1.1-0.9,2-2,2v12c0,0,0.1,0,0.1,0C21,18,21.7,18.5,22,19.3z"/>
	<path d="M18.1,20H13v-2l-3,3l3,3v-2h7.1C19,22,18.1,21.1,18.1,20z"/>
	<path d="M4,22h4v-2H6C6,21.1,5.1,22,4,22z"/>
	<path d="M6,4h5v2l3-3l-3-3v2H4C5.1,2,6,2.9,6,4z"/>
	<path d="M4,18L4,18l0-5V6h0C2.9,6,2,5.1,2,4v16C2,18.9,2.9,18,4,18z"/>
	<polygon points="2,4 2,4 2,4 	"/>
	<path d="M4,6L4,6l0-2h2c0-1.1-0.9-2-2-2C2.9,2,2,2.9,2,4v0C2,5.1,2.9,6,4,6z"/>
	<polygon points="2,20 2,20 2,20 	"/>
	<path d="M6,20H4v-2h0c-1.1,0-2,0.9-2,2v0c0,1.1,0.9,2,2,2C5.1,22,6,21.1,6,20z"/>
	<path d="M21.9,20.9c0.1-0.2,0.1-0.4,0.1-0.5c0,0,0,0,0,0v-1.1c-0.3-0.7-1-1.3-1.9-1.3c0,0-0.1,0-0.1,0v2h-1.9c0,1.1,0.9,2,2,2
		C20.9,22,21.6,21.6,21.9,20.9z"/>
	<path d="M22,4c0-1.1-0.9-2-2-2s-2,0.9-2,2h2v2C21.1,6,22,5.1,22,4z"/>
</g>
</svg>
