<?xml version="1.0" encoding="utf-8"?>
<!-- Generator: Adobe Illustrator 24.0.1, SVG Export Plug-In . SVG Version: 6.00 Build 0)  -->
<svg version="1.1" id="Layer_1" xmlns="http://www.w3.org/2000/svg" xmlns:xlink="http://www.w3.org/1999/xlink" x="0px" y="0px"
	 viewBox="0 0 24 24" style="enable-background:new 0 0 24 24;" xml:space="preserve">
<style type="text/css">
	.st0{fill:#020202;}
</style>
<title>daemon_set</title>
<path class="st0" d="M3,6H1v14c0,1.1,0.9,2,2,2h16v-2H3V6z"/>
<path class="st0" d="M16.1,10c0.5,0,0.9-0.4,0.9-0.9c0-0.5-0.4-0.9-0.9-0.9c-0.5,0-0.9,0.4-0.9,0.9c0,0.2,0.1,0.5,0.3,0.6
	C15.6,9.9,15.9,10,16.1,10z"/>
<path class="st0" d="M10.9,11.8c0.2,0.6,0.7,1.1,1.2,1.5c1.1,0.8,2.6,0.8,3.8,0c0.5-0.4,0.9-0.9,1.2-1.5H10.9z"/>
<path class="st0" d="M11.9,10c0.5,0,0.9-0.4,0.9-0.9c0-0.5-0.4-0.9-0.9-0.9c-0.5,0-0.9,0.4-0.9,0.9c0,0.2,0.1,0.5,0.3,0.6
	C11.4,9.9,11.7,10,11.9,10z"/>
<path class="st0" d="M20.9,2H7.1C5.9,2,5,2.9,5,4.1v11.9C5,17.1,5.9,18,7.1,18h13.9c1.1,0,2.1-0.9,2.1-2.1V4.1C23,2.9,22.1,2,20.9,2
	z M19.3,9.5c0.6,2.9-1.2,5.8-4.1,6.4s-5.8-1.2-6.4-4.1c-0.2-1.1-0.1-2.3,0.3-3.3C9,8.3,9,8.3,8.9,8.2c0-0.1-0.1-0.2-0.1-0.3
	C8.2,6.3,9,4.6,10.6,4l0,0l0,0c-0.2,0.4-0.4,0.8-0.5,1.3c-0.1,0.5,0,1,0.2,1.4l0,0l0,0c0.5-0.5,1.1-0.8,1.7-1.1
	c1.3-0.5,2.8-0.5,4.1,0c0.6,0.3,1.2,0.6,1.7,1.1l0,0l0,0C18.1,5.8,18,4.8,17.5,4l0,0l0,0c0.7,0.3,1.3,0.9,1.7,1.6
	c0.3,0.7,0.3,1.6,0.1,2.3c0,0.1-0.1,0.2-0.1,0.3c0,0.1-0.1,0.2-0.1,0.3C19.1,8.8,19.2,9.1,19.3,9.5z"/>
</svg>
