<svg id="Layer_1" data-name="Layer 1" xmlns="http://www.w3.org/2000/svg" viewBox="0 0 24 24"><defs><style>.cls-1{fill:#010101;}</style></defs><title>daemon</title><path class="cls-1" d="M20.23669,9.37352q.12846-.20548.23938-.42543a4.85011,4.85011,0,0,0,.20014-.45518A5.04545,5.04545,0,0,0,20.573,4.65536,4.942,4.942,0,0,0,17.79889,2.02l-.01529-.00414-.01529-.0041a5.026,5.026,0,0,1,.44635,4.47338l-.0018.00367-.0018.00366a9.04611,9.04611,0,0,0-2.80748-1.82674,8.98722,8.98722,0,0,0-6.80715,0A9.04623,9.04623,0,0,0,5.789,6.49242l-.00183-.00366-.00183-.00367a4.865,4.865,0,0,1-.27581-2.32961,5.2032,5.2032,0,0,1,.772-2.14377l-.01532.0041L6.25085,2.02a5.03986,5.03986,0,0,0-2.92706,6.473,4.85011,4.85011,0,0,0,.20014.45518q.1104.22.23938.42543a9.00432,9.00432,0,1,0,16.47338,0ZM15.5,8.99584a1.498,1.498,0,1,1-1.06126.43874A1.49527,1.49527,0,0,1,15.5,8.99584Zm-7,0a1.498,1.498,0,1,1-1.06126.43874A1.49527,1.49527,0,0,1,8.5,8.99584ZM12,18.523a5.43737,5.43737,0,0,1-3.12875-.985A5.54585,5.54585,0,0,1,6.89,15.023H17.11a5.54593,5.54593,0,0,1-1.98124,2.515A5.43737,5.43737,0,0,1,12,18.523Z"/></svg>