<svg id="Layer_1" data-name="Layer 1" xmlns="http://www.w3.org/2000/svg" viewBox="0 0 24 24"><defs><style>.cls-1{fill:#020202;}</style></defs><title>daemon_set</title><path class="cls-1" d="M3.00488,7.00525h-2V19.99469a2,2,0,0,0,2,2H18.99512v-2H3.00488Z"/><path class="cls-1" d="M16.09808,9.99365a.89888.89888,0,1,0-.63647-.26343A.89639.89639,0,0,0,16.09808,9.99365Z"/><path class="cls-1" d="M10.93439,11.81091a3.32918,3.32918,0,0,0,1.18823,1.50977,3.27285,3.27285,0,0,0,3.75281,0,3.32866,3.32866,0,0,0,1.18817-1.50977H10.93439Z"/><path class="cls-1" d="M11.9,9.99365a.89888.89888,0,1,0-.63647-.26343A.89629.89629,0,0,0,11.9,9.99365Z"/><path class="cls-1" d="M20.93634,2H7.06366A2.06368,2.06368,0,0,0,5,4.06366V15.93634A2.06368,2.06368,0,0,0,7.06366,18H20.93634A2.06368,2.06368,0,0,0,23,15.93634V4.06366A2.06368,2.06368,0,0,0,20.93634,2Zm-1.6579,7.4668A5.39971,5.39971,0,1,1,9.05927,8.41943q-.0771-.1234-.14356-.25543a2.89244,2.89244,0,0,1-.12006-.27325,3.02646,3.02646,0,0,1,1.75544-3.88581l.00921-.0025L10.56946,4a3.125,3.125,0,0,0-.46295,1.28693,2.92305,2.92305,0,0,0,.1654,1.39849l.0011.0022.0011.0022A5.42527,5.42527,0,0,1,11.95782,5.5932a5.38507,5.38507,0,0,1,4.0824,0,5.4252,5.4252,0,0,1,1.68372,1.09662l.0011-.0022.0011-.0022A3.02,3.02,0,0,0,17.45844,4l.00915.00244.00916.0025A2.96518,2.96518,0,0,1,19.1405,5.587a3.03155,3.03155,0,0,1,.06189,2.30371,2.92361,2.92361,0,0,1-.12005.27325q-.06619.13212-.14356.25543A5.417,5.417,0,0,1,19.27844,9.4668Z"/></svg>