<svg xmlns="http://www.w3.org/2000/svg" viewBox="0 0 24 24"><path d="M11,19.4v1.8c0,.99412-2.41765,1.8-5.4,1.8S.2,22.19412.2,21.2V19.4c0,.99412,2.41765,1.8,5.4,1.8S11,20.39412,11,19.4Zm-5.4-.6C2.61765,18.8.2,17.99412.2,17v1.8c0,.99412,2.41765,1.8,5.4,1.8s5.4-.80588,5.4-1.8V17C11,17.99412,8.58235,18.8,5.6,18.8Zm0-7.8c-2.98235,0-5.4.80588-5.4,1.8V14c0,.99412,2.41765,1.8,5.4,1.8S11,14.99412,11,14V12.8C11,11.80588,8.58235,11,5.6,11Zm0,5.4c-2.98235,0-5.4-.80588-5.4-1.8v1.8c0,.99412,2.41765,1.8,5.4,1.8s5.4-.80588,5.4-1.8V14.6C11,15.59412,8.58235,16.4,5.6,16.4Z"/><path d="M22.8,9.4v1.8c0,.99412-2.41765,1.8-5.4,1.8S12,12.19412,12,11.2V9.4c0,.99412,2.41765,1.8,5.4,1.8S22.8,10.39412,22.8,9.4Zm-5.4-.6C14.41765,8.8,12,7.99412,12,7V8.8c0,.99412,2.41765,1.8,5.4,1.8s5.4-.80588,5.4-1.8V7C22.8,7.99412,20.38235,8.8,17.4,8.8Zm0-7.8C14.41765,1,12,1.80588,12,2.8V4c0,.99412,2.41765,1.8,5.4,1.8s5.4-.80588,5.4-1.8V2.8C22.8,1.80588,20.38235,1,17.4,1Zm0,5.4c-2.98235,0-5.4-.80588-5.4-1.8V6.4c0,.99412,2.41765,1.8,5.4,1.8s5.4-.80588,5.4-1.8V4.6C22.8,5.59412,20.38235,6.4,17.4,6.4Z"/><path d="M19.03326,17.17263h1.3823l-2.41449-2.41449-2.41449,2.41449h1.38833A3.39467,3.39467,0,0,1,14.657,20.92112a3.621,3.621,0,0,0,4.37626-3.74849Z"/></svg>