<svg xmlns="http://www.w3.org/2000/svg" viewBox="0 0 24 24"><path d="M20,18a1,1,0,0,1-1,1H15a3,3,0,0,0-3,3,3,3,0,0,0-3-3H5a1,1,0,0,1-1-1H2a3,3,0,0,0,3,3H9a2,2,0,0,1,2,2h2a2,2,0,0,1,2-2h4a3,3,0,0,0,3-3Z"/><path d="M20,6a1,1,0,0,0-1-1H15a3,3,0,0,1-3-3A3,3,0,0,1,9,5H5A1,1,0,0,0,4,6H2A3,3,0,0,1,5,3H9a2,2,0,0,0,2-2h2a2,2,0,0,0,2,2h4a3,3,0,0,1,3,3Z"/><path d="M2.9485,9.5613v1.61788H5.55825v1.50427H2.9485v1.7556H5.9v1.56084H1V8H5.9V9.5613Z"/><path d="M14.1565,16H12.208L8.94853,11.06562V16H7V8H8.94853L12.208,12.95711V8H14.1565Z"/><path d="M23,8l-2.83793,8H17.72339L14.88546,8h2.0742l1.98284,6.03942L20.93693,8Z"/></svg>