<svg xmlns="http://www.w3.org/2000/svg" viewBox="0 0 24 24"><polygon points="2 16 5.862 16 5.862 14.931 3.147 14.931 3.147 12.483 5.561 12.483 5.561 11.414 3.147 11.414 3.147 9.069 5.862 9.069 5.862 8 2 8 2 16"/><polygon points="12.854 13.954 9.404 8 8.257 8 8.257 16 9.404 16 9.404 10.034 12.854 16 14 16 14 8 12.854 8 12.854 13.954"/><polygon points="20.791 8 18.706 14.653 16.632 8 15.403 8 18.042 16 19.372 16 22 8 20.791 8"/><path d="M22,18a2.91421,2.91421,0,0,1-3,3H15.23a1.21959,1.21959,0,0,0-1.22.88A.48615.48615,0,0,0,14,22H10a.48615.48615,0,0,0-.01-.12A1.21959,1.21959,0,0,0,8.77,21H5a2.91421,2.91421,0,0,1-3-3H4a.90766.90766,0,0,0,1,1H8.77a3.21758,3.21758,0,0,1,3.04,2h.38a3.21764,3.21764,0,0,1,3.04-2H19a.90766.90766,0,0,0,1-1Z"/><path d="M2,6A2.91421,2.91421,0,0,1,5,3H8.77a1.21959,1.21959,0,0,0,1.22-.88A.48615.48615,0,0,0,10,2h4a.48615.48615,0,0,0,.01.12A1.21959,1.21959,0,0,0,15.23,3H19a2.91421,2.91421,0,0,1,3,3H20a.90766.90766,0,0,0-1-1H15.23a3.21758,3.21758,0,0,1-3.04-2h-.38A3.21764,3.21764,0,0,1,8.77,5H5A.90766.90766,0,0,0,4,6Z"/></svg>