<svg id="Layer_1" data-name="Layer 1" xmlns="http://www.w3.org/2000/svg" viewBox="0 0 24 24"><path d="M14,13h6a.99968.99968,0,0,0,1-.99939v-3.002a.99967.99967,0,0,0-1-.99933H17.00177l-1-.99933H14a1.0002,1.0002,0,0,0-1,1V9H8V7h2a.99968.99968,0,0,0,1-.99939V2.99866a.99967.99967,0,0,0-1-.99933H7.00183L6.00177,1H4A1.0002,1.0002,0,0,0,3,2V6A1.00028,1.00028,0,0,0,4,7H6V20h7v1a1.00028,1.00028,0,0,0,1,1h6a.99968.99968,0,0,0,1-.99939v-3.002a.99967.99967,0,0,0-1-.99933H17.00183L16.00177,16H14a1.0002,1.0002,0,0,0-1,1v1H8V11h5v1A1.00024,1.00024,0,0,0,14,13Z"/></svg>