<svg xmlns="http://www.w3.org/2000/svg" viewBox="0 0 24 24"><path d="M7.8633,13.54565l.0011-.00134.0307.038m.334.41357c.27045.33868.53156.679.76526,1.009H6.64424c.04468-.058.3017-.366.56793-.68377l-1.335-1.53986-.44208.50824A12.82835,12.82835,0,0,0,2.58058,21.208L2.577,22.57a1.02992,1.02992,0,0,0,1.03632.97149l.02539-.00048A.99954.99954,0,0,0,4.6133,22.5166l-.01917-1.26782c.00708-.10553-.0014-.14484.00727-.24847l6.81958-.00043c.01147.52594.06231.977.05267,1.49231a1.0118,1.0118,0,0,0,.94971,1.04834l.05029.001a1.00008,1.00008,0,0,0,.99805-.95068c.17651-3.59589-1.22278-7.05646-4.27588-10.57794h0L7.86415,10.48181c-.0039.00458.00391-.00458,0,0,0,0-1.1643-1.32538-1.28253-1.47876L7.9203,8.99988l.00306-.00269.00232.00263,1.10406-.00263c-.16278.23249-.33447.45856-.51239.68518l1.32581,1.52924C12.3943,8.00012,13.62605,4.71722,13.4717,1.438A1.02422,1.02422,0,0,0,12.4258.48584a1.0007,1.0007,0,0,0-.95215,1.0459,10.09758,10.09758,0,0,1-.05158,1.47565H4.58266c.00049-.04657-.00421-.0926-.003-.13923L4.6133,1.50977A.99954.99954,0,0,0,3.63869.48535.973.973,0,0,0,2.61427,1.46L2.58058,2.81885a11.59042,11.59042,0,0,0,2.85449,7.918l1.11036,1.27624M5.38979,7.00354a9.87953,9.87953,0,0,1-.61414-1.99615h6.2569a12.67,12.67,0,0,1-.782,1.99615Zm4.81872,9.99518a12.8186,12.8186,0,0,1,.79987,2.00281l-6.11176-.01069a11.72267,11.72267,0,0,1,.597-1.99353Z"/><circle cx="20.66875" cy="3.50742" r="1.5"/><circle cx="17.66875" cy="10.5" r="1.5"/><circle cx="19.5" cy="18.5" r="1.5"/><rect x="14.17413" y="3" width="4" height="1"/><rect x="14.16894" y="18" width="3" height="1"/></svg>