<svg xmlns="http://www.w3.org/2000/svg" viewBox="0 0 24 24"><path d="M7.46109,13.54069l.0011-.00134.0307.038M8.59213,15H6.242c.04467-.058.30169-.366.56793-.68378L5.475,12.77635l-.44208.50824A12.82826,12.82826,0,0,0,2.17838,21.203l-.0036,1.362a1.02992,1.02992,0,0,0,1.03631.9715l.02539-.00049a.96348.96348,0,0,0,.942-1.00155s-.0059-1.40567-.00326-1.53646h6.99581c.01148.52594.0014,1.48532,0,2.00067a.97009.97009,0,0,0,.9945.76151c.50212-.01712,1.01326-.404,1.013-.76606-.00027-.32843.01-.64226,0-.99092a16.2808,16.2808,0,0,0-4.38493-9.99533h0s-2.496-2.85644-2.6142-3.00982l1.34174-.00586.00232.00262,1.10406-.00262c-.16278.23248-.33447.45855-.51239.68518L9.441,11.20664C11.609,8.47746,13.03215,5.91668,13.1666,3c.02339-.50739.00666-1.03765-.00189-1.57489A1.0968,1.0968,0,0,0,12.02359.48087a.91712.91712,0,0,0-.84983,1.0398c.02326.49341-.0059.9764-.0053,1.47933L4.174,3.00176c.00048-.04657.00183-1.497.00183-1.497A.97083.97083,0,0,0,3.23648.48039,1.00057,1.00057,0,0,0,2.18,1.455L2.17838,2.81388a11.59034,11.59034,0,0,0,2.85449,7.918L6.14322,12.0081S8.35843,14.6699,8.59213,15ZM4.98758,6.99857a9.87995,9.87995,0,0,1-.61413-1.99615h6.25689a12.66866,12.66866,0,0,1-.782,1.99615Zm4.81873,9.99518a12.81893,12.81893,0,0,1,.79986,2.00281l-6.11175-.01068a11.7233,11.7233,0,0,1,.597-1.99353Z"/><circle cx="20.66875" cy="3.50742" r="1.5"/><circle cx="17.66875" cy="10.5" r="1.5"/><circle cx="19.67413" cy="18.5" r="1.5"/><rect x="14.17413" y="3" width="4" height="1"/><rect x="14.16894" y="18" width="3" height="1"/></svg>