<svg xmlns="http://www.w3.org/2000/svg" viewBox="0 0 24 24"><path d="M22,2V22H2V2H22m0-2H2A2,2,0,0,0,0,2V22a2,2,0,0,0,2,2H22a2,2,0,0,0,2-2V2a2,2,0,0,0-2-2ZM7,16H5v6H7V16Zm7,4H12v2h2V20Zm8-4H21v2h1V16Zm0-4H18v2h4V12ZM8,2H6V8H8V2Zm4-2H10V12h2V0ZM6,14a1,1,0,1,1-1,1,1.00113,1.00113,0,0,1,1-1m0-2a3,3,0,1,0,3,3,3,3,0,0,0-3-3Zm9,6a2,2,0,1,0-2,2A2.00229,2.00229,0,0,0,15,18Zm-2-1a1,1,0,1,1-1,1,1.00113,1.00113,0,0,1,1-1m0-2a3,3,0,1,0,3,3,3,3,0,0,0-3-3ZM24,6H18V8h6V6ZM17,6a1,1,0,1,1-1,1,1.00113,1.00113,0,0,1,1-1m0-2a3,3,0,1,0,3,3,3,3,0,0,0-3-3Z"/></svg>