<svg xmlns="http://www.w3.org/2000/svg" viewBox="0 0 24 24"><path d="M22.88648,20.32l-1.07-.83a3.8825,3.8825,0,0,0,.04-.49,2.62581,2.62581,0,0,0-.04-.49l1.06-.83a.25965.25965,0,0,0,.06-.32l-1-1.73a.25361.25361,0,0,0-.31-.11l-1.24.5a3.41989,3.41989,0,0,0-.85-.49l-.18994-1.32a.23884.23884,0,0,0-.24005-.21h-2a.25675.25675,0,0,0-.25.21l-.19,1.32a3.99531,3.99531,0,0,0-.85.49l-1.24-.5a.26192.26192,0,0,0-.31.11l-1,1.73a.24754.24754,0,0,0,.06.32l1.06.83a4.01252,4.01252,0,0,0,0,.98l-1.06.83a.25961.25961,0,0,0-.06.32l1,1.73a.25362.25362,0,0,0,.31.11l1.24-.5a3.42052,3.42052,0,0,0,.85.49l.19,1.32a.249.249,0,0,0,.25.21h2a.25677.25677,0,0,0,.25-.21l.19-1.32a3.69478,3.69478,0,0,0,.84-.49l1.25.5a.26191.26191,0,0,0,.31-.11l1-1.73A.2597.2597,0,0,0,22.88648,20.32Zm-4.78.18a1.5,1.5,0,1,1,1.5-1.5A1.498,1.498,0,0,1,18.10645,20.5Z"/><path d="M13.01367,14.20624V12.00549a1,1,0,0,1,2,0v.72132a6.93868,6.93868,0,0,1,2.02222-.63672v-.0846a1,1,0,1,1,2,0V12.069A6.958,6.958,0,0,1,22,13.184V9.98566a1.99685,1.99685,0,0,0-1.99689-1.99689H18.5119l-5.30182-3.431a1.97352,1.97352,0,0,0-.19641-3.27618V0H12V2.00684a.99269.99269,0,1,1-1,.992l.00244-.01221h-.99359a1.98069,1.98069,0,0,0,.7868,1.57593L5.50128,7.98877H3.99689A1.99685,1.99685,0,0,0,2,9.98566v8.023a1.99689,1.99689,0,0,0,1.99689,1.99688h7.18872a6.86687,6.86687,0,0,1,1.82806-5.79925ZM7,16.00549a1,1,0,0,1-2,0v-4a1,1,0,0,1,2,0ZM11.99481,4.97723,12,4.97778l.0166-.00164,4.65546,3.01263H7.34113Zm-.97259,11.02826a1,1,0,0,1-2,0v-4a1,1,0,1,1,2,0Z"/></svg>