<svg xmlns="http://www.w3.org/2000/svg" viewBox="0 0 24 24"><path d="M5,13v9H3V13Z"/><path d="M9.78191,21.40671a4.29609,4.29609,0,0,1-1.63658-1.60847,4.74106,4.74106,0,0,1,0-4.63758,4.31787,4.31787,0,0,1,1.63658-1.60212,4.50577,4.50577,0,0,1,2.24913-.57567,4.64533,4.64533,0,0,1,2.28614.57567,4.22408,4.22408,0,0,1,1.62392,1.60212,4.80364,4.80364,0,0,1-.00633,4.63758,4.26343,4.26343,0,0,1-1.62392,1.60847,4.73807,4.73807,0,0,1-4.52894,0ZM13.74173,19.341a2.66968,2.66968,0,0,0,.63226-1.85592,2.6654,2.6654,0,0,0-.63226-1.86228,2.16438,2.16438,0,0,0-1.6836-.696,2.19023,2.19023,0,0,0-1.69628.68968,2.65877,2.65877,0,0,0-.63178,1.86863,2.66289,2.66289,0,0,0,.63178,1.86228,2.17977,2.17977,0,0,0,1.69628.696A2.15434,2.15434,0,0,0,13.74173,19.341Z"/><path d="M24,13v2H22v7H19V15H17V13Z"/><path d="M12,11a7.537,7.537,0,0,1,3.96035,1.1485l1.447-1.44977A9.52185,9.52185,0,0,0,12,9a9.36257,9.36257,0,0,0-5.33311,1.68087L8.116,12.13273A7.36057,7.36057,0,0,1,12,11Z"/><path d="M12,7a11.49428,11.49428,0,0,1,6.83406,2.26931L20.26064,7.84A13.47949,13.47949,0,0,0,12,5,13.33283,13.33283,0,0,0,3.81368,7.82223L5.24019,9.25146A11.34329,11.34329,0,0,1,12,7Z"/><path d="M12,3a15.47105,15.47105,0,0,1,9.68734,3.41061l1.42651-1.42923A17.42925,17.42925,0,0,0,.96041,4.96353L2.387,6.39282A15.32766,15.32766,0,0,1,12,3Z"/></svg>