<svg xmlns="http://www.w3.org/2000/svg" viewBox="0 0 24 24"><path d="M17,8H16V6A5,5,0,0,0,6,6V8H5a2.00587,2.00587,0,0,0-2,2V20a2.00591,2.00591,0,0,0,2,2H17a2.00591,2.00591,0,0,0,2-2V10A2.00587,2.00587,0,0,0,17,8ZM7.9,6a3.1,3.1,0,1,1,6.2,0V8H7.9Zm-.41021,4.48975H9.382a.606.606,0,0,0,.60919-.44123A.23112.23112,0,0,0,10,10h2a.23112.23112,0,0,0,.00879.04852.606.606,0,0,0,.60919.44123h1.89227A1.45354,1.45354,0,0,1,16,12h-.98834a.46057.46057,0,0,0-.50141-.50732H12.618A1.64,1.64,0,0,1,11.4527,11h-.90534a1.64019,1.64019,0,0,1-1.16534.49268H7.48981A.45149.45149,0,0,0,7,12H6A1.45355,1.45355,0,0,1,7.48981,10.48975ZM12.1676,13v4h-.97381L9.56433,14.533V17H8.5896V13h.97473l1.62946,2.479V13ZM5,13H7.45l.00025.78088H5.97473v.80872H7.27966v.75214H5.97473v.87738H7.45026V17H5Zm9.49561,6.51025H12.60339A.63942.63942,0,0,0,12,20H10a.675.675,0,0,0-.63257-.48975H7.47516A1.44074,1.44074,0,0,1,6,18h.00043L6,17.99408H7c.00592.23138.07141.50732.47516.50732H9.36743A1.63927,1.63927,0,0,1,10.53815,19H11.438a1.64036,1.64036,0,0,1,1.1654-.49268h1.89222A.463.463,0,0,0,15,18h1A1.46649,1.46649,0,0,1,14.49561,19.51025ZM15.60114,17H14.39886L13,13.05664h1.02307L15,16l.98334-2.94336L17,13Z"/></svg>