<svg id="Layer_1" data-name="Layer 1" xmlns="http://www.w3.org/2000/svg" viewBox="0 0 24 24"><path d="M20.54364,9.50037a2.48814,2.48814,0,0,0-.43494.03619L18.23639,6.29364A2.49465,2.49465,0,1,0,14.1272,3.75H9.8728A2.4927,2.4927,0,1,0,5.84,6.35675L3.99622,9.55A2.49989,2.49989,0,1,0,3.5,14.5a2.486,2.486,0,0,0,.38971-.03931l1.8739,3.24567A2.49465,2.49465,0,1,0,9.8728,20.25h4.2544a2.49373,2.49373,0,1,0,4.10736-2.54517l1.8739-3.24639a2.47407,2.47407,0,0,0,.3479.04119,2.5,2.5,0,1,0,.08728-4.99926ZM16.88715,17.039A2.41889,2.41889,0,0,0,14.1272,18.75H9.8728a2.42006,2.42006,0,0,0-2.76251-1.71069l-1.8739-3.24567A2.485,2.485,0,0,0,5.3072,10.28l-.00038-.00039L7.217,6.9715A2.45914,2.45914,0,0,0,7.5,7,2.49157,2.49157,0,0,0,9.8728,5.25h4.2544a2.42,2.42,0,0,0,2.76251,1.71069l1.87213,3.24274a2.48923,2.48923,0,0,0-.06481,3.51971q.0324.0336.066.066Z"/></svg>