<svg xmlns="http://www.w3.org/2000/svg" viewBox="0 0 24 24"><defs><style>.cls-1{fill:#231f20;}</style></defs><g id="EOS_Icon" data-name="EOS Icon"><polygon class="cls-1" points="9.963 15.01 8.086 8.438 7.41 11.818 5 11.818 5 10.818 6.59 10.818 7.914 4.198 10.037 11.627 10.64 9.818 12.732 9.818 14.822 6.037 15.772 10.791 16.691 9.818 18 9.818 18 10.818 17.309 10.818 15.796 13.846 14.746 8.6 13.268 10.818 11.36 10.818 9.963 15.01"/><rect class="cls-1" x="11" y="17" width="2" height="4"/><rect class="cls-1" x="11" y="18" width="2" height="8" transform="translate(34 10) rotate(90)"/><path class="cls-1" d="M20,18.5H4a3.00328,3.00328,0,0,1-3-3V4.5a3.00328,3.00328,0,0,1,3-3H20a3.00328,3.00328,0,0,1,3,3v11A3.00328,3.00328,0,0,1,20,18.5ZM4,3.5a1.00067,1.00067,0,0,0-1,1v11a1.00067,1.00067,0,0,0,1,1H20a1.00067,1.00067,0,0,0,1-1V4.5a1.00067,1.00067,0,0,0-1-1Z"/></g></svg>