<svg id="Layer_2" data-name="Layer 2" xmlns="http://www.w3.org/2000/svg" viewBox="0 0 24 24"><defs><style>.cls-1{fill:#010101;}</style></defs><path class="cls-1" d="M23.00176,11.01279l.001.2468.001.2468.001.24681.001.2468-.001.24886-.001.24887-.001.24886-.001.24886a1.53363,1.53363,0,0,0-.51569.07056.59871.59871,0,0,0-.30365.2275.99139.99139,0,0,0-.14386.40819,3.98077,3.98077,0,0,0-.03634.61263l-.00014,1.1243-.00014,1.1243-.00014,1.1243-.00013,1.12429a3.9618,3.9618,0,0,1-.26713,1.55465,2.21327,2.21327,0,0,1-.77821.97066,3.36146,3.36146,0,0,1-1.25448.50513,8.89211,8.89211,0,0,1-1.696.158V20.00354c.35091-.008.65113-.00256.90407-.01361a1.69951,1.69951,0,0,0,.62043-.11237.66967.66967,0,0,0,.35724-.39009,2.37115,2.37115,0,0,0,.11454-.84678l.00013-1.07438.00014-1.07437.00014-1.07437.00014-1.07437q0-.26225.01724-.491a3.98579,3.98579,0,0,1,.05354-.4238,2.4234,2.4234,0,0,1,.09252-.35651,1.5087,1.5087,0,0,1,.13418-.28909,2.05241,2.05241,0,0,1,.18762-.2629,1.486,1.486,0,0,1,.21521-.20765,1.68457,1.68457,0,0,1,.2631-.16808A2.83919,2.83919,0,0,1,21.29738,12a2.83919,2.83919,0,0,1-.33126-.14421,1.68387,1.68387,0,0,1-.2631-.16809,1.486,1.486,0,0,1-.21521-.20766,2.053,2.053,0,0,1-.18762-.26294A1.50888,1.50888,0,0,1,20.166,10.928a2.42344,2.42344,0,0,1-.09252-.35649,3.98612,3.98612,0,0,1-.05354-.4238q-.01746-.2287-.01724-.491l-.00014-1.07437L20.00243,7.508l-.00014-1.07438-.00013-1.07437a2.371,2.371,0,0,0-.11454-.84675.66968.66968,0,0,0-.35724-.39008,1.69951,1.69951,0,0,0-.62043-.11237c-.25294-.01106-.55316-.00567-.90407-.01365V2a8.88978,8.88978,0,0,1,1.696.158,3.36113,3.36113,0,0,1,1.25448.50513,2.21325,2.21325,0,0,1,.77821.97067,3.96188,3.96188,0,0,1,.26713,1.55466l.00013,1.12429.00014,1.1243.00014,1.1243.00014,1.1243a4.00514,4.00514,0,0,0,.03634.61392,1.00648,1.00648,0,0,0,.14386.411.60193.60193,0,0,0,.30365.23033A1.511,1.511,0,0,0,23.00176,11.01279Zm-22.00352,0-.001.2468-.001.2468-.001.24681L.99412,12l.001.24886.001.24887.001.24886.001.24886a1.53363,1.53363,0,0,1,.51569.07056.59871.59871,0,0,1,.30365.2275.99139.99139,0,0,1,.14386.40819,3.98077,3.98077,0,0,1,.03634.61263l.00014,1.1243.00014,1.1243.00014,1.1243.00013,1.12429a3.9618,3.9618,0,0,0,.26713,1.55465,2.21327,2.21327,0,0,0,.77821.97066,3.36146,3.36146,0,0,0,1.25448.50513,8.89211,8.89211,0,0,0,1.696.158V20.00354c-.35091-.008-.65113-.00256-.90407-.01361a1.69951,1.69951,0,0,1-.62043-.11237.66967.66967,0,0,1-.35724-.39009,2.37115,2.37115,0,0,1-.11454-.84678l-.00013-1.07438-.00014-1.07437-.00014-1.07437L3.99729,14.3432q0-.26225-.01724-.491a3.98579,3.98579,0,0,0-.05354-.4238,2.4234,2.4234,0,0,0-.09252-.35651,1.5087,1.5087,0,0,0-.13418-.28909,2.05241,2.05241,0,0,0-.18762-.2629,1.486,1.486,0,0,0-.21521-.20765,1.68457,1.68457,0,0,0-.2631-.16808A2.83919,2.83919,0,0,0,2.70262,12a2.83919,2.83919,0,0,0,.33126-.14421,1.68387,1.68387,0,0,0,.2631-.16809A1.486,1.486,0,0,0,3.51219,11.48a2.053,2.053,0,0,0,.18762-.26294A1.50888,1.50888,0,0,0,3.834,10.928a2.42344,2.42344,0,0,0,.09252-.35649,3.98612,3.98612,0,0,0,.05354-.4238q.01746-.2287.01724-.491l.00014-1.07437L3.99757,7.508l.00014-1.07438.00013-1.07437a2.371,2.371,0,0,1,.11454-.84675.66968.66968,0,0,1,.35724-.39008,1.69951,1.69951,0,0,1,.62043-.11237c.25294-.01106.55316-.00567.90407-.01365V2a8.88978,8.88978,0,0,0-1.696.158,3.36113,3.36113,0,0,0-1.25448.50513,2.21325,2.21325,0,0,0-.77821.97067,3.96188,3.96188,0,0,0-.26713,1.55466L1.9982,6.31277l-.00014,1.1243-.00014,1.1243-.00014,1.1243a4.00514,4.00514,0,0,1-.03634.61392,1.00648,1.00648,0,0,1-.14386.411.60193.60193,0,0,1-.30365.23033A1.511,1.511,0,0,1,.99824,11.01279ZM18,9v5.99994H6V9H18Zm-2.01923,1.99994H8V13h7.98077V10.99994Z"/></svg>