<svg id="Layer_1" data-name="Layer 1" xmlns="http://www.w3.org/2000/svg" viewBox="0 0 24 24"><title>network-5</title><path d="M12,4a8,8,0,1,0,5.66,2.34A8,8,0,0,0,12,4Zm-.8,14.34A6.39,6.39,0,0,1,5.6,12a5.84,5.84,0,0,1,.05-.73,5.38,5.38,0,0,1,.12-.7l1.91,1.91L9.6,14.4v.8a1.6,1.6,0,0,0,1.6,1.6v1.54Zm5.52-2a1.58,1.58,0,0,0-.57-.8,1.61,1.61,0,0,0-.95-.31h-.8V12.8a.79.79,0,0,0-.23-.56A.8.8,0,0,0,13.6,12H8.8V10.4h1.6a.79.79,0,0,0,.8-.8V8h1.6a1.6,1.6,0,0,0,1.6-1.6V6.07a6.49,6.49,0,0,1,2.88,2.32,6.37,6.37,0,0,1,.67,6A6.43,6.43,0,0,1,16.72,16.31Z"/><path d="M24,12a1,1,0,1,1-.29-.71A1,1,0,0,1,24,12Z"/><path d="M22,6a1,1,0,1,1-.29-.71A1,1,0,0,1,22,6Z"/><path d="M18,2a1,1,0,1,1-.29-.71A1,1,0,0,1,18,2Z"/><path d="M13,1a1,1,0,1,1-2,0,1,1,0,1,1,2,0Z"/><path d="M8,2a1,1,0,1,1-.29-.71A1,1,0,0,1,8,2Z"/><path d="M4,6a1,1,0,1,1-.29-.71A1,1,0,0,1,4,6Z"/><path d="M2,12a1,1,0,0,1-1,1,1,1,0,1,1,0-2,1,1,0,0,1,1,1Z"/><path d="M4,18a1,1,0,1,1-.29-.71A1,1,0,0,1,4,18Z"/><path d="M8,22a1,1,0,1,1-.29-.71A1,1,0,0,1,8,22Z"/><path d="M13,23a1,1,0,1,1-.29-.71A1,1,0,0,1,13,23Z"/><path d="M22,18a1,1,0,1,1-.29-.71A1,1,0,0,1,22,18Z"/><path d="M18,22a1,1,0,1,1-.29-.71A1,1,0,0,1,18,22Z"/></svg>