<svg id="Layer_1" data-name="Layer 1" xmlns="http://www.w3.org/2000/svg" viewBox="0 0 24.00001 24.00001"><path d="M20.00476,6.10223a1.00943,1.00943,0,0,1,0-.20446.99916.99916,0,0,1,.01514-.09931.98185.98185,0,0,1,.02466-.09582.96778.96778,0,0,1,.03363-.09192q.01895-.04487.042-.0874t.05011-.08246q.027-.03991.05756-.077t.06457-.071c.02258-.02265.04633-.04419.071-.06458s.05042-.03961.077-.05755.05408-.03473.0824-.05011.05755-.02942.08746-.04212.06055-.02386.09186-.03363.06329-.01794.09582-.0246a.9824.9824,0,0,1,.09931-.01519,1.02128,1.02128,0,0,1,.20447,0,.98177.98177,0,0,1,.0993.01519q.0488.01.09583.0246t.09185.03363q.04487.01905.08747.04212t.08239.05011q.03993.02691.077.05755c.02466.02039.0484.04193.071.06458s.04418.04626.06457.071.03955.05036.05756.077.03466.05414.05011.08246.02942.05749.042.0874a.97054.97054,0,0,1,.03363.09192.98185.98185,0,0,1,.02466.09582A1.00983,1.00983,0,0,1,21.99957,6a1.00983,1.00983,0,0,1-.02032.20154.98185.98185,0,0,1-.02466.09582.97042.97042,0,0,1-.03363.09186q-.01895.04486-.042.0874t-.05011.08246q-.027.03991-.05756.077t-.06457.071c-.02259.02265-.04633.04419-.071.06452s-.05041.03961-.077.05761-.05407.03467-.08239.05-.05756.02948-.08747.04212-.06054.02392-.09185.03363a.98779.98779,0,0,1-.09583.02466,1.00969,1.00969,0,0,1-.40308,0,.98759.98759,0,0,1-.09582-.02466c-.03131-.00971-.06195-.021-.09186-.03363s-.05908-.02668-.08746-.04212-.05585-.0321-.0824-.05-.05231-.03723-.077-.05761-.0484-.04187-.071-.06452-.04419-.04632-.06457-.071-.03956-.05036-.05756-.077-.03467-.05408-.05011-.08246-.02942-.05749-.042-.0874a.96766.96766,0,0,1-.03363-.09186.98185.98185,0,0,1-.02466-.09582A1.00185,1.00185,0,0,1,20.00476,6.10223ZM16.0199,2.20154a.98185.98185,0,0,0,.02466.09582.96766.96766,0,0,0,.03363.09186q.01895.04487.042.0874t.05011.08246q.027.03992.05756.077t.06457.071c.02258.02265.04633.04419.071.06452s.05042.03961.077.05761.05408.03467.0824.05005.05755.02948.08746.04212.06055.02392.09186.03363a.98759.98759,0,0,0,.09582.02466,1.00963,1.00963,0,0,0,.40308,0,.98779.98779,0,0,0,.09583-.02466c.03131-.00971.06195-.021.09185-.03363s.05909-.02668.08747-.04212.05584-.0321.08239-.05005.05231-.03723.077-.05761.0484-.04187.071-.06452.04418-.04632.06457-.071.03955-.05036.05756-.077.03466-.05408.05011-.08246.02942-.05749.042-.0874a.97042.97042,0,0,0,.03363-.09186.98185.98185,0,0,0,.02466-.09582,1.00969,1.00969,0,0,0,0-.40308.98185.98185,0,0,0-.02466-.09582.97054.97054,0,0,0-.03363-.09192q-.01895-.04486-.042-.0874t-.05011-.08246q-.027-.03991-.05756-.077t-.06457-.071c-.02259-.02265-.04633-.04419-.071-.06458s-.05041-.03961-.077-.05755-.05407-.03473-.08239-.05011-.05756-.02942-.08747-.04212-.06054-.02386-.09185-.03363-.0633-.01794-.09583-.0246a.98177.98177,0,0,0-.0993-.01519,1.02128,1.02128,0,0,0-.20447,0,.9824.9824,0,0,0-.09931.01519q-.0488.01-.09582.0246t-.09186.03363q-.04487.01905-.08746.04212t-.0824.05011q-.03992.02691-.077.05755c-.02465.02039-.0484.04193-.071.06458s-.04419.04626-.06457.071-.03956.05036-.05756.077-.03467.05414-.05011.08246-.02942.05749-.042.0874a.96778.96778,0,0,0-.03363.09192.98185.98185,0,0,0-.02466.09582A1.00885,1.00885,0,0,0,15.99957,2a1.00885,1.00885,0,0,0,.02033.20154Zm-5-1a.98185.98185,0,0,0,.02466.09582.96766.96766,0,0,0,.03363.09186q.01895.04487.04205.0874t.05011.08246q.027.03991.05756.077t.06457.071c.02258.02265.04633.04419.071.06452s.05042.03961.077.05761.05408.03467.0824.05.05755.02948.08746.04212.06055.02392.09186.03363a.98759.98759,0,0,0,.09582.02466,1.00963,1.00963,0,0,0,.40308,0,.98779.98779,0,0,0,.09583-.02466c.03131-.00971.062-.021.09185-.03363s.05909-.02668.08747-.04212.05584-.0321.08239-.05.05231-.03723.077-.05761.0484-.04187.071-.06452.04418-.04632.06457-.071.03955-.05036.05756-.077.03466-.05408.05011-.08246.02942-.05749.042-.0874a.97042.97042,0,0,0,.03363-.09186.98185.98185,0,0,0,.02466-.09582,1.00969,1.00969,0,0,0,0-.40308.98185.98185,0,0,0-.02466-.09582A.97054.97054,0,0,0,12.921.61072q-.01895-.04487-.042-.0874T12.8288.44086q-.027-.03991-.05756-.077t-.06457-.071c-.02259-.02265-.04633-.04419-.071-.06458s-.05041-.03961-.077-.05755-.05407-.03473-.08239-.05011S12.4187.09125,12.38879.07855s-.06054-.02386-.09185-.03363-.0633-.01794-.09583-.0246a.98177.98177,0,0,0-.0993-.01519,1.02128,1.02128,0,0,0-.20447,0A.9824.9824,0,0,0,11.798.02032q-.0488.01-.09582.0246t-.09186.03363q-.04487.019-.08746.04212t-.0824.05011q-.03992.02691-.077.05755c-.02465.02039-.0484.04193-.071.06458s-.04419.04626-.06457.071-.03956.05036-.05756.077-.03467.05414-.05011.08246-.02942.05749-.04205.0874a.96778.96778,0,0,0-.03363.09192.98185.98185,0,0,0-.02466.09582A1.00885,1.00885,0,0,0,10.99957,1a1.00885,1.00885,0,0,0,.02033.20154Zm-5,1a.98185.98185,0,0,0,.02466.09582.96766.96766,0,0,0,.03363.09186q.01894.04487.042.0874t.05011.08246q.027.03992.05756.077t.06457.071c.02258.02265.04633.04419.071.06452s.05042.03961.077.05761.05408.03467.0824.05005.05755.02948.08746.04212.06055.02392.09186.03363a.98759.98759,0,0,0,.09582.02466,1.00963,1.00963,0,0,0,.40308,0A.98779.98779,0,0,0,7.29694,2.955c.03131-.00971.06195-.021.09185-.03363s.05909-.02668.08747-.04212.05584-.0321.08239-.05005.05231-.03723.077-.05761.0484-.04187.071-.06452.04418-.04632.06457-.071.03955-.05036.05756-.077.03466-.05408.05011-.08246.02942-.05749.042-.0874a.97042.97042,0,0,0,.03363-.09186.98185.98185,0,0,0,.02466-.09582,1.00969,1.00969,0,0,0,0-.40308.98185.98185,0,0,0-.02466-.09582A.97054.97054,0,0,0,7.921,1.61072q-.01894-.04486-.042-.0874T7.8288,1.44086q-.027-.03991-.05756-.077t-.06457-.071c-.02259-.02265-.04633-.04419-.071-.06458s-.05041-.03961-.077-.05755-.05407-.03473-.08239-.05011-.05756-.02942-.08747-.04212-.06054-.02386-.09185-.03363-.0633-.01794-.09583-.0246a.98177.98177,0,0,0-.0993-.01519,1.02128,1.02128,0,0,0-.20447,0,.9824.9824,0,0,0-.09931.01519q-.04879.01-.09582.0246t-.09186.03363q-.04486.01905-.08746.04212t-.0824.05011q-.03991.02691-.077.05755c-.02465.02039-.0484.04193-.071.06458s-.04419.04626-.06457.071-.03956.05036-.05756.077-.03467.05414-.05011.08246-.02942.05749-.042.0874a.96778.96778,0,0,0-.03363.09192.98185.98185,0,0,0-.02466.09582A1.00885,1.00885,0,0,0,5.99957,2a1.00885,1.00885,0,0,0,.02033.20154Zm-4,4a.98185.98185,0,0,0,.02466.09582.96766.96766,0,0,0,.03363.09186q.01894.04486.042.0874t.05011.08246q.027.03991.05756.077t.06457.071c.02258.02265.04633.04419.071.06452s.05042.03961.077.05761.05408.03467.0824.05.05755.02948.08746.04212.06055.02392.09186.03363a.98759.98759,0,0,0,.09582.02466,1.00963,1.00963,0,0,0,.40308,0A.98779.98779,0,0,0,3.29694,6.955c.03131-.00971.06195-.021.09185-.03363s.05909-.02668.08747-.04212.05584-.0321.08239-.05.05231-.03723.077-.05761.0484-.04187.071-.06452.04418-.04632.06457-.071.03955-.05036.05756-.077.03466-.05408.05011-.08246.02942-.05749.04205-.0874a.97042.97042,0,0,0,.03363-.09186.98185.98185,0,0,0,.02466-.09582,1.00969,1.00969,0,0,0,0-.40308.98185.98185,0,0,0-.02466-.09582A.97054.97054,0,0,0,3.921,5.61072q-.01895-.04487-.04205-.0874T3.8288,5.44086q-.027-.03991-.05756-.077t-.06457-.071c-.02259-.02265-.04633-.04419-.071-.06458s-.05041-.03961-.077-.05755-.05407-.03473-.08239-.05011-.05756-.02942-.08747-.04212-.06054-.02386-.09185-.03363-.0633-.01794-.09583-.0246a.98177.98177,0,0,0-.0993-.01519,1.02128,1.02128,0,0,0-.20447,0,.9824.9824,0,0,0-.09931.01519q-.0488.01-.09582.0246t-.09186.03363q-.04487.01905-.08746.04212t-.0824.05011q-.03992.02691-.077.05755c-.02465.02039-.0484.04193-.071.06458s-.04419.04626-.06457.071-.03956.05036-.05756.077-.03467.05414-.05011.08246-.02942.05749-.042.0874a.96778.96778,0,0,0-.03363.09192.98185.98185,0,0,0-.02466.09582A1.00885,1.00885,0,0,0,1.99957,6a1.00885,1.00885,0,0,0,.02033.20154Zm-.02552,5.69623a.99915.99915,0,0,0-.01513-.09931.98185.98185,0,0,0-.02466-.09582.97054.97054,0,0,0-.03363-.09192q-.01894-.04487-.042-.0874t-.05011-.08246q-.027-.03992-.05756-.077t-.06457-.071c-.02259-.02265-.04633-.04419-.071-.06458s-.05041-.03961-.077-.05755-.05407-.03473-.08239-.05011-.05756-.02942-.08747-.04212-.06054-.02386-.09185-.03363-.0633-.01794-.09583-.0246a.98177.98177,0,0,0-.0993-.01519,1.02128,1.02128,0,0,0-.20447,0,.9824.9824,0,0,0-.09931.01519q-.0488.01-.09582.0246t-.09186.03363q-.04486.01905-.08746.04212t-.0824.05011q-.03991.02691-.077.05755c-.02465.02039-.0484.04193-.071.06458s-.04419.04626-.06457.071-.03956.05036-.05756.077-.03467.05414-.05011.08246-.02942.05749-.04205.0874a.96778.96778,0,0,0-.03363.09192.98185.98185,0,0,0-.02466.09582A1.00885,1.00885,0,0,0-.00043,12a1.00885,1.00885,0,0,0,.02033.20154.98185.98185,0,0,0,.02466.09582.96766.96766,0,0,0,.03363.09186q.01895.04486.04205.0874t.05011.08246q.027.03991.05756.077t.06457.071c.02258.02265.04633.04419.071.06452s.05042.03961.077.05761.05408.03467.0824.05005.05755.02948.08746.04212.06055.02392.09186.03363a.98759.98759,0,0,0,.09582.02466,1.00963,1.00963,0,0,0,.40308,0,.98779.98779,0,0,0,.09583-.02466c.03131-.00971.06195-.021.09185-.03363s.05909-.02668.08747-.04212.05584-.0321.08239-.05005.05231-.03723.077-.05761.0484-.04187.071-.06452.04418-.04632.06457-.071.03955-.05036.05756-.077.03466-.05408.05011-.08246.02942-.05749.042-.0874a.97042.97042,0,0,0,.03363-.09186.98185.98185,0,0,0,.02466-.09582,1.00956,1.00956,0,0,0,.01513-.30377Zm1.98487,5.90069a.98185.98185,0,0,0-.02466-.09582.97054.97054,0,0,0-.03363-.09192q-.01895-.04487-.04205-.0874t-.05011-.08246q-.027-.03992-.05756-.077t-.06457-.071c-.02259-.02265-.04633-.04419-.071-.06458s-.05041-.03961-.077-.05755-.05407-.03473-.08239-.05011-.05756-.02942-.08747-.04212-.06054-.02386-.09185-.03363-.0633-.01794-.09583-.0246a.98177.98177,0,0,0-.0993-.01519,1.02128,1.02128,0,0,0-.20447,0,.9824.9824,0,0,0-.09931.01519q-.0488.01-.09582.0246t-.09186.03363q-.04487.01905-.08746.04212t-.0824.05011q-.03992.02691-.077.05755c-.02465.02039-.0484.04193-.071.06458s-.04419.04626-.06457.071-.03956.05036-.05756.077-.03467.05414-.05011.08246-.02942.05749-.042.0874a.96778.96778,0,0,0-.03363.09192.98185.98185,0,0,0-.02466.09582A1.00885,1.00885,0,0,0,1.99957,18a1.00885,1.00885,0,0,0,.02033.20154.98185.98185,0,0,0,.02466.09582.96766.96766,0,0,0,.03363.09186q.01894.04486.042.0874t.05011.08246q.027.03991.05756.077t.06457.071c.02258.02265.04633.04419.071.06452s.05042.03961.077.05761.05408.03467.0824.05005.05755.02948.08746.04212.06055.02392.09186.03363a.98759.98759,0,0,0,.09582.02466,1.00963,1.00963,0,0,0,.40308,0,.98779.98779,0,0,0,.09583-.02466c.03131-.00971.06195-.021.09185-.03363s.05909-.02668.08747-.04212.05584-.0321.08239-.05005.05231-.03723.077-.05761.0484-.04187.071-.06452.04418-.04632.06457-.071.03955-.05036.05756-.077.03466-.05408.05011-.08246.02942-.05749.04205-.0874a.97042.97042,0,0,0,.03363-.09186.98185.98185,0,0,0,.02466-.09582,1.00969,1.00969,0,0,0,0-.40308Zm4,4a.98185.98185,0,0,0-.02466-.09582.97054.97054,0,0,0-.03363-.09192q-.01894-.04487-.042-.0874t-.05011-.08246q-.027-.03992-.05756-.077t-.06457-.071c-.02259-.02265-.04633-.04419-.071-.06458s-.05041-.03961-.077-.05755-.05407-.03473-.08239-.05011-.05756-.02942-.08747-.04212-.06054-.02386-.09185-.03363-.0633-.01794-.09583-.0246a.98177.98177,0,0,0-.0993-.01519,1.02128,1.02128,0,0,0-.20447,0,.9824.9824,0,0,0-.09931.01519q-.04879.01-.09582.0246t-.09186.03363q-.04486.01905-.08746.04212t-.0824.05011q-.03991.02691-.077.05755c-.02465.02039-.0484.04193-.071.06458s-.04419.04626-.06457.071-.03956.05036-.05756.077-.03467.05414-.05011.08246-.02942.05749-.042.0874a.96778.96778,0,0,0-.03363.09192.98185.98185,0,0,0-.02466.09582A1.00885,1.00885,0,0,0,5.99957,22a1.00885,1.00885,0,0,0,.02033.20154.98185.98185,0,0,0,.02466.09582.96766.96766,0,0,0,.03363.09186q.01894.04486.042.0874t.05011.08246q.027.03991.05756.077t.06457.071c.02258.02265.04633.04419.071.06452s.05042.03961.077.05761.05408.03467.0824.05005.05755.02948.08746.04212.06055.02392.09186.03363a.98759.98759,0,0,0,.09582.02466,1.00963,1.00963,0,0,0,.40308,0,.98779.98779,0,0,0,.09583-.02466c.03131-.00971.06195-.021.09185-.03363s.05909-.02668.08747-.04212.05584-.0321.08239-.05005.05231-.03723.077-.05761.0484-.04187.071-.06452.04418-.04632.06457-.071.03955-.05036.05756-.077.03466-.05408.05011-.08246.02942-.05749.042-.0874a.97042.97042,0,0,0,.03363-.09186.98185.98185,0,0,0,.02466-.09582,1.00969,1.00969,0,0,0,0-.40308Zm5,1a.98185.98185,0,0,0-.02466-.09582.97054.97054,0,0,0-.03363-.09192q-.01895-.04487-.042-.0874t-.05011-.08246q-.027-.03992-.05756-.077t-.06457-.071c-.02259-.02265-.04633-.04419-.071-.06458s-.05041-.03961-.077-.05755-.05407-.03473-.08239-.05011-.05756-.02942-.08747-.04212-.06054-.02386-.09185-.03363-.0633-.01794-.09583-.0246a.98177.98177,0,0,0-.0993-.01519,1.02128,1.02128,0,0,0-.20447,0,.9824.9824,0,0,0-.09931.01519q-.0488.01-.09582.0246t-.09186.03363q-.04487.01905-.08746.04212t-.0824.05011q-.03992.02691-.077.05755c-.02465.02039-.0484.04193-.071.06458s-.04419.04626-.06457.071-.03956.05036-.05756.077-.03467.05414-.05011.08246-.02942.05749-.04205.0874a.96778.96778,0,0,0-.03363.09192.98185.98185,0,0,0-.02466.09582A1.00885,1.00885,0,0,0,10.99957,23a1.00885,1.00885,0,0,0,.02033.20154.98185.98185,0,0,0,.02466.09582.96766.96766,0,0,0,.03363.09186q.01895.04486.04205.0874t.05011.08246q.027.03991.05756.077t.06457.071c.02258.02265.04633.04419.071.06452s.05042.03961.077.05761.05408.03467.0824.05005.05755.02948.08746.04212.06055.02392.09186.03363a.98759.98759,0,0,0,.09582.02466,1.00963,1.00963,0,0,0,.40308,0,.98779.98779,0,0,0,.09583-.02466c.03131-.00971.062-.021.09185-.03363s.05909-.02668.08747-.04212.05584-.0321.08239-.05005.05231-.03723.077-.05761.0484-.04187.071-.06452.04418-.04632.06457-.071.03955-.05036.05756-.077.03466-.05408.05011-.08246.02942-.05749.042-.0874a.97042.97042,0,0,0,.03363-.09186.98185.98185,0,0,0,.02466-.09582,1.00969,1.00969,0,0,0,0-.40308Zm9.30523-11.572-.71588-.31818-.71594-.31817-.71588-.31824-.71594-.31818L18.705,9.6355,17.989,9.31732l-.71588-.31817-.71588.31817-.71594.31818-.71588.31817-.71595.31818-.71588.31824-.71594.31817-.71588.31818-.71594.31818v3.81817q0,.33169.02826.65985.028.32795.08313.65064.05484.32244.13562.63812.08057.31541.18573.62232.105.3066.23346.60315.12826.29635.2788.58087.15043.28426.32178.55517.1713.27063.36237.52625.19326.25772.40472.49823.2113.24032.43964.46185.22824.22137.47247.42249.24408.201.50318.38012.2589.179.53179.33484.27274.15555.55835.28644.28546.13065.58283.23517.29718.10419.60516.18085.3078-.07637.60517-.18085.29718-.10428.58282-.23517.28547-.13065.55835-.28644.27273-.15564.5318-.33484.25892-.179.50317-.38012.24408-.20088.47248-.42249.22815-.22128.43963-.46185.21121-.24024.40473-.49823.19089-.25534.36236-.52625.17121-.27063.32178-.55517.15033-.28428.27881-.58087.12826-.29627.23346-.60315.105-.30671.18573-.62232.08057-.31539.13562-.63812.05493-.32245.08313-.65064.028-.32784.02826-.65985V11.54462ZM10.73669,19.53265c-.08715-.13482-.17034-.27227-.24585-.41491-.08691-.16443-.16589-.33332-.23913-.50507s-.14093-.34637-.20532-.52222q-.2754-.0878-.53962-.19909-.26394-.11124-.51531-.245-.25242-.13431-.491-.29-.23832-.15555-.46149-.33123-.22293-.17551-.42944-.37-.20637-.19419-.395-.40613-.18841-.21166-.358-.43976-.16929-.22787-.31836-.47094-.14886-.24281-.27637-.49951-.12717-.25655-.23169-.52564-.10428-.269-.18463-.54926-.0801-.28005-.135-.57025-.05466-.28993-.08282-.5888-.028-.29865-.0282-.6048,0-.04651.00079-.09277t.0022-.09217q.00147-.046.0036-.09167t.00507-.09113q.00284-.0455.0064-.09076c.00232-.03015.005-.06024.0077-.09021s.00579-.06.009-.0899.00665-.05969.01025-.08942.00745-.05945.01148-.08905l.01263-.08874.01386-.08838.01489-.08808.016-.08782.017-.08753.01807-.08734.019-.087.2395.23951.2395.2395.2395.2395.23951.2395.2395.2395.2395.2395.2395.23951.2395.2395.23951.2395.2395.2395.2395.23944.2395.23951.2395.2395.23944.2395.21265.21265.21265.21264V12H8.79956V10.4h1.6a.79773.79773,0,0,0,.08148-.00415q.04018-.00411.07922-.01214t.07654-.01984c.025-.00781.0495-.01685.07337-.027s.04724-.02148.06988-.03381.04468-.02576.066-.04016.04187-.02985.06164-.04614.03876-.03363.05689-.05176.03534-.03711.0517-.05689.03173-.04034.04614-.06164.02789-.04328.04022-.066a.7757.7757,0,0,0,.03381-.06989q.01521-.03588.027-.07342a.79384.79384,0,0,0,.032-.1557A.79861.79861,0,0,0,11.19958,9.6V8h1.6a1.59133,1.59133,0,0,0,.32141-.03265q.078-.01612.15308-.03962t.14679-.054q.07168-.03049.13977-.06757t.132-.08038q.0639-.0433.12323-.09235T13.92957,7.53q.05438-.05439.10345-.11377t.09235-.12323q.0432-.0639.08038-.132t.06757-.13977q.03048-.07177.054-.14685a1.56016,1.56016,0,0,0,.03961-.153A1.59037,1.59037,0,0,0,14.3996,6.4V6.072q.21972.08927.43115.194t.4137.22412q.20223.1193.39465.25281.19245.13331.37433.28009c.06915.05579.13428.116.19818.17749s.12659.12439.19086.18561l.43536-.19348.4353-.19348.71112.316.71106.316c-.011-.01685-.021-.03431-.03113-.0517s-.02026-.03479-.03149-.05139q-.2157-.31924-.46063-.616-.24463-.29636-.51648-.56818-.27146-.27154-.56818-.51648-.29635-.24462-.616-.46063-.31916-.21579-.65961-.40088-.34-.18485-.69928-.337-.3588-.15189-.73486-.26911a7.95069,7.95069,0,0,0-1.56055-.31854,8.1089,8.1089,0,0,0-1.63513,0,7.95069,7.95069,0,0,0-1.56055.31854q-.37565.11692-.73486.26911-.35889.15188-.69928.337-.34.18476-.65961.40088-.31925.2157-.616.46063-.29636.24463-.56817.51648-.27145.27146-.51648.56818-.24455.29636-.46063.616-.2157.31916-.40088.6596-.18475.34-.337.69922-.15189.35889-.26916.73493-.11693.37563-.19727.76648a7.99342,7.99342,0,0,0-.12128.79406,8.109,8.109,0,0,0,0,1.63514,7.99342,7.99342,0,0,0,.12128.79406q.08.39048.19727.76648.11691.37564.26916.73487.15189.35888.337.69928.18484.34.40088.6596.21569.31915.46063.61591.24462.29636.51648.56824.27155.27146.56817.51641.29646.24463.616.4607.31925.2157.65961.40082.34.18484.69928.337.35887.15189.73486.26911.37565.117.76648.19726c.10132.02075.2038.0379.30695.0531s.207.02838.31091.04132C10.91479,19.79968,10.82379,19.66754,10.73669,19.53265Z"/></svg>