<svg id="Layer_1" data-name="Layer 1" xmlns="http://www.w3.org/2000/svg" viewBox="0 0 24.00001 24.00001"><path d="M12,4a8.02593,8.02593,0,0,0-1.61163.16263A7.95669,7.95669,0,0,0,7.52813,5.36688,8.02921,8.02921,0,0,0,4.629,8.887a7.93723,7.93723,0,0,0-.46638,1.50138,8.06721,8.06721,0,0,0,0,3.22325,7.95716,7.95716,0,0,0,1.20425,2.86025A8.02914,8.02914,0,0,0,8.887,19.371a7.93736,7.93736,0,0,0,1.50137.46638,8.06721,8.06721,0,0,0,3.22325,0,7.957,7.957,0,0,0,2.86025-1.20425A8.0293,8.0293,0,0,0,19.371,15.113a7.93661,7.93661,0,0,0,.46637-1.50137,8.06673,8.06673,0,0,0,0-3.22325,7.95649,7.95649,0,0,0-1.20425-2.86025A8.02937,8.02937,0,0,0,15.113,4.629a7.93648,7.93648,0,0,0-1.50138-.46637A8.02576,8.02576,0,0,0,12,4Zm-.8,14.344A6.38408,6.38408,0,0,1,5.6,12q0-.093.003-.1849t.00867-.18285q.00573-.09093.01411-.181T5.645,11.272q.01087-.08925.02414-.17778t.02873-.17647q.01548-.08793.03305-.17534T5.768,10.568l.479.479.479.479.479.479.479.479.479.479.479.479.479.479L9.6,14.4v.8a1.58987,1.58987,0,0,0,.27422.893,1.62037,1.62037,0,0,0,.43281.43282,1.60206,1.60206,0,0,0,.27172.148A1.585,1.585,0,0,0,11.2,16.8v1.544Zm5.52-2.032a1.63455,1.63455,0,0,0-.0955-.23382,1.60833,1.60833,0,0,0-.287-.40279,1.57744,1.57744,0,0,0-.395-.2944,1.56751,1.56751,0,0,0-.2305-.09836,1.58478,1.58478,0,0,0-.2485-.06142A1.63422,1.63422,0,0,0,15.2,15.2h-.8V12.8a.795.795,0,0,0-.13711-.44648.80991.80991,0,0,0-.21641-.21641.80049.80049,0,0,0-.13586-.074A.79261.79261,0,0,0,13.6,12H8.8V10.4h1.6a.79482.79482,0,0,0,.44648-.13711.80694.80694,0,0,0,.29039-.35226A.79261.79261,0,0,0,11.2,9.6V8h1.6a1.59,1.59,0,0,0,.893-.27421,1.62037,1.62037,0,0,0,.43281-.43282,1.60172,1.60172,0,0,0,.148-.27172A1.58545,1.58545,0,0,0,14.4,6.4V6.072a6.41185,6.41185,0,0,1,3.70462,4.005,6.33568,6.33568,0,0,1,.21964.93788A6.41751,6.41751,0,0,1,18.4,12q0,.312-.02953.61644-.02929.30421-.08672.59956-.0572.29513-.1411.58007-.08367.28471-.19265.55793-.10875.273-.24141.53319-.13242.26-.28734.50581-.1547.24562-.33047.47582Q16.91524,16.09879,16.72,16.312ZM24,12a1.0046,1.0046,0,0,1-.02032.20154.99448.99448,0,0,1-.15047.35757,1.00282,1.00282,0,0,1-.44.36231.99242.99242,0,0,1-.18771.05827,1.01007,1.01007,0,0,1-.40307,0,.99448.99448,0,0,1-.35757-.15047,1.003,1.003,0,0,1-.36231-.44.99314.99314,0,0,1-.05827-.18771,1.01007,1.01007,0,0,1,0-.40307.99463.99463,0,0,1,.15047-.35758,1.003,1.003,0,0,1,.44-.3623.99264.99264,0,0,1,.18771-.05827,1.00958,1.00958,0,0,1,.40307,0,.99463.99463,0,0,1,.35758.15047,1.00288,1.00288,0,0,1,.3623.44.99242.99242,0,0,1,.05827.18771A1.00457,1.00457,0,0,1,24,12ZM22,6a1.0046,1.0046,0,0,1-.02032.20154.99448.99448,0,0,1-.15047.35757,1.00282,1.00282,0,0,1-.44.36231.99242.99242,0,0,1-.18771.05827,1.01007,1.01007,0,0,1-.40307,0,.99448.99448,0,0,1-.35757-.15047,1.003,1.003,0,0,1-.36231-.44.99314.99314,0,0,1-.05827-.18771,1.01007,1.01007,0,0,1,0-.40307.99463.99463,0,0,1,.15047-.35758,1.003,1.003,0,0,1,.44-.3623.99264.99264,0,0,1,.18771-.05827,1.00958,1.00958,0,0,1,.40307,0,.99463.99463,0,0,1,.35758.15047,1.00288,1.00288,0,0,1,.3623.44.99242.99242,0,0,1,.05827.18771A1.00457,1.00457,0,0,1,22,6ZM18,2a1.0046,1.0046,0,0,1-.02032.20154.99448.99448,0,0,1-.15047.35757,1.00282,1.00282,0,0,1-.44.36231.99242.99242,0,0,1-.18771.05827,1.01007,1.01007,0,0,1-.40307,0,.99448.99448,0,0,1-.35757-.15047,1.003,1.003,0,0,1-.36231-.44.99314.99314,0,0,1-.05827-.18771,1.01007,1.01007,0,0,1,0-.40307.99463.99463,0,0,1,.15047-.35758,1.003,1.003,0,0,1,.44-.3623.99264.99264,0,0,1,.18771-.05827,1.00958,1.00958,0,0,1,.40307,0,.99463.99463,0,0,1,.35758.15047,1.00288,1.00288,0,0,1,.3623.44.99242.99242,0,0,1,.05827.18771A1.00457,1.00457,0,0,1,18,2ZM13,1a1.0046,1.0046,0,0,1-.02032.20154.99448.99448,0,0,1-.15047.35757,1.00282,1.00282,0,0,1-.44.36231.99242.99242,0,0,1-.18771.05827,1.01007,1.01007,0,0,1-.40307,0,.99448.99448,0,0,1-.35757-.15047,1.003,1.003,0,0,1-.36231-.44.99314.99314,0,0,1-.05827-.18771,1.01007,1.01007,0,0,1,0-.40307.99463.99463,0,0,1,.15047-.35758,1.003,1.003,0,0,1,.44-.3623.99264.99264,0,0,1,.18771-.05827,1.00958,1.00958,0,0,1,.40307,0,.99463.99463,0,0,1,.35758.15047,1.00288,1.00288,0,0,1,.3623.44.99242.99242,0,0,1,.05827.18771A1.00457,1.00457,0,0,1,13,1ZM8,2a1.0046,1.0046,0,0,1-.02032.20154.99448.99448,0,0,1-.15047.35757,1.00282,1.00282,0,0,1-.44.36231.99242.99242,0,0,1-.18771.05827,1.01007,1.01007,0,0,1-.40307,0,.99448.99448,0,0,1-.35757-.15047,1.003,1.003,0,0,1-.36231-.44.99314.99314,0,0,1-.05827-.18771,1.01007,1.01007,0,0,1,0-.40307.99463.99463,0,0,1,.15047-.35758,1.003,1.003,0,0,1,.44-.3623.99264.99264,0,0,1,.18771-.05827,1.00958,1.00958,0,0,1,.40307,0,.99463.99463,0,0,1,.35758.15047,1.00288,1.00288,0,0,1,.3623.44.99242.99242,0,0,1,.05827.18771A1.00457,1.00457,0,0,1,8,2ZM4,6a1.0046,1.0046,0,0,1-.02032.20154.99448.99448,0,0,1-.15047.35757,1.00282,1.00282,0,0,1-.44.36231.99242.99242,0,0,1-.18771.05827,1.01007,1.01007,0,0,1-.40307,0,.99448.99448,0,0,1-.35757-.15047,1.003,1.003,0,0,1-.36231-.44.99314.99314,0,0,1-.05827-.18771,1.01007,1.01007,0,0,1,0-.40307.99463.99463,0,0,1,.15047-.35758,1.003,1.003,0,0,1,.44-.3623.99264.99264,0,0,1,.18771-.05827,1.00958,1.00958,0,0,1,.40307,0,.99463.99463,0,0,1,.35758.15047,1.00288,1.00288,0,0,1,.3623.44.99242.99242,0,0,1,.05827.18771A1.00457,1.00457,0,0,1,4,6ZM2,12a1.0046,1.0046,0,0,1-.02032.20154.99448.99448,0,0,1-.15047.35757,1.00282,1.00282,0,0,1-.44.36231.99242.99242,0,0,1-.18771.05827,1.01007,1.01007,0,0,1-.40307,0,.99448.99448,0,0,1-.35757-.15047,1.003,1.003,0,0,1-.36231-.44.99314.99314,0,0,1-.05827-.18771,1.01007,1.01007,0,0,1,0-.40307.99463.99463,0,0,1,.15047-.35758,1.003,1.003,0,0,1,.44-.3623.99264.99264,0,0,1,.18771-.05827,1.00958,1.00958,0,0,1,.40307,0,.99463.99463,0,0,1,.35758.15047,1.00288,1.00288,0,0,1,.3623.44.99242.99242,0,0,1,.05827.18771A1.00457,1.00457,0,0,1,2,12Zm2,6a1.0046,1.0046,0,0,1-.02032.20154.99448.99448,0,0,1-.15047.35757,1.00282,1.00282,0,0,1-.44.36231.99242.99242,0,0,1-.18771.05827,1.01007,1.01007,0,0,1-.40307,0,.99448.99448,0,0,1-.35757-.15047,1.003,1.003,0,0,1-.36231-.44.99314.99314,0,0,1-.05827-.18771,1.01007,1.01007,0,0,1,0-.40307.99463.99463,0,0,1,.15047-.35758,1.003,1.003,0,0,1,.44-.3623.99264.99264,0,0,1,.18771-.05827,1.00958,1.00958,0,0,1,.40307,0,.99463.99463,0,0,1,.35758.15047,1.00288,1.00288,0,0,1,.3623.44.99242.99242,0,0,1,.05827.18771A1.00457,1.00457,0,0,1,4,18Zm4,4a1.0046,1.0046,0,0,1-.02032.20154.99448.99448,0,0,1-.15047.35757,1.00282,1.00282,0,0,1-.44.36231.99242.99242,0,0,1-.18771.05827,1.01007,1.01007,0,0,1-.40307,0,.99448.99448,0,0,1-.35757-.15047,1.003,1.003,0,0,1-.36231-.44.99314.99314,0,0,1-.05827-.18771,1.01007,1.01007,0,0,1,0-.40307.99463.99463,0,0,1,.15047-.35758,1.003,1.003,0,0,1,.44-.3623.99264.99264,0,0,1,.18771-.05827,1.00958,1.00958,0,0,1,.40307,0,.99463.99463,0,0,1,.35758.15047,1.00288,1.00288,0,0,1,.3623.44.99242.99242,0,0,1,.05827.18771A1.00457,1.00457,0,0,1,8,22Zm5,1a1.0046,1.0046,0,0,1-.02032.20154.99448.99448,0,0,1-.15047.35757,1.00282,1.00282,0,0,1-.44.36231.99242.99242,0,0,1-.18771.05827,1.01007,1.01007,0,0,1-.40307,0,.99448.99448,0,0,1-.35757-.15047,1.003,1.003,0,0,1-.36231-.44.99314.99314,0,0,1-.05827-.18771,1.01007,1.01007,0,0,1,0-.40307.99463.99463,0,0,1,.15047-.35758,1.003,1.003,0,0,1,.44-.3623.99264.99264,0,0,1,.18771-.05827,1.00958,1.00958,0,0,1,.40307,0,.99463.99463,0,0,1,.35758.15047,1.00288,1.00288,0,0,1,.3623.44.99242.99242,0,0,1,.05827.18771A1.00457,1.00457,0,0,1,13,23Zm9-5a1.0046,1.0046,0,0,1-.02032.20154.99448.99448,0,0,1-.15047.35757,1.00282,1.00282,0,0,1-.44.36231.99242.99242,0,0,1-.18771.05827,1.01007,1.01007,0,0,1-.40307,0,.99448.99448,0,0,1-.35757-.15047,1.003,1.003,0,0,1-.36231-.44.99314.99314,0,0,1-.05827-.18771,1.01007,1.01007,0,0,1,0-.40307.99463.99463,0,0,1,.15047-.35758,1.003,1.003,0,0,1,.44-.3623.99264.99264,0,0,1,.18771-.05827,1.00958,1.00958,0,0,1,.40307,0,.99463.99463,0,0,1,.35758.15047,1.00288,1.00288,0,0,1,.3623.44.99242.99242,0,0,1,.05827.18771A1.00457,1.00457,0,0,1,22,18Zm-4,4a1.0046,1.0046,0,0,1-.02032.20154.99448.99448,0,0,1-.15047.35757,1.00282,1.00282,0,0,1-.44.36231.99242.99242,0,0,1-.18771.05827,1.01007,1.01007,0,0,1-.40307,0,.99448.99448,0,0,1-.35757-.15047,1.003,1.003,0,0,1-.36231-.44.99314.99314,0,0,1-.05827-.18771,1.01007,1.01007,0,0,1,0-.40307.99463.99463,0,0,1,.15047-.35758,1.003,1.003,0,0,1,.44-.3623.99264.99264,0,0,1,.18771-.05827,1.00958,1.00958,0,0,1,.40307,0,.99463.99463,0,0,1,.35758.15047,1.00288,1.00288,0,0,1,.3623.44.99242.99242,0,0,1,.05827.18771A1.00457,1.00457,0,0,1,18,22Z"/></svg>