<svg id="Layer_1" data-name="Layer 1" xmlns="http://www.w3.org/2000/svg" viewBox="0 0 24 24"><title>network-1_2</title><path d="M20,5a2,2,0,1,1-3.41-1.41A2,2,0,0,1,20,5Z"/><path d="M14,21a2,2,0,1,1-.59-1.41A2,2,0,0,1,14,21Z"/><path d="M9,21a3.17,3.17,0,0,1,.1-.76,3.48,3.48,0,0,1,.29-.69A7.95,7.95,0,0,1,6,17.25a3.12,3.12,0,0,1-.89.54A2.91,2.91,0,0,1,4,18a10.43,10.43,0,0,0,2.23,2.17,10.16,10.16,0,0,0,2.82,1.39,2.36,2.36,0,0,1,0-.28A2.46,2.46,0,0,1,9,21Z"/><path d="M20.47,6.7a2.9,2.9,0,0,1-.72.72,3,3,0,0,1-.93.45,8,8,0,0,1,.87,2A7.81,7.81,0,0,1,20,12a7.94,7.94,0,0,1-2.1,5.39,2,2,0,0,0-.71-1A2,2,0,0,0,16,16H15V13a1,1,0,0,0-.29-.71A1,1,0,0,0,14,12H8V10h2a1,1,0,0,0,.71-.29A1,1,0,0,0,11,9V7h2a2,2,0,0,0,1.41-.59A2,2,0,0,0,15,5V4.59h0a3,3,0,0,1,.31-1,3,3,0,0,1,.6-.8,9.37,9.37,0,0,0-1.9-.61A10,10,0,0,0,2,12c0,.13,0,.25,0,.38l0,.37a3,3,0,0,1,.89-.55A2.91,2.91,0,0,1,4,12a6.84,6.84,0,0,1,.06-.91,8.5,8.5,0,0,1,.15-.88l2.4,2.39L9,15v1a2,2,0,0,0,2,2v.18a3.92,3.92,0,0,1,.49-.13A2.76,2.76,0,0,1,12,18a3,3,0,0,1,3,3,2.46,2.46,0,0,1,0,.28,2.36,2.36,0,0,1,0,.28A10,10,0,0,0,21.6,9.2,10.46,10.46,0,0,0,20.47,6.7Z"/><path d="M6,15a2,2,0,0,1-2,2,2,2,0,1,1,1.41-3.41A2,2,0,0,1,6,15Z"/></svg>