<svg id="Layer_1" data-name="Layer 1" xmlns="http://www.w3.org/2000/svg" viewBox="0 0 24 24"><title>network-2</title><path d="M19,4a2,2,0,1,1-3.41-1.41A2,2,0,0,1,19,4Z"/><path d="M18,20a2,2,0,1,1-.59-1.41A2,2,0,0,1,18,20Z"/><path d="M19.59,5.5a3.5,3.5,0,0,1-.65.78,3.24,3.24,0,0,1-.88.52c.16.18.31.38.46.58s.28.41.4.62H16c-.06-.24-.13-.48-.21-.71l-.24-.69a3.08,3.08,0,0,1-1.1-1.08A2.89,2.89,0,0,1,14,4a3.24,3.24,0,0,1,.13-.89,3.13,3.13,0,0,1,.38-.78,10.44,10.44,0,0,0-1.24-.24A9,9,0,0,0,12,2,9.87,9.87,0,0,0,7.46,3.09,10.11,10.11,0,0,0,4,6a2.91,2.91,0,0,1,1.07.21A2.82,2.82,0,0,1,6,6.76,7.88,7.88,0,0,1,7.53,5.38a8.07,8.07,0,0,1,1.88-.94,14.34,14.34,0,0,0-.8,1.73A18.55,18.55,0,0,0,8,8H6.82A3.92,3.92,0,0,1,7,8.49a2.63,2.63,0,0,1,0,1,3.92,3.92,0,0,1-.13.49h.82c0,.33-.07.66-.1,1s0,.67,0,1,0,.67,0,1,.06.66.1,1H4.26a8.08,8.08,0,0,1-.19-1A8.45,8.45,0,0,1,4,12a2.91,2.91,0,0,1-1.07-.2A3,3,0,0,1,2,11.25l0,.37c0,.13,0,.25,0,.38A10,10,0,0,0,12,22a7.87,7.87,0,0,0,.84,0c.28,0,.55-.06.83-.11a2.87,2.87,0,0,1-.48-.85A2.77,2.77,0,0,1,13,20a3,3,0,0,1,.76-2,3,3,0,0,1,1.88-1c.06-.18.12-.35.17-.52s.11-.34.16-.52h3a9,9,0,0,1-.55.82,8.93,8.93,0,0,1-.64.74,2.78,2.78,0,0,1,.72.73,2.89,2.89,0,0,1,.44.94A10,10,0,0,0,22,12a9.89,9.89,0,0,0-2.41-6.5ZM5.08,16H8a17.74,17.74,0,0,0,.58,1.83,14.34,14.34,0,0,0,.8,1.73,8.1,8.1,0,0,1-2.49-1.39A8,8,0,0,1,5.08,16ZM12,4a13.75,13.75,0,0,1,1.11,1.89A16.71,16.71,0,0,1,13.91,8H10.09a15.31,15.31,0,0,1,.81-2.07A13.69,13.69,0,0,1,12,4ZM12,20a13.69,13.69,0,0,1-1.1-1.89A14.34,14.34,0,0,1,10.09,16h3.82a15.57,15.57,0,0,1-.8,2.07A13.75,13.75,0,0,1,12,20Zm2.34-6H9.66c-.05-.33-.08-.66-.11-1s-.05-.67-.05-1,0-.68.05-1,.06-.67.11-1h4.68c.05.32.09.65.11,1s.05.67.05,1,0,.67-.05,1S14.39,13.67,14.34,14Zm2,0c0-.33.08-.66.1-1s0-.67,0-1,0-.67,0-1-.06-.66-.1-1h3.38a8.08,8.08,0,0,1,.19,1A7,7,0,0,1,20,12a6.81,6.81,0,0,1-.07,1,8.08,8.08,0,0,1-.19,1H16.36Z"/><path d="M6,9a2,2,0,0,1-2,2A2,2,0,1,1,5.41,7.59,2,2,0,0,1,6,9Z"/></svg>