<svg id="Layer_1" data-name="Layer 1" xmlns="http://www.w3.org/2000/svg" viewBox="0 0 24 24"><defs><style>.cls-1{fill:#fff;}</style></defs><title>network-3</title><path d="M18.92,8a7.93,7.93,0,0,0-1.83-2.16,8.09,8.09,0,0,0-2.5-1.4,14.34,14.34,0,0,1,.8,1.73A16.22,16.22,0,0,1,16,8h3Z"/><path d="M12,4a12.75,12.75,0,0,0-1.1,1.89A15.31,15.31,0,0,0,10.09,8h3.82a15.31,15.31,0,0,0-.81-2.07A12.75,12.75,0,0,0,12,4Z"/><path d="M7.5,12c0-.34,0-.68,0-1s.06-.66.1-1H4.26a8.08,8.08,0,0,0-.19,1,7.47,7.47,0,0,0,0,2,8.08,8.08,0,0,0,.19,1H7.64c0-.33-.07-.66-.1-1S7.5,12.34,7.5,12Z"/><path d="M14.59,19.56A8,8,0,0,0,18.92,16H16a16.22,16.22,0,0,1-.58,1.83A14.34,14.34,0,0,1,14.59,19.56Z"/><path d="M9.66,10c-.05.32-.09.65-.11,1s-.05.67-.05,1,0,.67.05,1,.06.66.11,1h4.68c.05-.33.09-.66.11-1s.05-.67.05-1,0-.68-.05-1-.06-.67-.11-1H9.66Z"/><path d="M8.7,4.72a2.28,2.28,0,0,1,.15.36,2.22,2.22,0,0,1,.09.37l.23-.51a4.59,4.59,0,0,1,.24-.5l-.36.13Z"/><path d="M8,6A2,2,0,0,1,4.59,7.41,2,2,0,1,1,7.41,4.59,2,2,0,0,1,8,6Z"/><path d="M20,12a2,2,0,1,1-.59-1.41A2,2,0,0,1,20,12Z"/><path d="M8,16H5.08a8,8,0,0,0,3.1,3,2.94,2.94,0,0,1,.23-.51,3.19,3.19,0,0,1,.31-.44c-.13-.34-.26-.68-.38-1S8.12,16.35,8,16Z"/><path d="M13.16,17.93c.15-.31.29-.63.41-.95s.24-.65.34-1H10.09c.05.18.11.36.17.53s.13.35.19.53a1.26,1.26,0,0,1,.27,0L11,17a3,3,0,0,1,1.2.25A3,3,0,0,1,13.16,17.93Z"/><path d="M8.3,21.29a10.08,10.08,0,0,1-4.53-3.62A9.88,9.88,0,0,1,2,12a10.08,10.08,0,0,1,.32-2.53,10.45,10.45,0,0,1,.92-2.29,2.7,2.7,0,0,1-.18-.57A3.08,3.08,0,0,1,3,6c0-.06,0-.12,0-.18l0-.18A11,11,0,0,0,10,22.8a3,3,0,0,1-1-.59A3.1,3.1,0,0,1,8.3,21.29Z"/><path d="M12,1A10.9,10.9,0,0,0,5.64,3l.18,0H6a3.08,3.08,0,0,1,.61.06,2.81,2.81,0,0,1,.56.18,10.86,10.86,0,0,1,2.29-.92A10.08,10.08,0,0,1,12,2,10,10,0,0,1,13.3,21.9a2.75,2.75,0,0,1-.87.72,3.09,3.09,0,0,1-1.1.35l.34,0H12A11,11,0,1,0,12,1Z"/><path class="cls-1" d="M11,23h.17l.16,0-.69-.06c-.23,0-.46-.06-.68-.11a4.13,4.13,0,0,0,.5.15A3.29,3.29,0,0,0,11,23Z"/><path d="M13,20a2,2,0,1,1-.59-1.41A2,2,0,0,1,13,20Z"/></svg>