<svg id="Layer_1" data-name="Layer 1" xmlns="http://www.w3.org/2000/svg" viewBox="0 0 24 24"><path d="M20,6.1V5.9s0-.07,0-.1,0-.07,0-.1l0-.09a.36.36,0,0,1,0-.09l.05-.08.06-.08.06-.07.07-.06.08-.06.08,0,.09,0,.09,0,.1,0h.4l.1,0,.09,0,.09,0,.08,0,.08.06.07.06.06.07.06.08.05.08,0,.09,0,.09,0,.1a.31.31,0,0,1,0,.1.5.5,0,0,1,0,.2.31.31,0,0,1,0,.1l0,.1,0,.09,0,.09-.05.08-.06.08-.06.07-.07.06-.08.06-.08,0-.09,0L21.3,7l-.1,0h-.4l-.1,0-.09,0-.09,0-.08,0-.08-.06-.07-.06-.06-.07-.06-.08-.05-.08a.36.36,0,0,1,0-.09l0-.09s0-.07,0-.1S20,6.14,20,6.1ZM16,2.2s0,.07,0,.1l0,.09a.36.36,0,0,0,0,.09l.05.08.06.08.06.07.07.06.08.06.08,0,.09,0,.09,0,.1,0h.4l.1,0,.09,0,.09,0,.08,0,.08-.06.07-.06.06-.07.06-.08.05-.08,0-.09,0-.09,0-.1a.31.31,0,0,0,0-.1A.34.34,0,0,0,18,2a.34.34,0,0,0,0-.1.31.31,0,0,0,0-.1l0-.1,0-.09,0-.09-.05-.08-.06-.08-.06-.07-.07-.06-.08-.06-.08,0-.09,0L17.3,1l-.1,0h-.4l-.1,0-.09,0-.09,0-.08,0-.08.06-.07.06-.06.07-.06.08-.05.08a.36.36,0,0,0,0,.09l0,.09s0,.07,0,.1,0,.06,0,.1v.2S16,2.17,16,2.2Zm-5-1s0,.07,0,.1l0,.09a.36.36,0,0,0,0,.09l.05.08.06.08.06.07.07.06.08.06.08,0,.09,0,.09,0,.1,0h.4l.1,0,.09,0,.09,0,.08,0,.08-.06.07-.06.06-.07.06-.08.05-.08,0-.09,0-.09,0-.1a.31.31,0,0,0,0-.1A.34.34,0,0,0,13,1a.34.34,0,0,0,0-.1.31.31,0,0,0,0-.1l0-.1,0-.09,0-.09L12.83.44,12.77.36,12.71.29,12.64.23,12.56.17,12.48.12l-.09,0L12.3,0l-.1,0h-.4l-.1,0-.09,0-.09,0-.08.05-.08.06-.07.06-.06.07-.06.08-.05.08a.36.36,0,0,0,0,.09L11,.7s0,.07,0,.1,0,.06,0,.1v.2S11,1.17,11,1.2Zm-5,1s0,.07,0,.1l0,.09a.36.36,0,0,0,0,.09l0,.08.06.08.06.07.07.06.08.06.08,0,.09,0L6.7,3l.1,0h.4l.1,0,.09,0,.09,0,.08,0,.08-.06.07-.06.06-.07.06-.08,0-.08,0-.09L8,2.3l0-.1a.31.31,0,0,0,0-.1A.34.34,0,0,0,8,2a.34.34,0,0,0,0-.1.31.31,0,0,0,0-.1l0-.1,0-.09,0-.09,0-.08-.06-.08-.06-.07-.07-.06-.08-.06-.08,0-.09,0L7.3,1,7.2,1H6.8L6.7,1l-.09,0-.09,0-.08,0-.08.06-.07.06-.06.07-.06.08,0,.08a.36.36,0,0,0,0,.09L6,1.7s0,.07,0,.1,0,.06,0,.1v.2S6,2.17,6,2.2Zm-4,4s0,.07,0,.1l0,.09a.36.36,0,0,0,0,.09l0,.08.06.08.06.07.07.06.08.06.08,0,.09,0L2.7,7l.1,0h.4l.1,0,.09,0,.09,0,.08,0,.08-.06.07-.06.06-.07.06-.08,0-.08,0-.09L4,6.3l0-.1a.31.31,0,0,0,0-.1.5.5,0,0,0,0-.2.31.31,0,0,0,0-.1l0-.1,0-.09,0-.09,0-.08-.06-.08-.06-.07-.07-.06-.08-.06-.08,0-.09,0L3.3,5,3.2,5H2.8L2.7,5l-.09,0-.09,0-.08,0-.08.06-.07.06-.06.07-.06.08,0,.08a.36.36,0,0,0,0,.09L2,5.7s0,.07,0,.1,0,.06,0,.1v.2S2,6.17,2,6.2Zm0,5.7a.31.31,0,0,0,0-.1l0-.1,0-.09,0-.09,0-.08-.06-.08-.06-.07-.07-.06-.08-.06-.08-.05-.09,0L1.3,11l-.1,0H.8L.7,11l-.09,0-.09,0-.08.05-.08.06-.07.06-.06.07-.06.08-.05.08a.36.36,0,0,0,0,.09l0,.09s0,.07,0,.1,0,.06,0,.1v.2s0,.07,0,.1,0,.07,0,.1l0,.09a.36.36,0,0,0,0,.09l.05.08.06.08.06.07.07.06.08.06.08.05.09,0L.7,13l.1,0h.4l.1,0,.09,0,.09,0,.08-.05.08-.06.07-.06.06-.07.06-.08,0-.08,0-.09,0-.09,0-.1a.31.31,0,0,0,0-.1.5.5,0,0,0,0-.2Zm2,5.9,0-.1,0-.09,0-.09,0-.08-.06-.08-.06-.07-.07-.06-.08-.06-.08-.05-.09,0L3.3,17l-.1,0H2.8l-.1,0-.09,0-.09,0-.08.05-.08.06-.07.06-.06.07-.06.08,0,.08a.36.36,0,0,0,0,.09l0,.09s0,.07,0,.1,0,.06,0,.1v.2s0,.07,0,.1,0,.07,0,.1l0,.09a.36.36,0,0,0,0,.09l0,.08.06.08.06.07.07.06.08.06.08.05.09,0,.09,0,.1,0h.4l.1,0,.09,0,.09,0,.08-.05.08-.06.07-.06.06-.07.06-.08,0-.08,0-.09,0-.09,0-.1a.31.31,0,0,0,0-.1.51.51,0,0,0,0-.2A.31.31,0,0,0,4,17.8Zm4,4,0-.1,0-.09,0-.09,0-.08-.06-.08-.06-.07-.07-.06-.08-.06-.08-.05-.09,0L7.3,21l-.1,0H6.8l-.1,0-.09,0-.09,0-.08.05-.08.06-.07.06-.06.07-.06.08,0,.08a.36.36,0,0,0,0,.09l0,.09s0,.07,0,.1,0,.06,0,.1v.2s0,.07,0,.1,0,.07,0,.1l0,.09a.36.36,0,0,0,0,.09l0,.08.06.08.06.07.07.06.08.06.08.05.09,0,.09,0,.1,0h.4l.1,0,.09,0,.09,0,.08-.05.08-.06.07-.06.06-.07.06-.08,0-.08,0-.09,0-.09,0-.1a.31.31,0,0,0,0-.1.51.51,0,0,0,0-.2A.31.31,0,0,0,8,21.8Zm5,1,0-.1,0-.09,0-.09-.05-.08-.06-.08-.06-.07-.07-.06-.08-.06-.08-.05-.09,0-.09,0-.1,0h-.4l-.1,0-.09,0-.09,0-.08.05-.08.06-.07.06-.06.07-.06.08-.05.08a.36.36,0,0,0,0,.09l0,.09s0,.07,0,.1,0,.06,0,.1v.2s0,.07,0,.1,0,.07,0,.1l0,.09a.36.36,0,0,0,0,.09l.05.08.06.08.06.07.07.06.08.06.08.05.09,0,.09,0,.1,0h.4l.1,0,.09,0,.09,0,.08-.05.08-.06.07-.06.06-.07.06-.08.05-.08,0-.09,0-.09,0-.1a.31.31,0,0,0,0-.1.51.51,0,0,0,0-.2A.31.31,0,0,0,13,22.8Zm9.3-11.57-.71-.32-.72-.32-.71-.32L19.42,10l-.72-.31L18,9.32,17.27,9l-.71.32-.72.32-.71.31-.72.32-.72.32-.71.32-.72.32-.71.31v3.82c0,.22,0,.44,0,.66s0,.44.09.65.08.43.13.64.12.42.19.62.15.41.23.61.18.39.28.58.21.37.32.55l.36.53c.13.17.27.34.41.5s.29.31.44.46a6.14,6.14,0,0,0,.47.42A6,6,0,0,0,15,22l.54.34a4.87,4.87,0,0,0,.56.28,5.89,5.89,0,0,0,.58.24q.3.11.6.18a6.13,6.13,0,0,0,.61-.18,5.89,5.89,0,0,0,.58-.24A5.85,5.85,0,0,0,19,22.3c.18-.11.36-.22.53-.34a6,6,0,0,0,.5-.38,6.27,6.27,0,0,0,.48-.42c.15-.15.3-.3.44-.46s.27-.33.4-.5a6.18,6.18,0,0,0,.36-.53,6.16,6.16,0,0,0,.33-.55c.1-.19.19-.39.27-.58a6.44,6.44,0,0,0,.24-.61,6.32,6.32,0,0,0,.18-.62c.06-.21.1-.42.14-.64S23,16.24,23,16s0-.44,0-.66V11.54Zm-11.54,8.3c-.09-.13-.17-.27-.25-.41s-.17-.34-.24-.51-.14-.34-.2-.52a4.3,4.3,0,0,1-.54-.2A4.9,4.9,0,0,1,9,17.65c-.17-.09-.33-.19-.49-.29L8,17l-.43-.37c-.14-.13-.27-.27-.4-.41S7,16,6.86,15.81a4.87,4.87,0,0,1-.32-.47c-.1-.16-.19-.33-.28-.5s-.16-.35-.23-.53a5.05,5.05,0,0,1-.18-.55,4.75,4.75,0,0,1-.14-.57,5.59,5.59,0,0,1-.08-.59,5.88,5.88,0,0,1,0-.6v-.18a.31.31,0,0,1,0-.1v-.09s0-.06,0-.09a.28.28,0,0,1,0-.09v-.09a.28.28,0,0,0,0-.09s0-.06,0-.09V11l0-.09v-.09l0-.09,0-.08,0-.09.24.24.24.24.24.24.24.24.24.24L7.2,12l.24.23.24.24.24.24.24.24.24.24.24.24.24.24.24.24.21.21.22.22V12H8.8V10.4h1.68l.08,0,.08,0,.07,0,.07,0,.07,0,.06,0,.05-.06.06-.05,0-.06a4152175869836.47,4152175869836.47,0,0,1,.08-.14.19.19,0,0,0,0-.07.24.24,0,0,0,0-.08s0,0,0-.08V8H13l.16,0,.15,0,.15-.06.14-.06.13-.08.13-.1.11-.1.1-.11a.64.64,0,0,0,.1-.13l.08-.13L14.27,7l.06-.15s0-.1,0-.15a.78.78,0,0,0,0-.16.86.86,0,0,0,0-.16V6.07l.43.2c.14.07.28.14.41.22l.4.25L16,7l.2.18a1.7,1.7,0,0,1,.19.19l.44-.2L17.27,7l.71.32.72.31,0,0,0,0a6.62,6.62,0,0,0-.46-.62,6.91,6.91,0,0,0-.51-.57q-.29-.27-.57-.51a6.62,6.62,0,0,0-.62-.46,5.52,5.52,0,0,0-.66-.4,5.66,5.66,0,0,0-.7-.34c-.24-.1-.48-.19-.73-.27s-.51-.14-.77-.2-.52-.09-.79-.12a8.42,8.42,0,0,0-1.64,0c-.27,0-.53.07-.79.12s-.52.12-.77.2-.49.17-.73.27a5.66,5.66,0,0,0-.7.34,5.52,5.52,0,0,0-.66.4,5.52,5.52,0,0,0-.62.46A6.89,6.89,0,0,0,5.83,6.91a6.62,6.62,0,0,0-.46.62,5.52,5.52,0,0,0-.4.66,5.66,5.66,0,0,0-.34.7c-.1.24-.19.48-.27.73s-.14.51-.2.77-.09.52-.12.79a8.42,8.42,0,0,0,0,1.64c0,.27.07.53.12.79s.12.52.2.77.17.49.27.73a5.66,5.66,0,0,0,.34.7,5.52,5.52,0,0,0,.4.66,6.62,6.62,0,0,0,.46.62c.16.2.33.38.51.57a6.91,6.91,0,0,0,.57.51,5.52,5.52,0,0,0,.62.46,5.52,5.52,0,0,0,.66.4,5.66,5.66,0,0,0,.7.34c.24.1.48.19.73.27s.51.14.77.2l.3.05.32,0A3.51,3.51,0,0,1,10.74,19.53Z"/></svg>