<svg id="Layer_1" data-name="Layer 1" xmlns="http://www.w3.org/2000/svg" viewBox="0 0 24 24"><title>network-4</title><path d="M12,6a6,6,0,1,0,4.24,1.76A5.94,5.94,0,0,0,12,6Zm-.6,10.76a4.87,4.87,0,0,1-3-1.57A4.82,4.82,0,0,1,7.2,12a4.93,4.93,0,0,1,0-.55c0-.17.06-.35.1-.52l1.43,1.43L10.2,13.8v.6a1.24,1.24,0,0,0,.35.85,1.19,1.19,0,0,0,.85.35v1.16Zm4.14-1.53a1.24,1.24,0,0,0-.43-.6,1.2,1.2,0,0,0-.71-.23h-.6V12.6a.6.6,0,0,0-.18-.42A.56.56,0,0,0,13.2,12H9.6V10.8h1.2a.62.62,0,0,0,.6-.6V9h1.2a1.2,1.2,0,0,0,1.2-1.2V7.55A4.86,4.86,0,0,1,16,9.29a4.79,4.79,0,0,1,.5,4.48A4.63,4.63,0,0,1,15.54,15.23Z"/><path d="M12,0a2,2,0,0,0-1.41.59A2,2,0,0,0,10,2a2,2,0,0,0,.59,1.41,2,2,0,0,0,2.82,0A2,2,0,0,0,14,2,2,2,0,0,0,13.41.59,2,2,0,0,0,12,0Zm0,3a1,1,0,1,1,.71-.29A1,1,0,0,1,12,3Z"/><path d="M19,3a2,2,0,0,0-2,2,2,2,0,1,0,3.41-1.41A2,2,0,0,0,19,3Zm0,3a1,1,0,1,1,.71-.29A1,1,0,0,1,19,6Z"/><path d="M22,10a2,2,0,1,0,1.41.59A2,2,0,0,0,22,10Zm0,3a1,1,0,1,1,.71-.29A1,1,0,0,1,22,13Z"/><path d="M14,22a2,2,0,1,0-.59,1.41A2,2,0,0,0,14,22Zm-3,0a1,1,0,1,1,.29.71A1,1,0,0,1,11,22Z"/><path d="M6,4A2,2,0,0,0,4,2,2,2,0,0,0,2,4,2,2,0,0,0,4,6,2,2,0,0,0,6,4ZM3,4a1,1,0,1,1,.29.71A1,1,0,0,1,3,4Z"/><path d="M22,20a2,2,0,1,0-.59,1.41A2,2,0,0,0,22,20Zm-3,0a1,1,0,1,1,.29.71A1,1,0,0,1,19,20Z"/><path d="M6,20a2,2,0,0,0-2-2,2,2,0,1,0,1.41,3.41A2,2,0,0,0,6,20ZM3,20a1,1,0,1,1,.29.71A1,1,0,0,1,3,20Z"/><path d="M4,12a2,2,0,0,0-.59-1.41A2,2,0,0,0,2,10a2,2,0,0,0-1.41.59,2,2,0,0,0,0,2.82A2,2,0,0,0,2,14a2,2,0,0,0,1.41-.59A2,2,0,0,0,4,12ZM1,12a1,1,0,1,1,.29.71A1,1,0,0,1,1,12Z"/><polygon points="13 7 12 7 11 7 11 5 11 3 12 3 13 3 13 5 13 7"/><polygon points="13 21 12 21 11 21 11 19 11 17 12 17 13 17 13 19 13 21"/><polygon points="17 13 17 12 17 11 19 11 21 11 21 12 21 13 19 13 17 13"/><polygon points="3 13 3 12 3 11 5 11 7 11 7 12 7 13 5 13 3 13"/><polygon points="16.29 9.12 15.59 8.41 14.88 7.71 16.09 6.5 17.29 5.29 18 6 18.71 6.71 17.5 7.91 16.29 9.12"/><polygon points="5.71 19.71 5 19 4.29 18.29 5.79 16.79 7.29 15.29 8 16 8.71 16.71 7.21 18.21 5.71 19.71"/><polygon points="7.71 9.12 8.41 8.41 9.12 7.71 7.41 6 5.71 4.29 5 5 4.29 5.71 6 7.41 7.71 9.12"/><polygon points="18.29 19.71 19 19 19.71 18.29 18.21 16.79 16.71 15.29 16 16 15.29 16.71 16.79 18.21 18.29 19.71"/></svg>