<svg id="Layer_2" data-name="Layer 2" xmlns="http://www.w3.org/2000/svg" viewBox="0 0 24 24"><title>persistent_volume</title><path d="M10,7a1.75,1.75,0,0,0-.4,0,2.4,2.4,0,0,0-.38.12,2.21,2.21,0,0,0-.34.18,2.59,2.59,0,0,0-.54.54,2.21,2.21,0,0,0-.18.34,2.4,2.4,0,0,0-.12.38,2,2,0,0,0,0,.8,2.4,2.4,0,0,0,.12.38,2.21,2.21,0,0,0,.18.34,2.59,2.59,0,0,0,.54.54,2.21,2.21,0,0,0,.34.18,2.4,2.4,0,0,0,.38.12,2,2,0,0,0,.8,0,2.4,2.4,0,0,0,.38-.12,2.21,2.21,0,0,0,.34-.18,2.59,2.59,0,0,0,.54-.54,2.21,2.21,0,0,0,.18-.34A2.4,2.4,0,0,0,12,9.4a2,2,0,0,0,0-.8,2.4,2.4,0,0,0-.12-.38,2.21,2.21,0,0,0-.18-.34,2.59,2.59,0,0,0-.54-.54,2.21,2.21,0,0,0-.34-.18A2.4,2.4,0,0,0,10.41,7,1.75,1.75,0,0,0,10,7Z"/><path d="M11.7,14.37a4.72,4.72,0,0,1,1.88.39,4.85,4.85,0,0,1,1.51,1.06A5,5,0,0,1,16,15.1a4.94,4.94,0,0,1,1-.49V4a1.81,1.81,0,0,0,0-.4,2.29,2.29,0,0,0-.12-.37,1.83,1.83,0,0,0-.18-.34,1.74,1.74,0,0,0-.54-.54,1.83,1.83,0,0,0-.34-.18A2.29,2.29,0,0,0,15.41,2,1.81,1.81,0,0,0,15,2H5a1.81,1.81,0,0,0-.4,0,2.29,2.29,0,0,0-.37.12,1.83,1.83,0,0,0-.34.18,1.74,1.74,0,0,0-.54.54,1.83,1.83,0,0,0-.18.34A2.29,2.29,0,0,0,3,3.59,1.81,1.81,0,0,0,3,4V20a1.81,1.81,0,0,0,0,.4,2.29,2.29,0,0,0,.12.37,1.83,1.83,0,0,0,.18.34,1.74,1.74,0,0,0,.54.54,1.83,1.83,0,0,0,.34.18,2.29,2.29,0,0,0,.37.12A1.81,1.81,0,0,0,5,22H8.08a4.67,4.67,0,0,1-.78-1.35A4.44,4.44,0,0,1,7,19.06a4.69,4.69,0,0,1,4.69-4.69ZM14.08,3.61a.56.56,0,0,1,.09-.17l.12-.15.15-.12a.56.56,0,0,1,.17-.09A.6.6,0,0,1,14.8,3L15,3l.2,0a.6.6,0,0,1,.19.06.56.56,0,0,1,.17.09l.15.12.12.15a.56.56,0,0,1,.09.17A.6.6,0,0,1,16,3.8,1.23,1.23,0,0,1,16,4a1.23,1.23,0,0,1,0,.2.6.6,0,0,1-.06.19.56.56,0,0,1-.09.17l-.12.15-.15.12a.56.56,0,0,1-.17.09A.6.6,0,0,1,15.2,5L15,5l-.2,0a.6.6,0,0,1-.19-.06.56.56,0,0,1-.17-.09l-.15-.12-.12-.15a.56.56,0,0,1-.09-.17A.6.6,0,0,1,14,4.2,1.23,1.23,0,0,1,14,4a1.23,1.23,0,0,1,0-.2A.6.6,0,0,1,14.08,3.61Zm-10,0a.56.56,0,0,1,.09-.17l.12-.15.15-.12a.56.56,0,0,1,.17-.09A.6.6,0,0,1,4.8,3L5,3l.2,0a.6.6,0,0,1,.19.06.56.56,0,0,1,.17.09l.15.12.12.15a.56.56,0,0,1,.09.17A.6.6,0,0,1,6,3.8,1.23,1.23,0,0,1,6,4a1.23,1.23,0,0,1,0,.2.6.6,0,0,1-.06.19.56.56,0,0,1-.09.17l-.12.15-.15.12a.56.56,0,0,1-.17.09A.6.6,0,0,1,5.2,5L5,5,4.8,5a.6.6,0,0,1-.19-.06.56.56,0,0,1-.17-.09l-.15-.12-.12-.15a.56.56,0,0,1-.09-.17A.6.6,0,0,1,4,4.2,1.23,1.23,0,0,1,4,4a1.23,1.23,0,0,1,0-.2A.6.6,0,0,1,4.08,3.61ZM5.92,20.39a.56.56,0,0,1-.09.17l-.12.15-.15.12a.56.56,0,0,1-.17.09A.6.6,0,0,1,5.2,21L5,21l-.2,0a.6.6,0,0,1-.19-.06.56.56,0,0,1-.17-.09l-.15-.12-.12-.15a.56.56,0,0,1-.09-.17A.6.6,0,0,1,4,20.2a1,1,0,0,1,0-.4.6.6,0,0,1,.06-.19.56.56,0,0,1,.09-.17l.12-.15.15-.12a.56.56,0,0,1,.17-.09A.6.6,0,0,1,4.8,19L5,19l.2,0a.6.6,0,0,1,.19.06.56.56,0,0,1,.17.09l.15.12.12.15a.56.56,0,0,1,.09.17A.6.6,0,0,1,6,19.8a1,1,0,0,1,0,.4A.6.6,0,0,1,5.92,20.39ZM6.07,11H5.42l-.09-.24-.09-.24c0-.08,0-.16-.07-.24L5.11,10c0-.08,0-.17-.05-.25l0-.26a2.46,2.46,0,0,1,0-.26A2.44,2.44,0,0,1,5,9a4.81,4.81,0,0,1,.1-1,6,6,0,0,1,.29-.94,5.36,5.36,0,0,1,.46-.85,6.15,6.15,0,0,1,.61-.74,6.15,6.15,0,0,1,.74-.61,5.36,5.36,0,0,1,.85-.46A6,6,0,0,1,9,4.1a5.15,5.15,0,0,1,2,0,6,6,0,0,1,.94.29,5.36,5.36,0,0,1,.85.46,6.15,6.15,0,0,1,.74.61,6.15,6.15,0,0,1,.61.74,5.36,5.36,0,0,1,.46.85A6,6,0,0,1,14.9,8a5.15,5.15,0,0,1,0,2,6,6,0,0,1-.29.94,5.36,5.36,0,0,1-.46.85,6.15,6.15,0,0,1-.61.74,6.15,6.15,0,0,1-.74.61,5.36,5.36,0,0,1-.85.46,6,6,0,0,1-.94.29,4.81,4.81,0,0,1-1,.1H9.74l-.27,0-.25,0-.25,0-.25-.06-.25-.07-.23-.08L8,13.58V11H6.07Z"/><path d="M18.31,16.31a3.07,3.07,0,0,0-.53.05,3.65,3.65,0,0,0-.5.15,3.33,3.33,0,0,0-.46.24,3.12,3.12,0,0,0-.4.32l-.35.32-.36.31-.35.32-.35.31-.19.17-.19.16-.19.17-.19.17h0l-.33.3-.34.3-.34.3-.33.3a1.71,1.71,0,0,1-.26.21,1.59,1.59,0,0,1-.29.15,1.7,1.7,0,0,1-.32.1,1.84,1.84,0,0,1-.33,0,1.76,1.76,0,0,1-.66-.13,1.7,1.7,0,0,1-.54-.36,1.68,1.68,0,0,1,0-2.4,1.7,1.7,0,0,1,.54-.36,1.76,1.76,0,0,1,.66-.13,1.84,1.84,0,0,1,.33,0,1.7,1.7,0,0,1,.32.1,2.19,2.19,0,0,1,.3.16l.27.22.14.13.14.12.14.13.14.12.19-.16.19-.17.19-.17.19-.17-.16-.13-.16-.14-.16-.14-.15-.14a2.72,2.72,0,0,0-.42-.34,2.55,2.55,0,0,0-.46-.25,4.13,4.13,0,0,0-.5-.15,3.17,3.17,0,0,0-.53-.05,2.77,2.77,0,0,0-1.05.21,2.72,2.72,0,0,0-.86.58,2.68,2.68,0,0,0,0,3.8,2.72,2.72,0,0,0,.86.58,2.77,2.77,0,0,0,1.05.21,3.17,3.17,0,0,0,.53-.05,4.13,4.13,0,0,0,.5-.15,3.21,3.21,0,0,0,.45-.24,2.55,2.55,0,0,0,.4-.32l.36-.32.35-.31.35-.31.36-.31h0l.19-.17.19-.17.19-.17.19-.17h0l.34-.3.33-.3.34-.3.34-.3a1.64,1.64,0,0,1,.25-.21,1.68,1.68,0,0,1,.3-.15,1.6,1.6,0,0,1,.31-.1,1.87,1.87,0,0,1,.34,0,1.85,1.85,0,0,1,.66.13,1.74,1.74,0,0,1,.9.9,1.68,1.68,0,0,1-.37,1.86,1.77,1.77,0,0,1-.53.36,1.85,1.85,0,0,1-.66.13,1.87,1.87,0,0,1-.34,0,1.6,1.6,0,0,1-.31-.1,1.43,1.43,0,0,1-.3-.16,2,2,0,0,1-.27-.22l-.15-.13-.14-.13-.14-.12-.14-.13-.19.17-.19.16-.19.17-.19.17.16.14.16.14.16.14.16.14a2.25,2.25,0,0,0,.41.34,2.51,2.51,0,0,0,.46.24,2.21,2.21,0,0,0,.5.15,2.48,2.48,0,0,0,.54.06,2.67,2.67,0,0,0,1.05-.22A2.6,2.6,0,0,0,20.79,20a2.69,2.69,0,0,0-.57-2.94,2.78,2.78,0,0,0-.86-.58A2.66,2.66,0,0,0,18.31,16.31Z"/></svg>