<svg id="Layer_2" data-name="Layer 2" xmlns="http://www.w3.org/2000/svg" viewBox="0 0 24 24"><defs><style>.cls-1{fill:#010101;}</style></defs><title>persistent_volume</title><path d="M12,7a1.75,1.75,0,0,0-.4,0,2.4,2.4,0,0,0-.38.12,2.21,2.21,0,0,0-.34.18,2.59,2.59,0,0,0-.54.54,2.21,2.21,0,0,0-.18.34,2.4,2.4,0,0,0-.12.38,2,2,0,0,0,0,.8,2.4,2.4,0,0,0,.12.38,2.21,2.21,0,0,0,.18.34,2.59,2.59,0,0,0,.54.54,2.21,2.21,0,0,0,.34.18,2.4,2.4,0,0,0,.38.12,2,2,0,0,0,.8,0,2.4,2.4,0,0,0,.38-.12,2.21,2.21,0,0,0,.34-.18,2.59,2.59,0,0,0,.54-.54,2.21,2.21,0,0,0,.18-.34A2.4,2.4,0,0,0,14,9.4a2,2,0,0,0,0-.8,2.4,2.4,0,0,0-.12-.38,2.21,2.21,0,0,0-.18-.34,2.59,2.59,0,0,0-.54-.54,2.21,2.21,0,0,0-.34-.18A2.4,2.4,0,0,0,12.41,7,1.75,1.75,0,0,0,12,7Z"/><path d="M9,19.5A4.51,4.51,0,0,1,13.5,15a4.33,4.33,0,0,1,1.53.28,4.5,4.5,0,0,1,1.29.75A4.45,4.45,0,0,1,19,15V4a1.81,1.81,0,0,0,0-.4,2.29,2.29,0,0,0-.12-.37,1.83,1.83,0,0,0-.18-.34,1.74,1.74,0,0,0-.54-.54,1.83,1.83,0,0,0-.34-.18A2.29,2.29,0,0,0,17.41,2,1.81,1.81,0,0,0,17,2H7a1.81,1.81,0,0,0-.4,0,2.29,2.29,0,0,0-.37.12,1.83,1.83,0,0,0-.34.18,1.74,1.74,0,0,0-.54.54,1.83,1.83,0,0,0-.18.34A2.29,2.29,0,0,0,5,3.59,1.81,1.81,0,0,0,5,4V20a1.81,1.81,0,0,0,0,.4,2.29,2.29,0,0,0,.12.37,1.83,1.83,0,0,0,.18.34,1.74,1.74,0,0,0,.54.54,1.83,1.83,0,0,0,.34.18,2.29,2.29,0,0,0,.37.12A1.81,1.81,0,0,0,7,22H9.76a4.51,4.51,0,0,1-.56-1.17A4.46,4.46,0,0,1,9,19.5ZM16.08,3.61a.56.56,0,0,1,.09-.17l.12-.15.15-.12a.56.56,0,0,1,.17-.09A.6.6,0,0,1,16.8,3L17,3l.2,0a.6.6,0,0,1,.19.06.56.56,0,0,1,.17.09l.15.12.12.15a.56.56,0,0,1,.09.17A.6.6,0,0,1,18,3.8,1.23,1.23,0,0,1,18,4a1.23,1.23,0,0,1,0,.2.6.6,0,0,1-.06.19.56.56,0,0,1-.09.17l-.12.15-.15.12a.56.56,0,0,1-.17.09A.6.6,0,0,1,17.2,5L17,5l-.2,0a.6.6,0,0,1-.19-.06.56.56,0,0,1-.17-.09l-.15-.12-.12-.15a.56.56,0,0,1-.09-.17A.6.6,0,0,1,16,4.2,1.23,1.23,0,0,1,16,4a1.23,1.23,0,0,1,0-.2A.6.6,0,0,1,16.08,3.61Zm-10,0a.56.56,0,0,1,.09-.17l.12-.15.15-.12a.56.56,0,0,1,.17-.09A.6.6,0,0,1,6.8,3L7,3l.2,0a.6.6,0,0,1,.19.06.56.56,0,0,1,.17.09l.15.12.12.15a.56.56,0,0,1,.09.17A.6.6,0,0,1,8,3.8,1.23,1.23,0,0,1,8,4a1.23,1.23,0,0,1,0,.2.6.6,0,0,1-.06.19.56.56,0,0,1-.09.17l-.12.15-.15.12a.56.56,0,0,1-.17.09A.6.6,0,0,1,7.2,5L7,5,6.8,5a.6.6,0,0,1-.19-.06.56.56,0,0,1-.17-.09l-.15-.12-.12-.15a.56.56,0,0,1-.09-.17A.6.6,0,0,1,6,4.2,1.23,1.23,0,0,1,6,4a1.23,1.23,0,0,1,0-.2A.6.6,0,0,1,6.08,3.61ZM7.92,20.39a.56.56,0,0,1-.09.17l-.12.15-.15.12a.56.56,0,0,1-.17.09A.6.6,0,0,1,7.2,21L7,21l-.2,0a.6.6,0,0,1-.19-.06.56.56,0,0,1-.17-.09l-.15-.12-.12-.15a.56.56,0,0,1-.09-.17A.6.6,0,0,1,6,20.2a1,1,0,0,1,0-.4.6.6,0,0,1,.06-.19.56.56,0,0,1,.09-.17l.12-.15.15-.12a.56.56,0,0,1,.17-.09A.6.6,0,0,1,6.8,19L7,19l.2,0a.6.6,0,0,1,.19.06.56.56,0,0,1,.17.09l.15.12.12.15a.56.56,0,0,1,.09.17A.6.6,0,0,1,8,19.8a1,1,0,0,1,0,.4A.6.6,0,0,1,7.92,20.39ZM8.07,11H7.42l-.09-.23-.09-.24c0-.08,0-.16-.07-.24L7.11,10c0-.08,0-.17-.05-.25l0-.26a2.46,2.46,0,0,1,0-.26A2.44,2.44,0,0,1,7,9a5.58,5.58,0,0,1,.1-1,6,6,0,0,1,.29-.94,5.36,5.36,0,0,1,.46-.85,6.15,6.15,0,0,1,.61-.74,6.15,6.15,0,0,1,.74-.61,5.36,5.36,0,0,1,.85-.46A6,6,0,0,1,11,4.1a5.15,5.15,0,0,1,2,0,6,6,0,0,1,.94.29,5.36,5.36,0,0,1,.85.46,6.15,6.15,0,0,1,.74.61,6.15,6.15,0,0,1,.61.74,5.36,5.36,0,0,1,.46.85A6,6,0,0,1,16.9,8a5.15,5.15,0,0,1,0,2,6,6,0,0,1-.29.94,5.36,5.36,0,0,1-.46.85,6.15,6.15,0,0,1-.61.74,6.15,6.15,0,0,1-.74.61,5.36,5.36,0,0,1-.85.46,6,6,0,0,1-.94.29,5.58,5.58,0,0,1-1,.1h-.26l-.27,0-.25,0-.25,0-.25-.06-.25-.07-.23-.08-.23-.1V11H8.07Z"/><path class="cls-1" d="M19.65,17a2.57,2.57,0,0,0-1,.19,2.36,2.36,0,0,0-.79.52l-.66.59-.66.58-.35.31-.36.31h0l-.63.56-.62.55a1.43,1.43,0,0,1-.51.34,1.58,1.58,0,0,1-.61.12,1.54,1.54,0,0,1-1.11-.46,1.52,1.52,0,0,1-.46-1.11,1.54,1.54,0,0,1,.46-1.11,1.58,1.58,0,0,1,1.72-.34,1.66,1.66,0,0,1,.53.36l.26.23.26.23.35-.31.35-.31L15.58,18l-.29-.25a2.63,2.63,0,0,0-.82-.55,2.57,2.57,0,0,0-1-.19,2.5,2.5,0,0,0-1.77,4.27,2.5,2.5,0,0,0,1.77.73,2.56,2.56,0,0,0,1-.18,2.39,2.39,0,0,0,.79-.53l.66-.58.66-.58h0l.36-.31.35-.32h0l.63-.55.62-.56a1.58,1.58,0,0,1,2.23,0,1.54,1.54,0,0,1,.46,1.11,1.52,1.52,0,0,1-.46,1.11,1.54,1.54,0,0,1-1.11.46A1.58,1.58,0,0,1,19,21a1.66,1.66,0,0,1-.53-.36l-.26-.23L18,20.13l-.35.32-.35.31.3.26.29.26a2.73,2.73,0,0,0,.81.54,2.62,2.62,0,0,0,1,.19,2.5,2.5,0,0,0,1.77-4.27A2.5,2.5,0,0,0,19.65,17Z"/></svg>