<svg id="Layer_2" data-name="Layer 2" xmlns="http://www.w3.org/2000/svg" viewBox="0 0 24 24"><path d="M10.01,7a2.00917,2.00917,0,0,0-.40307.04063,1.98891,1.98891,0,0,0-.71514.30093,2.00572,2.00572,0,0,0-.72462.87993,1.98565,1.98565,0,0,0-.11654.37543,2.01969,2.01969,0,0,0,0,.80615,1.98916,1.98916,0,0,0,.30094.71514,2.00587,2.00587,0,0,0,.87995.72462,1.98546,1.98546,0,0,0,.37541.11654,2.01959,2.01959,0,0,0,.80613,0,1.98911,1.98911,0,0,0,.71515-.30094,2.00587,2.00587,0,0,0,.72462-.87995,1.98546,1.98546,0,0,0,.11654-.37541,2.01969,2.01969,0,0,0,0-.80615,1.98906,1.98906,0,0,0-.30094-.71516,2.006,2.006,0,0,0-.88-.7246,1.98458,1.98458,0,0,0-.37542-.11653A2.009,2.009,0,0,0,10.01,7Z"/><path d="M11.70235,14.36567a4.62836,4.62836,0,0,1,1.87307.39349,4.737,4.737,0,0,1,1.5128,1.0644,4.47223,4.47223,0,0,1,.87607-.72175A4.98472,4.98472,0,0,1,17,14.60621V3.99305a2.00142,2.00142,0,0,0-.0405-.40169,1.98405,1.98405,0,0,0-.29991-.71269,1.99857,1.99857,0,0,0-.87687-.722,1.97693,1.97693,0,0,0-.37413-.11614A2.00235,2.00235,0,0,0,15.007,2H4.99306a2.0027,2.0027,0,0,0-.40168.04047,1.98209,1.98209,0,0,0-.71264.29988,1.99817,1.99817,0,0,0-.7221.87687,1.976,1.976,0,0,0-.11614.37413A2.00215,2.00215,0,0,0,3,3.99305V20.007a2.0017,2.0017,0,0,0,.04048.40163,1.98288,1.98288,0,0,0,.29988.71268,1.99916,1.99916,0,0,0,.87687.72205,1.97655,1.97655,0,0,0,.37413.11617A2.00125,2.00125,0,0,0,4.99306,22h3.086a4.81222,4.81222,0,0,1-.77963-1.3542,4.53677,4.53677,0,0,1-.28708-1.59014,4.69,4.69,0,0,1,4.69-4.69ZM14.07857,3.61073a1.00272,1.00272,0,0,1,.2143-.31788,1.00257,1.00257,0,0,1,.31787-.21429.99119.99119,0,0,1,.18771-.05825,1.01065,1.01065,0,0,1,.40309,0,.99432.99432,0,0,1,.35758.15045,1.00307,1.00307,0,0,1,.36229.44.99284.99284,0,0,1,.05828.1877,1.00924,1.00924,0,0,1,0,.4031.99464.99464,0,0,1-.15048.35755,1.00268,1.00268,0,0,1-.44.36231.99287.99287,0,0,1-.1877.05829,1.00919,1.00919,0,0,1-.40309,0,.99484.99484,0,0,1-.35756-.15049,1.00321,1.00321,0,0,1-.36232-.44.993.993,0,0,1-.05825-.1877,1.0107,1.0107,0,0,1,0-.4031A.99277.99277,0,0,1,14.07857,3.61073Zm-10,0a1.00272,1.00272,0,0,1,.2143-.31788,1.00257,1.00257,0,0,1,.31787-.21429.99119.99119,0,0,1,.18771-.05825,1.01065,1.01065,0,0,1,.40309,0,.99432.99432,0,0,1,.35758.15045,1.00307,1.00307,0,0,1,.36229.44.99284.99284,0,0,1,.05828.1877,1.00924,1.00924,0,0,1,0,.4031.99464.99464,0,0,1-.15048.35755,1.00268,1.00268,0,0,1-.44.36231.99287.99287,0,0,1-.1877.05829,1.00919,1.00919,0,0,1-.40309,0,.99484.99484,0,0,1-.35756-.15049,1.00321,1.00321,0,0,1-.36232-.44.993.993,0,0,1-.05825-.1877,1.0107,1.0107,0,0,1,0-.4031A.99277.99277,0,0,1,4.07857,3.61073Zm1.84284,16.7785a.99682.99682,0,1,1,.05828-.1877A.998.998,0,0,1,5.92141,20.38923Zm.1485-9.38422h-.645q-.05063-.11526-.09575-.23333t-.08449-.23883q-.03936-.12072-.0728-.244t-.06062-.249q-.02719-.1257-.048-.25366t-.03482-.258q-.0141-.13007-.02127-.26215T5,9a5.0237,5.0237,0,0,1,.10157-1.0077,4.97176,4.97176,0,0,1,.75234-1.78786A5.015,5.015,0,0,1,8.05379,4.39289a4.96325,4.96325,0,0,1,.93856-.29131,5.0492,5.0492,0,0,1,2.01532,0,4.97052,4.97052,0,0,1,1.78786.75233,5.01435,5.01435,0,0,1,1.81155,2.19987,4.96286,4.96286,0,0,1,.29134.93853,5.04789,5.04789,0,0,1,0,2.01535,4.97193,4.97193,0,0,1-.75233,1.78786,5.0149,5.0149,0,0,1-2.19984,1.81154,4.9631,4.9631,0,0,1-.93858.29135A5.022,5.022,0,0,1,10,14q-.13315,0-.26453-.0071T9.47475,13.972q-.12941-.01386-.25672-.03435t-.25237-.04731q-.12511-.02678-.2478-.05979T8.475,13.75868q-.12021-.03886-.23773-.08347T8.005,13.58057V11.005H6.06991Z"/><path d="M18.30628,16.31a2.75559,2.75559,0,0,0-.53008.05133,2.70707,2.70707,0,0,0-.50055.14929,2.63462,2.63462,0,0,0-.45648.24024,2.5404,2.5404,0,0,0-.39789.32414l-.35375.31375-.35375.31375-.35375.31375-.35375.31375-.19.1675-.19.1675-.19.1675-.19.1675h.005l-.33625.29875-.33625.29875-.33625.29875-.33625.29875a1.70308,1.70308,0,0,1-.25852.21234,1.67153,1.67153,0,0,1-.607.25032,1.7324,1.7324,0,0,1-.33445.03234,1.69,1.69,0,1,1,0-3.38,1.71314,1.71314,0,0,1,.33476.03266,1.65823,1.65823,0,0,1,.31836.09734,1.70268,1.70268,0,0,1,.2968.16109,1.84972,1.84972,0,0,1,.27008.22391l.14125.125.14125.125L13.35,18.2l.14125.125.18875-.1675.18875-.1675.18875-.1675.18875-.1675-.1575-.13875-.1575-.13875-.1575-.13875L13.61628,17.1a2.71561,2.71561,0,0,0-.41235-.33859,2.67327,2.67327,0,0,0-.96718-.39969,2.7321,2.7321,0,0,0-.53047-.05172,2.70728,2.70728,0,0,0-2.48766,1.64531,2.67605,2.67605,0,0,0,0,2.08938A2.702,2.702,0,0,0,11.70628,21.69a2.75541,2.75541,0,0,0,.53007-.05133,2.70707,2.70707,0,0,0,.50055-.14929,2.63508,2.63508,0,0,0,.45649-.24024,2.54087,2.54087,0,0,0,.39789-.32414l.35375-.3125.35375-.3125.35375-.3125.35375-.3125.00125.00125.00125.00125.00125.00125.00125.00125L15.2,19.51l.18875-.17.18875-.17.18875-.17h-.005l.33625-.29875.33625-.29875.33625-.29875.33625-.29875a1.703,1.703,0,0,1,.25851-.21234,1.67153,1.67153,0,0,1,.607-.25032,1.7325,1.7325,0,0,1,.33446-.03234,1.69,1.69,0,1,1-.33266,3.34734A1.6736,1.6736,0,0,1,17.655,20.56a1.71619,1.71619,0,0,1-.298-.16109,1.8339,1.8339,0,0,1-.27078-.22391l-.1425-.12625-.1425-.12625-.1425-.12625-.1425-.12625-.18875.1675-.18875.1675-.18875.1675-.18875.1675.15875.14.15875.14.15875.14.15875.14a2.74294,2.74294,0,0,0,.41164.3357,2.67554,2.67554,0,0,0,.96578.39766,2.75216,2.75216,0,0,0,.53258.05164,2.70325,2.70325,0,0,0,2.48765-1.6432,2.67417,2.67417,0,0,0-.5789-2.94618A2.69978,2.69978,0,0,0,18.30628,16.31Z"/></svg>