<?xml version="1.0" encoding="utf-8"?>
<!-- Generator: Adobe Illustrator 25.2.1, SVG Export Plug-In . SVG Version: 6.00 Build 0)  -->
<svg version="1.1" id="Layer_1" xmlns="http://www.w3.org/2000/svg" xmlns:xlink="http://www.w3.org/1999/xlink" x="0px" y="0px"
	 viewBox="0 0 24 24" style="enable-background:new 0 0 24 24;" xml:space="preserve">
<path d="M6,18.8V18h12v1c0,1.1-0.9,2-2,2c0,0,0,0,0,0H8c-1.1,0-2-0.9-2-2c0,0,0,0,0,0V18.8z M15,4c0-0.3-0.1-0.5-0.3-0.7
	C14.5,3.1,14.3,3,14,3h-4C9.6,3,9.2,3.2,9.1,3.6C9,3.7,9,3.9,9,4v1h6V4z M16.2,8.8l1.3,2.8l1.3,2.8L20,17H4l1.2-2.8l1.2-2.8l1.2-2.8
	L9,6h6L16.2,8.8z M12.8,12.9c1-0.4,1.5-1.6,1.1-2.6s-1.6-1.5-2.6-1.1c-1,0.4-1.5,1.6-1.1,2.6c0.3,0.7,1,1.2,1.8,1.2
	C12.3,13,12.5,13,12.8,12.9z"/>
<polygon points="5,11 3.5,11 3.5,8.5 0,12 3.5,15.5 3.5,13 5,13 "/>
<polygon points="24,12 20.5,8.5 20.5,11 19,11 19,13 20.5,13 20.5,15.5 "/>
</svg>
