<svg id="Layer_1" data-name="Layer 1" xmlns="http://www.w3.org/2000/svg" viewBox="0 0 24 24"><defs><style>.cls-1{fill:#020202;}</style></defs><path d="M14,8V18H24V8Zm8,8H16V10h6ZM12.00121,9.99887,7.01627,9.99716,7.00671-.00169,17.01265.001l.00468,5.99637L15.01,5.99974l-.00049-3.9886L9.05242,1.99887v6h2.94879Z"/><path class="cls-1" d="M6.91528,11H6.00037A1.00037,1.00037,0,0,1,5,9.99963V5H4v5.08472A1.91529,1.91529,0,0,0,5.91528,12H11V11Z"/><path class="cls-1" d="M3.91528,14H3.00037A1.00037,1.00037,0,0,1,2,12.99963V8H1v5.08472A1.91529,1.91529,0,0,0,2.91528,15H8V14Z"/></svg>