<svg id="Layer_1" data-name="Layer 1" xmlns="http://www.w3.org/2000/svg" viewBox="0 0 24 24"><defs><style>.cls-1{fill:#020202;}</style></defs><path d="M22,4H15a2.0026,2.0026,0,0,0-2,2V18a2.0026,2.0026,0,0,0,2,2h7a2.0026,2.0026,0,0,0,2-2V6A2.0026,2.0026,0,0,0,22,4ZM15,18V6h7l.001,12ZM9,2V14h2v2H9a2.0026,2.0026,0,0,1-2-2V2A2.0026,2.0026,0,0,1,9,0h7a2.0026,2.0026,0,0,1,2,2H9ZM19.72064,15.00183h.356v2.03674H16.92334V15.00183Zm-1.71972-1.98346H16.92334v-2.0368H20v2.0368ZM20,6.98157h.07666v2.0368H16.92334V6.98157H20Z"/><path class="cls-1" d="M6.91526,18H6.00035A1.00036,1.00036,0,0,1,5,16.99964V12H4v5.08472A1.91529,1.91529,0,0,0,5.91526,19H11V18Z"/><path class="cls-1" d="M3.91526,21H3.00035A1.00036,1.00036,0,0,1,2,19.99964V15H1v5.08472A1.91529,1.91529,0,0,0,2.91526,22H8V21Z"/></svg>