<svg id="Layer_2" data-name="Layer 2" xmlns="http://www.w3.org/2000/svg" viewBox="0 0 24 24"><defs><style>.cls-1{fill:#010101;}</style></defs><title>role_binding</title><path class="cls-1" d="M14,18h4v2H14V18Zm5-3H17v2h2.21a.64.64,0,0,1,.2,0l.19.05.18.06.17.09.17.1.15.11.14.13.13.15.11.15.1.17a1.42,1.42,0,0,1,.08.18,1.34,1.34,0,0,1,.07.18,1.46,1.46,0,0,1,.05.2l0,.2A1.55,1.55,0,0,1,21,19a1.41,1.41,0,0,1,0,.2l0,.19a1.05,1.05,0,0,1-.05.19,1,1,0,0,1-.07.18,1.42,1.42,0,0,1-.08.18,1.4,1.4,0,0,1-.1.16l-.11.15a2.58,2.58,0,0,1-.27.27l-.15.11-.17.1-.17.09-.18.06-.19.05a.64.64,0,0,1-.2,0H17v2h2a2.82,2.82,0,0,0,.41,0l.39-.06a2.36,2.36,0,0,0,.38-.1l.37-.13.35-.17.32-.2a3.55,3.55,0,0,0,.31-.23,3.45,3.45,0,0,0,.28-.26l.26-.28.23-.31a4.93,4.93,0,0,0,.37-.69c0-.12.09-.24.13-.37s.07-.26.1-.39a2.57,2.57,0,0,0,.06-.4c0-.14,0-.27,0-.42s0-.27,0-.4a2.76,2.76,0,0,0-.06-.4c0-.13-.06-.25-.1-.38s-.08-.24-.13-.36a3.78,3.78,0,0,0-.17-.35c-.06-.11-.13-.22-.2-.33a3.4,3.4,0,0,0-.23-.3,3.58,3.58,0,0,0-.26-.29l-.28-.25a3.55,3.55,0,0,0-.31-.23l-.32-.2-.35-.17a2.32,2.32,0,0,0-.37-.13,2.36,2.36,0,0,0-.38-.1L19.43,15A2.82,2.82,0,0,0,19,15Zm-8,4a1.41,1.41,0,0,1,0-.2l0-.19a1.05,1.05,0,0,1,.05-.19,1,1,0,0,1,.07-.18,1.42,1.42,0,0,1,.08-.18,1.4,1.4,0,0,1,.1-.16l.11-.15a2.58,2.58,0,0,1,.27-.27l.15-.11.17-.1.17-.09.18-.06.19-.05a.64.64,0,0,1,.2,0H15V15H13a2.82,2.82,0,0,0-.41,0l-.39.06a2.36,2.36,0,0,0-.38.1l-.37.13-.35.17-.32.2a3.55,3.55,0,0,0-.31.23,3.45,3.45,0,0,0-.28.26l-.26.28-.23.31a4.93,4.93,0,0,0-.37.69c-.05.12-.09.24-.13.37s-.07.26-.1.39a2.57,2.57,0,0,0-.06.4c0,.14,0,.27,0,.42s0,.27,0,.4a2.76,2.76,0,0,0,.06.4c0,.13.06.25.1.38s.08.24.13.36a3.78,3.78,0,0,0,.17.35c.06.11.13.22.2.33a3.4,3.4,0,0,0,.23.3,3.58,3.58,0,0,0,.26.29l.28.25a3.55,3.55,0,0,0,.31.23l.32.2.35.17a2.32,2.32,0,0,0,.37.13,2.36,2.36,0,0,0,.38.1l.39.06A2.82,2.82,0,0,0,13,23h2V21H12.78a.64.64,0,0,1-.2,0l-.19-.05-.18-.06L12,20.76l-.17-.1-.15-.11-.14-.13-.13-.15-.11-.15-.1-.17a1.42,1.42,0,0,1-.08-.18,1.34,1.34,0,0,1-.07-.18,1.46,1.46,0,0,1-.05-.2l0-.2A1.55,1.55,0,0,1,11,19Z"/><path class="cls-1" d="M7,19V18H3V16.6a1.36,1.36,0,0,1,0-.36,1.48,1.48,0,0,1,.13-.35,1.55,1.55,0,0,1,.2-.32,2.56,2.56,0,0,1,.28-.3c.1-.09.21-.19.33-.28l.38-.25.42-.23.46-.21.48-.19L6.22,14l.5-.13.5-.12.48-.09.47-.06.43,0H10l.1,0h.09l.09,0h.1l.15-.07.15-.07.16-.06.16-.06.16-.06.16-.05.16,0,.17,0,.16,0,.17,0,.17,0,.18,0,.17,0H18V4a1.27,1.27,0,0,0,0-.2l0-.2a1.05,1.05,0,0,0-.05-.19,1.07,1.07,0,0,0-.07-.19,1.3,1.3,0,0,0-.08-.17l-.1-.17-.12-.15a.86.86,0,0,0-.13-.14.86.86,0,0,0-.14-.13l-.15-.12L17,2.24l-.17-.08-.19-.07L16.4,2l-.2,0H11.82l-.09-.21a2,2,0,0,0-.1-.21,2,2,0,0,0-.11-.2l-.13-.18L11.24,1,11.09.86,10.92.7,10.74.56,10.55.44l-.2-.11-.2-.1L9.93.15,9.71.09,9.48,0,9.24,0H8.76L8.52,0l-.23,0L8.07.15,7.85.23a1.24,1.24,0,0,0-.2.1l-.2.11L7.26.56,7.08.7,6.91.86,6.76,1l-.14.18-.14.18a2,2,0,0,0-.11.2,2,2,0,0,0-.1.21L6.18,2H1.8L1.6,2l-.19,0-.19.07-.17.08-.17.1-.15.12a.86.86,0,0,0-.14.13.86.86,0,0,0-.13.14l-.12.15-.1.17a1.3,1.3,0,0,0-.08.17,1.07,1.07,0,0,0-.07.19A1.05,1.05,0,0,0,0,3.6l0,.2A1.27,1.27,0,0,0,0,4V18a1.27,1.27,0,0,0,0,.2l0,.2a1.05,1.05,0,0,0,0,.19,1.07,1.07,0,0,0,.07.19A1.3,1.3,0,0,0,.24,19l.1.17.12.15a.86.86,0,0,0,.13.14.86.86,0,0,0,.14.13l.15.12.17.1.17.08.19.07L1.6,20l.2,0H7.13V19ZM9,2h.2l.1,0,.09,0,.09,0,.08,0,.08.06.07.06.06.07.06.08a.56.56,0,0,0,.05.08l0,.09a.32.32,0,0,1,0,.09l0,.1a.31.31,0,0,1,0,.1A.34.34,0,0,1,10,3a.34.34,0,0,1,0,.1.31.31,0,0,1,0,.1l0,.1a.32.32,0,0,1,0,.09l0,.09a.56.56,0,0,0-.05.08l-.06.08-.06.07-.07.06-.08.06-.08,0-.09,0L9.3,4,9.2,4H8.8L8.7,4l-.09,0-.09,0-.08,0-.08-.06-.07-.06-.06-.07-.06-.08a.56.56,0,0,0-.05-.08l0-.09a.32.32,0,0,1,0-.09l0-.1a.31.31,0,0,1,0-.1A.34.34,0,0,1,8,3a.34.34,0,0,1,0-.1.31.31,0,0,1,0-.1l0-.1a.32.32,0,0,1,0-.09l0-.09a.56.56,0,0,0,.05-.08l.06-.08.06-.07.07-.06.08-.06.08,0,.09,0,.09,0,.1,0H9ZM9,6l.31,0,.3,0,.28.07.28.11a2.06,2.06,0,0,1,.26.12l.25.15.23.17.21.2.2.21c.06.07.11.15.17.23l.15.25a2.06,2.06,0,0,1,.12.26,2.33,2.33,0,0,1,.11.28c0,.09.05.19.07.28s0,.2,0,.3S12,8.9,12,9s0,.21,0,.31,0,.2,0,.3,0,.19-.07.28a2.33,2.33,0,0,1-.11.28,2.06,2.06,0,0,1-.12.26l-.15.25c-.06.08-.11.16-.17.23l-.2.21-.21.2-.23.17-.25.15a2.06,2.06,0,0,1-.26.12l-.28.11-.28.07-.3,0L9,12l-.31,0-.3,0-.28-.07-.28-.11a2.06,2.06,0,0,1-.26-.12l-.25-.15-.23-.17-.21-.2-.2-.21c-.06-.07-.11-.15-.17-.23l-.15-.25a2.06,2.06,0,0,1-.12-.26,2.33,2.33,0,0,1-.11-.28c0-.09,0-.19-.07-.28s0-.2,0-.3S6,9.1,6,9s0-.21,0-.31,0-.2,0-.3.05-.19.07-.28a2.33,2.33,0,0,1,.11-.28,2.06,2.06,0,0,1,.12-.26l.15-.25c.06-.08.11-.16.17-.23l.2-.21.21-.2.23-.17.25-.15a2.06,2.06,0,0,1,.26-.12l.28-.11.28-.07.3,0Z"/></svg>