<svg id="Layer_2" data-name="Layer 2" xmlns="http://www.w3.org/2000/svg" viewBox="0 0 24 24"><defs><style>.cls-1{fill:#010101;}</style></defs><title>role_binding</title><path class="cls-1" d="M14,18h4v2H14V18Zm5-3H17v2h2a2,2,0,0,1,.77.15,2,2,0,0,1,.63.43,2,2,0,0,1,.42.65A2.08,2.08,0,0,1,21,19a2,2,0,0,1-.58,1.39,2,2,0,0,1-.63.43A2,2,0,0,1,19,21H17v2h2a4,4,0,0,0,3.67-2.45A4.08,4.08,0,0,0,23,19a3.94,3.94,0,0,0-1.17-2.81A3.94,3.94,0,0,0,19,15Zm-8,4a2,2,0,0,1,.58-1.39,2,2,0,0,1,.63-.43A2,2,0,0,1,13,17h2V15H13a4,4,0,0,0-3.67,2.45A4.08,4.08,0,0,0,9,19a3.94,3.94,0,0,0,1.17,2.81A3.94,3.94,0,0,0,13,23h2V21H13a2,2,0,0,1-.77-.15,2,2,0,0,1-.63-.43,2,2,0,0,1-.42-.65A2.08,2.08,0,0,1,11,19Z"/><path class="cls-1" d="M7,19a2.26,2.26,0,0,1,0-.26,2.11,2.11,0,0,1,0-.25,2,2,0,0,1,0-.25c0-.09,0-.17,0-.25H3V16.6a1.84,1.84,0,0,1,.66-1.33,5.23,5.23,0,0,1,1.59-1,11.2,11.2,0,0,1,2-.6A9.49,9.49,0,0,1,9,13.5h.31l.34,0,.36,0,.38.06a4.78,4.78,0,0,1,.62-.26,4.88,4.88,0,0,1,.65-.2c.22-.05.45-.09.68-.12a5.37,5.37,0,0,1,.7,0h5V4a2,2,0,0,0-.16-.78,2.06,2.06,0,0,0-1.06-1.06A2,2,0,0,0,16,2H11.82a2.94,2.94,0,0,0-.43-.8,3.28,3.28,0,0,0-.65-.64A3.25,3.25,0,0,0,9.93.15a3,3,0,0,0-1.86,0,3.43,3.43,0,0,0-.81.41,3.23,3.23,0,0,0-.64.64,3,3,0,0,0-.44.8H2a2.05,2.05,0,0,0-.78.16,2,2,0,0,0-.63.43,2,2,0,0,0-.43.63A2,2,0,0,0,0,4V18a2.05,2.05,0,0,0,.16.78,2,2,0,0,0,.43.63,2,2,0,0,0,.63.43A2.05,2.05,0,0,0,2,20H7.13c0-.08,0-.16,0-.24l0-.25c0-.08,0-.17,0-.25A2.09,2.09,0,0,1,7,19ZM9,2a1,1,0,0,1,.39.08.94.94,0,0,1,.53.53,1,1,0,0,1,0,.78.94.94,0,0,1-.53.53,1,1,0,0,1-.78,0,.94.94,0,0,1-.53-.53,1,1,0,0,1,0-.78.94.94,0,0,1,.53-.53A1,1,0,0,1,9,2ZM9,6a2.85,2.85,0,0,1,1.17.24,3,3,0,0,1,1.59,1.59A2.85,2.85,0,0,1,12,9a2.88,2.88,0,0,1-.24,1.17,3,3,0,0,1-1.59,1.59A2.85,2.85,0,0,1,9,12a2.88,2.88,0,0,1-1.17-.24,3,3,0,0,1-1.59-1.59A2.88,2.88,0,0,1,6,9a2.85,2.85,0,0,1,.24-1.17A3,3,0,0,1,7.83,6.24,2.88,2.88,0,0,1,9,6Z"/></svg>