<svg xmlns="http://www.w3.org/2000/svg" viewBox="0 0 24 24"><defs><style>.cls-1{fill:#010101;}</style></defs><title>role_binding</title><g id="Layer_2" data-name="Layer 2"><path class="cls-1" d="M14,18h4v2H14V18Zm5-3H17v2h2a2,2,0,0,1,1.4.58A2,2,0,0,1,21,19a1.94,1.94,0,0,1-.58,1.39A2,2,0,0,1,19,21H17v2h2a3.92,3.92,0,0,0,2.81-1.17A4,4,0,0,0,23,19a4,4,0,0,0-4-4Zm-8,4a1.94,1.94,0,0,1,.58-1.39A2,2,0,0,1,13,17h2V15H13a3.92,3.92,0,0,0-2.81,1.17A4,4,0,0,0,9,19a4,4,0,0,0,4,4h2V21H13a2,2,0,0,1-1.4-.58A2,2,0,0,1,11,19Z"/><path class="cls-1" d="M7,19a4.36,4.36,0,0,1,0-.51,4,4,0,0,1,.06-.5H3V16.6c0-1,1-1.78,2.25-2.3A10.55,10.55,0,0,1,9,13.5l.65,0,.74.1a6,6,0,0,1,1.27-.46A5.67,5.67,0,0,1,13,13h5V4a2,2,0,0,0-2-2H11.82A3.1,3.1,0,0,0,10.74.56a3,3,0,0,0-3.48,0A3.1,3.1,0,0,0,6.18,2H2a2,2,0,0,0-1.41.59A2,2,0,0,0,0,4V18a2,2,0,0,0,2,2H7.13c0-.16,0-.33-.07-.49S7,19.18,7,19ZM9,2a1,1,0,0,1,1,1,1,1,0,1,1-1.71-.71A1,1,0,0,1,9,2ZM9,6a3,3,0,0,1,2.12,5.12A3,3,0,1,1,6.88,6.88,3,3,0,0,1,9,6Z"/></g></svg>