<svg xmlns="http://www.w3.org/2000/svg" viewBox="0 0 24 24"><path d="M14.00043,17.98633h4.02166v2.04248H14.00043V17.98633Zm5.02148-2.9895H17.00519v2h2.01672a1.95234,1.95234,0,0,1,1.39832.58624,2.04306,2.04306,0,0,1,.5802,1.44208,1.9805,1.9805,0,0,1-1.97852,1.978H17.00519v2h2.01672a3.9459,3.9459,0,0,0,2.81177-1.17279,4.03623,4.03623,0,0,0,1.16675-2.85553,3.98312,3.98312,0,0,0-3.97852-3.978Zm-8.02234,3.978a1.9805,1.9805,0,0,1,1.97852-1.978h2.02234v-2H12.97809a3.94578,3.94578,0,0,0-2.81195,1.17279,4.03633,4.03633,0,0,0-1.16657,2.85553,3.98281,3.98281,0,0,0,3.97852,3.978h2.02234v-2H12.97809a1.95234,1.95234,0,0,1-1.39832-.58624A2.04306,2.04306,0,0,1,10.99957,18.97485Z"/><path d="M7.04071,19.00757c0-.17206.00888-.34189.02471-.50974S7.104,18.16412,7.13183,18H3V16.6c0-1,1-1.775,2.25-2.3A10.66061,10.66061,0,0,1,9,13.5c.1994,0,.419.01141.65255.03356s.481.055.73618.098a6.049,6.049,0,0,1,1.26866-.46036,5.9179,5.9179,0,0,1,1.38332-.1636H18V4a2.00585,2.00585,0,0,0-2-2H11.82A3.06193,3.06193,0,0,0,10.74.565a2.9618,2.9618,0,0,0-3.48,0A3.06217,3.06217,0,0,0,6.18,2H2A2.00588,2.00588,0,0,0,0,4V18a2.00591,2.00591,0,0,0,2,2H7.12952c-.027-.16177-.04918-.32516-.06464-.49047S7.04071,19.177,7.04071,19.00757ZM9,2a1.00294,1.00294,0,1,1-.70625.29375A.99692.99692,0,0,1,9,2ZM9,6a2.996,2.996,0,1,1-2.12249.87749A2.99052,2.99052,0,0,1,9,6Z"/></svg>
