<svg id="Layer_1" data-name="Layer 1" xmlns="http://www.w3.org/2000/svg" viewBox="0 0 24 24"><title>role_binding</title><path d="M11.19,20H6V18.6c0-2,4-3.1,6-3.1a10.33,10.33,0,0,1,2.92.5H20a2.78,2.78,0,0,1,1,.19V6a2,2,0,0,0-2-2H14.82A3,3,0,0,0,9.18,4H5A2,2,0,0,0,3,6V20a2,2,0,0,0,2,2h9A3,3,0,0,1,11.19,20ZM12,4a1,1,0,1,1-1,1A1,1,0,0,1,12,4Zm0,4a3,3,0,1,1-3,3A3,3,0,0,1,12,8Z"/><path d="M13.76,19A1.25,1.25,0,0,1,15,17.76h1.6V17H15a2,2,0,0,0,0,4h1.6v-.76H15A1.25,1.25,0,0,1,13.76,19Zm1.64.4h3.2v-.8H15.4ZM19,17H17.4v.76H19a1.24,1.24,0,0,1,0,2.48H17.4V21H19a2,2,0,0,0,0-4Z"/></svg>