<svg xmlns="http://www.w3.org/2000/svg" viewBox="0 0 24 24"><path d="M5.24264,14.75735a4,4,0,0,1,4,4,4.0224,4.0224,0,0,1-.1349,1.03669l-4.9018-4.9018a4.0224,4.0224,0,0,1,1.03669-.1349m0-2A5.98122,5.98122,0,0,0,1,14.51472L9.48528,23A6,6,0,0,0,5.24264,12.75735Z"/><rect x="11.43503" y="2.56497" width="6" height="14" rx="1.95402" transform="translate(10.99138 -7.40559) rotate(45)"/><path d="M17.26367,18.53955a1.66866,1.66866,0,0,1-1.18359-.48926L5.94971,7.91992a1.67568,1.67568,0,0,1,0-2.3667l3.7666-3.7666a1.6757,1.6757,0,0,1,2.3667,0L22.21338,11.917a1.6757,1.6757,0,0,1,0,2.3667l-3.7666,3.7666A1.6684,1.6684,0,0,1,17.26367,18.53955ZM10.89941,2.97021,7.1333,6.73682,17.26416,16.86768l3.76563-3.76758Z"/><circle cx="4.53553" cy="19.46447" r="1"/></svg>