<svg id="Layer_1" data-name="Layer 1" xmlns="http://www.w3.org/2000/svg" viewBox="0 0 24 24"><title>service</title><path d="M15.34,7V6.51a3.23,3.23,0,0,0,0-.44l1-.75a.23.23,0,0,0,0-.29l-.9-1.56a.21.21,0,0,0-.27-.09l-1.12.45a2.57,2.57,0,0,0-.77-.44L13.11,2.2A.2.2,0,0,0,12.9,2H11.1a.24.24,0,0,0-.23.15L10.7,3.35a4.42,4.42,0,0,0-.76.44L8.82,3.35a.23.23,0,0,0-.28.1L7.64,5l0,0a.24.24,0,0,0,.08.31l1,.75A3.24,3.24,0,0,0,8.7,7l-1,.75A.23.23,0,0,0,7.64,8l.9,1.52a.26.26,0,0,0,.28.1l1.12-.46a2.64,2.64,0,0,0,.76.44l.17,1.19a.22.22,0,0,0,.23.19h1.84a.21.21,0,0,0,.22-.19l.17-1.19a2.9,2.9,0,0,0,.76-.44l1.12.46a.25.25,0,0,0,.28-.1L16.35,8a.22.22,0,0,0,0-.31ZM12,7.85a1.35,1.35,0,1,1,0-2.7s0,0,0,0a1.33,1.33,0,0,1,1.33,1.34A1.35,1.35,0,0,1,12,7.85Z"/><rect x="2" y="15.23" width="2" height="5.55"/><path d="M11.35,22,5.58,20.68A.75.75,0,0,1,5,20v-4a.76.76,0,0,1,.59-.74L15,14l.3,1.1a1,1,0,0,1-.55.9l-4,1L14,18.3,18.42,17a.74.74,0,0,1,.93.54l.38,1.53a.74.74,0,0,1-.52.9l-7.14,2A1.46,1.46,0,0,1,11.35,22Z"/></svg>