<svg id="Layer_1" data-name="Layer 1" xmlns="http://www.w3.org/2000/svg" viewBox="0 0 24 24"><title>service</title><rect x="3" y="15" width="2" height="6"/><path d="M12.47,22,6.6,20.67a.75.75,0,0,1-.6-.73v-4a.75.75,0,0,1,.6-.73L16.19,14l.31,1.11a1,1,0,0,1-.56.89l-4.07,1,3.25,1.31L19.68,17a.78.78,0,0,1,.95.54L21,19.08a.75.75,0,0,1-.53.91l-7.28,2A1.5,1.5,0,0,1,12.47,22Z"/><polygon points="9 4 5 8 9 12 10.4 10.6 7.8 8 10.4 5.4 9 4"/><polygon points="15 4 13.6 5.4 16.2 8 13.6 10.6 15 12 19 8 15 4"/></svg>