<svg id="Layer_1" data-name="Layer 1" xmlns="http://www.w3.org/2000/svg" viewBox="0 0 24 24"><title>service</title><path d="M22.45,15A2.5,2.5,0,0,0,20,13H11a2.5,2.5,0,0,0-2.21,1.35A2.45,2.45,0,0,0,8.5,15.5,2.5,2.5,0,0,0,11,18h4V16H11a.5.5,0,0,1,0-1h9a.5.5,0,0,1,0,1v2a2.5,2.5,0,0,0,2.45-2,2.52,2.52,0,0,0,0-1Z"/><path d="M15.34,7V6.51a3.23,3.23,0,0,0,0-.44l1-.75a.23.23,0,0,0,0-.29l-.9-1.56a.21.21,0,0,0-.27-.09l-1.12.45a2.57,2.57,0,0,0-.77-.44L13.11,2.2A.2.2,0,0,0,12.9,2H11.1a.24.24,0,0,0-.23.15L10.7,3.35a4.42,4.42,0,0,0-.76.44L8.82,3.35a.23.23,0,0,0-.28.1L7.64,5l0,0a.24.24,0,0,0,.08.31l1,.75A3.24,3.24,0,0,0,8.7,7l-1,.75A.23.23,0,0,0,7.64,8l.9,1.52a.26.26,0,0,0,.28.1l1.12-.46a2.64,2.64,0,0,0,.76.44l.17,1.19a.22.22,0,0,0,.23.19h1.84a.21.21,0,0,0,.22-.19l.17-1.19a2.9,2.9,0,0,0,.76-.44l1.12.46a.25.25,0,0,0,.28-.1L16.35,8a.22.22,0,0,0,0-.31ZM12,7.85a1.35,1.35,0,1,1,0-2.7s0,0,0,0a1.33,1.33,0,0,1,1.33,1.34A1.35,1.35,0,0,1,12,7.85Z"/><path d="M19.75,20H10L7,19l1.9,1.5,1.28,1.13a2.63,2.63,0,0,0,1.35.37h8.27a1,1,0,0,0,0-2Z"/><path d="M5.36,15.28,3.58,13.83a.5.5,0,1,1,.64-.77l1.89,1.55L9.6,17.45v0a2.5,2.5,0,0,1-.93-1.93A2.45,2.45,0,0,1,9,14.35L5.48,11.51a2.5,2.5,0,1,0-3.16,3.87l1.6,1.24L8.2,20,13,21Z"/></svg>