<svg id="Layer_1" data-name="Layer 1" xmlns="http://www.w3.org/2000/svg" viewBox="0 0 24 24"><title>service_instance</title><path d="M22.45,15A2.5,2.5,0,0,0,20,13H11a2.5,2.5,0,0,0-2.21,1.35A2.45,2.45,0,0,0,8.5,15.5,2.5,2.5,0,0,0,11,18h4V16H11a.5.5,0,0,1,0-1h9a.5.5,0,0,1,0,1v2a2.5,2.5,0,0,0,2.45-2,2.52,2.52,0,0,0,0-1Z"/><path d="M19.75,20H10L7,19l1.9,1.5,1.28,1.13a2.63,2.63,0,0,0,1.35.37h8.27a1,1,0,0,0,0-2Z"/><path d="M5.36,15.28,3.58,13.83a.5.5,0,1,1,.64-.77l1.89,1.55L9.6,17.45v0a2.5,2.5,0,0,1-.93-1.93A2.45,2.45,0,0,1,9,14.35L5.48,11.51a2.5,2.5,0,1,0-3.16,3.87l1.6,1.24L8.2,20,13,21Z"/><path d="M8.43,1H20L14.2,11Zm8.08,2H11.89L14.2,7Z"/></svg>