<svg id="Layer_2" data-name="Layer 2" xmlns="http://www.w3.org/2000/svg" viewBox="0 0 24 24"><path d="M6,19.00067h5V23L8.5,21.503,6,23ZM8,4.99933H6V6.999H8ZM8,9.9985H6v1.99967H8Zm0,4.99917H6v1.99966H8Zm14-11.998V18.997a2.00574,2.00574,0,0,1-2,1.99966H17v1.99967l-2.5-1.49975L12,22.99633V1h8a1.42158,1.42158,0,0,1,.36.04A1.99649,1.99649,0,0,1,22,2.99967Zm-6,11.998H14v1.99966h2ZM16,9.9985H14v1.99967h2Zm0-4.99917H14V6.999h2ZM4,1A2.00574,2.00574,0,0,0,2,2.99967V18.997a2.0057,2.0057,0,0,0,2,1.99966V2.99967h7.00281V1Z"/></svg>