<?xml version="1.0" encoding="utf-8"?>
<!-- Generator: Adobe Illustrator 22.1.0, SVG Export Plug-In . SVG Version: 6.00 Build 0)  -->
<svg version="1.1" id="Layer_1" xmlns="http://www.w3.org/2000/svg" xmlns:xlink="http://www.w3.org/1999/xlink" x="0px" y="0px"
	 viewBox="0 0 24 24" style="enable-background:new 0 0 24 24;" xml:space="preserve">
<style type="text/css">
	.st0{opacity:0.4;}
	.st1{clip-path:url(#SVGID_2_);}
	.st2{fill:none;stroke:#000000;stroke-width:0.25;stroke-miterlimit:10;}
</style>
<symbol  id="material_x5F_product_x5F_icon_x5F_keylines" viewBox="0 -192 192 192">
	<g class="st0">
		<defs>
			<path id="SVGID_1_" class="st0" d="M0,0v-192h192V0H0z"/>
		</defs>
		<clipPath id="SVGID_2_">
			<use xlink:href="#SVGID_1_"  style="overflow:visible;"/>
		</clipPath>
		<g class="st1">
			<line class="st2" x1="0.2" y1="-0.2" x2="191.7" y2="-191.7"/>
			<g>
				<path d="M191.8-0.3v-191.5H0.3V-0.3H191.8 M192,0H0v-192h192V0L192,0z"/>
			</g>
			<line class="st2" x1="191.7" y1="-0.2" x2="0.2" y2="-191.7"/>
			<line class="st2" x1="124" y1="0" x2="124" y2="-192"/>
			<line class="st2" x1="68" y1="0" x2="68" y2="-192"/>
			<line class="st2" x1="192" y1="-124" x2="0" y2="-124"/>
			<line class="st2" x1="192" y1="-68" x2="0" y2="-68"/>
			<circle class="st2" cx="96" cy="-96" r="40"/>
			<line class="st2" x1="0" y1="-96" x2="192" y2="-96"/>
			<line class="st2" x1="96" y1="0" x2="96" y2="-192"/>
		</g>
		<g class="st1">
			<g>
				<path d="M96-8.3c48.4,0,87.8-39.4,87.8-87.8s-39.4-87.8-87.8-87.8S8.3-144.4,8.3-96S47.6-8.3,96-8.3 M96-8C47.4-8,8-47.4,8-96
					s39.4-88,88-88s88,39.4,88,88S144.6-8,96-8L96-8z"/>
			</g>
		</g>
		<g class="st1">
			<g>
				<path d="M160-20.3c6.5,0,11.8-5.3,11.8-11.8v-128c0-6.5-5.3-11.8-11.8-11.8H32c-6.5,0-11.8,5.3-11.8,11.8v128
					c0,6.5,5.3,11.8,11.8,11.8H160 M160-20H32c-6.6,0-12-5.4-12-12v-128c0-6.6,5.4-12,12-12h128c6.6,0,12,5.4,12,12v128
					C172-25.4,166.6-20,160-20L160-20z"/>
			</g>
		</g>
		<g class="st1">
			<g>
				<path d="M148-8.3c6.5,0,11.8-5.3,11.8-11.8v-152c0-6.5-5.3-11.8-11.8-11.8H44c-6.5,0-11.8,5.3-11.8,11.8v152
					c0,6.5,5.3,11.8,11.8,11.8H148 M148-8H44c-6.6,0-12-5.4-12-12v-152c0-6.6,5.4-12,12-12h104c6.6,0,12,5.4,12,12v152
					C160-13.4,154.6-8,148-8L148-8z"/>
			</g>
		</g>
		<g class="st1">
			<g>
				<path d="M172-32.3c6.5,0,11.8-5.3,11.8-11.8v-104c0-6.5-5.3-11.8-11.8-11.8H20c-6.5,0-11.8,5.3-11.8,11.8v104
					c0,6.5,5.3,11.8,11.8,11.8H172 M172-32H20c-6.6,0-12-5.4-12-12v-104c0-6.6,5.4-12,12-12h152c6.6,0,12,5.4,12,12v104
					C184-37.4,178.6-32,172-32L172-32z"/>
			</g>
		</g>
	</g>
</symbol>
<use xlink:href="#material_x5F_product_x5F_icon_x5F_keylines"  width="192" height="192" x="0" y="-192" transform="matrix(0.125 0 0 -0.125 9.131109e-04 4.650943e-05)" style="display:none;overflow:visible;"/>
<rect x="21" y="10" width="2" height="4"/>
<rect x="1" y="10" width="2" height="4"/>
<path d="M16,17c1.1,0,2-0.9,2-2v0c1.1,0,2-0.9,2-2v-2c0-1.1-0.9-2-2-2v0c0-1.1-0.9-2-2-2H8C6.9,7,6,7.9,6,9v0c-1.1,0-2,0.9-2,2v2
	c0,1.1,0.9,2,2,2v0c0,1.1,0.9,2,2,2h1l1-2c0.8-1.3,3.2-1.3,4,0l1,2 M17,12H7v-2h10V12z"/>
</svg>
