<svg id="Layer_1" data-name="Layer 1" xmlns="http://www.w3.org/2000/svg" viewBox="0 0 24 24"><title>volume</title><path d="M17,2H7A2,2,0,0,0,5,4V20a2,2,0,0,0,2,2H17a2,2,0,0,0,2-2V4A2,2,0,0,0,17,2ZM8,20a1,1,0,1,1,1-1A1,1,0,0,1,8,20ZM12.77,14A4.9,4.9,0,0,1,12,14a5,5,0,1,1,5-5,4.71,4.71,0,0,1-.09.85c0,.12,0,.24-.07.35s-.08.26-.12.39a5.31,5.31,0,0,1-.45,1l-.13-.08-.73-.42a3.93,3.93,0,0,0,.36-.78c0-.11.07-.21.1-.32l.06-.27A3.94,3.94,0,0,0,16,9a4,4,0,1,0-4,4,4.2,4.2,0,0,0,.62-.06l.44-.1.23.83,0,.13A4.88,4.88,0,0,1,12.77,14ZM13,9a1,1,0,1,1-1-1A1,1,0,0,1,13,9Zm4.44,5.1-.94.73-.94.72a.39.39,0,0,1-.56-.23l-1-2.4-.75-1.8a.32.32,0,0,1,.5-.38l1.55,1.18,2.06,1.58A.39.39,0,0,1,17.44,14.12Z"/></svg>