<svg id="Layer_2" data-name="Layer 2" xmlns="http://www.w3.org/2000/svg" viewBox="0 0 24 24"><defs><style>.cls-1{fill:#010101;}</style></defs><path d="M6,19.02539a6.03719,6.03719,0,0,1,3.6535-5.55386,5.9041,5.9041,0,0,1,2.325-.47446H16V2.993a2.01787,2.01787,0,0,0-.01029-.20379,1.99041,1.99041,0,0,0-.03021-.1979q-.0199-.0973-.04911-.191t-.067-.18313q-.03783-.08942-.08394-.17423t-.09984-.16432q-.05373-.07951-.11473-.15342t-.12861-.14151q-.06764-.06763-.14155-.12865t-.15343-.11474q-.07953-.05371-.16433-.09982t-.17424-.08391q-.0894-.03785-.18308-.067t-.191-.04911a1.98974,1.98974,0,0,0-.19789-.03019A2.01788,2.01788,0,0,0,14.007,1H3.993a2.01758,2.01758,0,0,0-.20376.01028,1.99038,1.99038,0,0,0-.1979.03019q-.0973.01992-.191.04911t-.18309.067q-.08943.0378-.17424.08391t-.16433.09982q-.07952.05373-.15343.11474t-.14155.12865q-.0676.06761-.12861.14151t-.11473.15342q-.05373.07952-.09984.16432t-.08394.17423q-.03782.08943-.067.18313t-.04911.191a1.99041,1.99041,0,0,0-.03021.1979A2.01787,2.01787,0,0,0,2,2.993V19.007a2.01723,2.01723,0,0,0,.01029.20375,1.98956,1.98956,0,0,0,.03021.19788q.01991.0973.04911.191t.067.18312q.03783.08943.08394.17424t.09984.16433q.05373.07952.11473.15343t.12861.14155q.06763.06761.14155.12861t.15343.11473q.07953.05373.16433.09984t.17424.08394q.0894.03782.18309.067t.191.04911a1.99041,1.99041,0,0,0,.1979.03021A2.01757,2.01757,0,0,0,3.993,21H6.34222q-.08163-.2322-.14532-.47235-.06342-.24-.10743-.4874-.04376-.24725-.06661-.50117Q6.00024,19.28525,6,19.02539ZM13.07855,2.61072q.019-.04487.04214-.08741t.05009-.08245q.027-.0399.05757-.077t.06456-.071q.03392-.03393.071-.06453t.077-.05757q.0399-.027.08244-.05009t.08741-.04211q.04488-.019.0919-.03362t.09585-.02463a1.00056,1.00056,0,0,1,.09929-.01514,1.01547,1.01547,0,0,1,.20448,0,1.00056,1.00056,0,0,1,.09929.01514q.04883.01.09585.02463t.0919.03362q.04487.019.08741.04211t.08244.05009q.03989.027.077.05757t.071.06453q.03394.03394.06456.071t.05757.077q.027.0399.05009.08245t.04214.08741q.019.04485.03362.09188t.02463.09585a1.00031,1.00031,0,0,1,.01514.0993,1.01557,1.01557,0,0,1,0,.20449.99991.99991,0,0,1-.01514.09928q-.01.04883-.02463.09583t-.03362.09187q-.019.04487-.04214.08741t-.05009.08244q-.027.0399-.05757.077t-.06456.071q-.03392.03393-.071.06453t-.077.05757q-.0399.027-.08244.05009t-.08741.04211q-.04488.019-.0919.03363t-.09585.02465a.99766.99766,0,0,1-.09929.01516,1.01352,1.01352,0,0,1-.20448,0,.99766.99766,0,0,1-.09929-.01516q-.04883-.01-.09585-.02465t-.0919-.03363q-.04487-.019-.08741-.04211t-.08244-.05009q-.03989-.027-.077-.05757t-.071-.06453q-.03394-.03395-.06456-.071t-.05757-.077q-.027-.0399-.05009-.08244t-.04214-.08741q-.019-.04487-.03362-.09187t-.02463-.09583a.99991.99991,0,0,1-.01514-.09928,1.01557,1.01557,0,0,1,0-.20449,1.00031,1.00031,0,0,1,.01514-.0993q.01-.04884.02463-.09585T13.07855,2.61072Zm-10,0q.019-.04487.04214-.08741t.05009-.08245q.027-.0399.05757-.077t.06456-.071q.03391-.03393.071-.06453t.077-.05757q.0399-.027.08244-.05009t.08741-.04211q.04488-.019.0919-.03362t.09585-.02463a1.00056,1.00056,0,0,1,.09929-.01514,1.01547,1.01547,0,0,1,.20448,0,1.00056,1.00056,0,0,1,.09929.01514q.04882.01.09585.02463t.0919.03362q.04487.019.08741.04211t.08244.05009q.03989.027.077.05757t.071.06453q.03395.03394.06456.071t.05757.077q.027.0399.05009.08245t.04214.08741q.019.04485.03362.09188t.02463.09585a1.00031,1.00031,0,0,1,.01514.0993,1.01557,1.01557,0,0,1,0,.20449.99991.99991,0,0,1-.01514.09928q-.01.04883-.02463.09583t-.03362.09187q-.019.04487-.04214.08741t-.05009.08244q-.027.0399-.05757.077t-.06456.071q-.03392.03393-.071.06453t-.077.05757q-.0399.027-.08244.05009t-.08741.04211q-.04488.019-.0919.03363t-.09585.02465a.99766.99766,0,0,1-.09929.01516,1.01352,1.01352,0,0,1-.20448,0,.99766.99766,0,0,1-.09929-.01516q-.04882-.01-.09585-.02465t-.0919-.03363q-.04487-.019-.08741-.04211t-.08244-.05009q-.03988-.027-.077-.05757t-.071-.06453q-.03395-.03395-.06456-.071t-.05757-.077q-.027-.0399-.05009-.08244t-.04214-.08741q-.019-.04487-.03362-.09187T3.0203,3.20152a.99991.99991,0,0,1-.01514-.09928,1.01557,1.01557,0,0,1,0-.20449,1.00031,1.00031,0,0,1,.01514-.0993q.01-.04884.02463-.09585T3.07855,2.61072Zm1.8429,16.7785q-.019.04486-.04214.08741t-.05009.08244q-.027.0399-.05757.077t-.06456.071q-.03392.03393-.071.06453t-.077.05757q-.0399.027-.08244.05009t-.08741.04211q-.04488.019-.0919.03363t-.09585.02465a.99766.99766,0,0,1-.09929.01516,1.01352,1.01352,0,0,1-.20448,0,.99766.99766,0,0,1-.09929-.01516q-.04882-.01-.09585-.02465t-.0919-.03363q-.04487-.019-.08741-.04211t-.08244-.05009q-.03988-.027-.077-.05757t-.071-.06453q-.03395-.03394-.06456-.071t-.05757-.077q-.027-.0399-.05009-.08244t-.04214-.08741q-.019-.04487-.03362-.09187t-.02463-.09583a.99991.99991,0,0,1-.01514-.09928,1.01557,1.01557,0,0,1,0-.20449,1.00031,1.00031,0,0,1,.01514-.0993q.01-.04884.02463-.09585t.03362-.09188q.019-.04487.04214-.08741t.05009-.08245q.027-.0399.05757-.077t.06456-.071q.03391-.03393.071-.06453t.077-.05757q.0399-.027.08244-.05009t.08741-.04211q.04488-.019.0919-.03362t.09585-.02463a1.00056,1.00056,0,0,1,.09929-.01514,1.01547,1.01547,0,0,1,.20448,0,1.00056,1.00056,0,0,1,.09929.01514q.04882.01.09585.02463t.0919.03362q.04487.019.08741.04211t.08244.05009q.03989.027.077.05757t.071.06453q.03395.03394.06456.071t.05757.077q.027.0399.05009.08245t.04214.08741q.019.04485.03362.09188t.02463.09585a1.00031,1.00031,0,0,1,.01514.0993,1.01557,1.01557,0,0,1,0,.20449.99991.99991,0,0,1-.01514.09928q-.01.04883-.02463.09583T4.92145,19.38922ZM5.06989,10.005h-.645q-.0253-.05763-.04924-.116t-.04649-.11736q-.02254-.059-.04369-.11874t-.04082-.12009q-.01968-.06036-.03789-.12137t-.0349-.12265q-.0167-.06163-.03185-.12389t-.02872-.12507q-.01361-.06285-.0256-.12627t-.02238-.1274q-.01038-.064-.0191-.12849t-.01575-.12956q-.007-.065-.01235-.13057T4.00719,8.266q-.00357-.066-.00538-.13254T4,8a5.0586,5.0586,0,0,1,.02581-.51122,4.99249,4.99249,0,0,1,.07577-.49646q.04995-.24411.12321-.47917.07305-.23484.16815-.45938.09488-.22433.21054-.43708.11547-.21254.25046-.41225.13478-.19949.28783-.3849.15285-.1852.32271-.35506.16965-.16968.35506-.32273.18519-.15285.3849-.28785.1995-.13477.41225-.25045.21255-.11547.43708-.21057.22432-.09486.45938-.16812.23485-.073.47917-.12319a4.99248,4.99248,0,0,1,.49646-.07576,5.07579,5.07579,0,0,1,1.02244,0,4.99248,4.99248,0,0,1,.49646.07576q.24411.04995.47917.12319.23484.07305.45938.16812.22433.09491.43708.21057.21254.11547.41225.25045.19948.13479.3849.28785.1852.15285.35506.32273.16965.16965.32271.35506.15283.18519.28783.3849.13479.1995.25046.41225.11545.21255.21054.43708.09489.22432.16815.45938.07305.23485.12321.47917a4.99249,4.99249,0,0,1,.07577.49646,5.07579,5.07579,0,0,1,0,1.02244,4.99249,4.99249,0,0,1-.07577.49646q-.05.24411-.12321.47917-.07305.23484-.16815.45938-.09488.2243-.21054.437-.11547.21254-.25046.41225-.13477.19952-.28783.38493-.15285.1852-.32271.35506-.16965.16965-.35506.32271-.18519.15283-.3849.28783-.1995.13479-.41225.25046-.21255.11545-.43708.21054-.22433.09486-.45938.16812-.23485.07305-.47917.12322a4.98958,4.98958,0,0,1-.49646.07578A5.05859,5.05859,0,0,1,9,13q-.06658,0-.13271-.00178t-.1318-.00529q-.06567-.00352-.13086-.00877t-.1299-.01218Q8.41,12.965,8.34584,12.95645T8.218,12.93764q-.06364-.01023-.12674-.02205t-.12563-.02521q-.06253-.01341-.12448-.02837t-.1233-.03144q-.06135-.01648-.12208-.03447t-.1208-.03743q-.06009-.01944-.11952-.04031t-.11819-.04316q-.05877-.02228-.11684-.04595T7.005,12.58057V10.005H5.06989Z"/><path d="M7.59583,9.41418q.06786.06787.142.12909t.154.11513q.07979.05391.16488.10019t.17482.08424q.08975.038.18377.06725t.19168.04929a1.99419,1.99419,0,0,0,.19857.0303,2.029,2.029,0,0,0,.409,0,1.99419,1.99419,0,0,0,.19857-.0303q.09765-.02.19168-.04929t.18377-.06725q.08973-.038.17482-.08424t.16488-.10019q.0798-.05391.154-.11513t.142-.12909q.06788-.06786.1291-.142t.11514-.154q.05392-.0798.10019-.1649t.08422-.17485q.03795-.08972.06725-.18374t.04929-.19165a1.99464,1.99464,0,0,0,.0303-.19857,2.02928,2.02928,0,0,0,0-.409,1.99459,1.99459,0,0,0-.0303-.19859q-.02-.09765-.04929-.19166t-.06725-.18374q-.03794-.08974-.08422-.17485t-.10019-.16491q-.05391-.0798-.11514-.154t-.1291-.142q-.06786-.06786-.142-.12908t-.154-.11512q-.07978-.05391-.16488-.10017t-.17482-.08421q-.08974-.03795-.18377-.06725t-.19168-.04929a1.99419,1.99419,0,0,0-.19857-.0303,2.029,2.029,0,0,0-.409,0,1.99419,1.99419,0,0,0-.19857.0303q-.09765.02-.19168.04929t-.18377.06725q-.08973.03794-.17482.08421t-.16488.10017q-.0798.0539-.154.11512t-.142.12908q-.06787.06787-.1291.142t-.11514.154q-.05392.0798-.10019.16491t-.08422.17485q-.038.08972-.06725.18374t-.04929.19166a1.99459,1.99459,0,0,0-.0303.19859,2.02928,2.02928,0,0,0,0,.409,1.99464,1.99464,0,0,0,.0303.19857q.02.09764.04929.19165t.06725.18374q.03794.08975.08422.17485t.10019.1649q.05391.0798.11514.154T7.59583,9.41418Z"/><path class="cls-1" d="M13.00055,17.98713H17.022V20.028H13.00055V17.98713ZM18.02173,15h-2.0166v1.99841h2.0166a1.953,1.953,0,0,1,1.39823.58578,2.00575,2.00575,0,0,1,.42443.64324,2.08929,2.08929,0,0,1,.15573.7977,1.96925,1.96925,0,0,1-.58016,1.397,1.97331,1.97331,0,0,1-1.39823.5795h-2.0166V23h2.0166a3.94707,3.94707,0,0,0,2.81159-1.17186,4.01132,4.01132,0,0,0,.8535-1.27855A4.07369,4.07369,0,0,0,22,18.97487a3.9496,3.9496,0,0,0-.31318-1.54566A3.97912,3.97912,0,0,0,18.02173,15ZM9.99988,18.97487a1.96925,1.96925,0,0,1,.58016-1.397,1.97331,1.97331,0,0,1,1.39823-.5795h2.02222V15H11.97827a3.947,3.947,0,0,0-2.81178,1.17186,4.011,4.011,0,0,0-.85338,1.27855A4.0742,4.0742,0,0,0,8,19.02513a3.96083,3.96083,0,0,0,1.16649,2.80929A3.96758,3.96758,0,0,0,11.97827,23h2.02222V21.00159H11.97827A1.953,1.953,0,0,1,10.58,20.41581a2.00575,2.00575,0,0,1-.42443-.64324A2.08929,2.08929,0,0,1,9.99988,18.97487Z"/></svg>