<svg id="Layer_1" data-name="Layer 1" xmlns="http://www.w3.org/2000/svg" viewBox="0 0 24 24"><title>volume</title><path d="M17,2H7A2,2,0,0,0,5,4V20a2,2,0,0,0,2,2H17a2,2,0,0,0,2-2V4A2,2,0,0,0,17,2ZM8,20a1,1,0,1,1,1-1A1,1,0,0,1,8,20Zm4-6a5.06,5.06,0,1,1,4.27-2.44l-.13-.08-.73-.42A3.93,3.93,0,0,0,16,9a4,4,0,1,0-4,4,4.12,4.12,0,0,0,1.06-.16l.23.83,0,.13A4.79,4.79,0,0,1,12,14Zm1-5a1,1,0,1,1-1-1A1,1,0,0,1,13,9Zm4.44,5.12-.94.73-.94.72a.39.39,0,0,1-.56-.23l-1-2.4-.75-1.8a.32.32,0,0,1,.5-.38l1.55,1.18,2.06,1.58A.39.39,0,0,1,17.44,14.12Z"/></svg>