<svg id="Layer_2" data-name="Layer 2" xmlns="http://www.w3.org/2000/svg" viewBox="0 0 24 24"><path d="M12.01,7a1.99374,1.99374,0,1,0,.77848.15716A1.99373,1.99373,0,0,0,12.01,7Z"/><path d="M17.007,2H6.993A1.99138,1.99138,0,0,0,5,3.993V20.007A1.99142,1.99142,0,0,0,6.993,22H17.007A1.99142,1.99142,0,0,0,19,20.007V3.993A1.99139,1.99139,0,0,0,17.007,2ZM7,3a.99692.99692,0,1,1-.38925.07858A.99686.99686,0,0,1,7,3ZM7,21a.99689.99689,0,1,1,.38925-.07859A.99669.99669,0,0,1,7,21Zm5-7a4.928,4.928,0,0,1-1.03437-.10963,4.9933,4.9933,0,0,1-.49066-.13167q-.24034-.07774-.47-.17813V11.005H7.42487q-.10119-.23048-.18023-.47213a5.00391,5.00391,0,0,1-.1334-.493A4.91306,4.91306,0,0,1,7,9a5.00275,5.00275,0,1,1,5,5Zm5,7a.99689.99689,0,1,1,.38925-.07859A.99669.99669,0,0,1,17,21ZM17,5a.99689.99689,0,1,1,.38925-.07859A.99669.99669,0,0,1,17,5Z"/></svg>