<?xml version="1.0" encoding="utf-8"?>
<!-- Generator: Adobe Illustrator 24.0.1, SVG Export Plug-In . SVG Version: 6.00 Build 0)  -->
<svg version="1.1" id="Layer_1" xmlns="http://www.w3.org/2000/svg" xmlns:xlink="http://www.w3.org/1999/xlink" x="0px" y="0px"
	 viewBox="0 0 24 24" style="enable-background:new 0 0 24 24;" xml:space="preserve">
<title>volume</title>
<path d="M17,2H7C5.9,2,5,2.9,5,4v16c0,1.1,0.9,2,2,2h10c1.1,0,2-0.9,2-2V4C19,2.9,18.1,2,17,2z M8,20c-0.6,0-1-0.4-1-1s0.4-1,1-1
	s1,0.4,1,1S8.6,20,8,20z M16.7,10.6c-0.1,0.3-0.3,0.7-0.5,1l-0.1-0.1l-0.7-0.4c0.1-0.2,0.3-0.5,0.3-0.7C15.9,9.9,16,9.5,16,9
	c0-2.2-1.8-4-4-4S8,6.8,8,9s1.8,4,4,4c0.2,0,0.4,0,0.6-0.1l0.4-0.1l0.2,0.8v0.1c-0.2,0.1-0.3,0.1-0.5,0.2c-0.3,0-0.5,0-0.8,0
	c-0.9,0-1.7-0.2-2.4-0.6C8,12.5,7,10.9,7,9c0-2.8,2.2-5,5-5s5,2.2,5,5c0,0.3,0,0.6-0.1,0.9 M13,9c0,0.6-0.4,1-1,1s-1-0.4-1-1
	s0.4-1,1-1S13,8.4,13,9z M17.4,14.1l-0.9,0.7l-0.9,0.7c-0.2,0.1-0.4,0-0.5-0.2c0,0,0,0,0-0.1l-1-2.4l-0.8-1.8
	c-0.1-0.2,0-0.4,0.1-0.4c0.1-0.1,0.3,0,0.4,0l1.6,1.2l2.1,1.6C17.5,13.6,17.6,13.8,17.4,14.1C17.5,14.1,17.5,14.1,17.4,14.1
	L17.4,14.1z"/>
</svg>
