<?xml version="1.0" encoding="utf-8"?>
<!-- Generator: Adobe Illustrator 25.0.1, SVG Export Plug-In . SVG Version: 6.00 Build 0)  -->
<svg version="1.1" id="Layer_1" xmlns="http://www.w3.org/2000/svg" xmlns:xlink="http://www.w3.org/1999/xlink" x="0px" y="0px"
	 viewBox="0 0 24 24" style="enable-background:new 0 0 24 24;" xml:space="preserve">
<style type="text/css">
	.st0{fill:none;stroke:#000000;stroke-miterlimit:10;}
</style>
<path class="st0" d="M21.7,11l-4-7c-0.4-0.6-1-1-1.7-1H8C7.3,3,6.6,3.4,6.3,4l-4,7c-0.4,0.6-0.4,1.4,0,2l4,7c0.4,0.6,1,1,1.7,1h8
	c0.7,0,1.4-0.4,1.7-1l4-7C22.1,12.4,22.1,11.6,21.7,11z M12,12.6c0-2.2-1.8-4-4-4c-1,0-2,0.4-2.7,1L8,5h8l0.1,0.3
	c0,0.1,0.1,0.1,0.1,0.2l3.5,6.1c0.1,0.2,0.1,0.3,0.2,0.5l-2.6,4.7c-0.4,0.2-0.9,0.2-1.4,0.2c-2.2,0-3.9-1.7-4-3.9v-0.1"/>
</svg>
