<svg xmlns="http://www.w3.org/2000/svg" viewBox="0 0 24 24"><rect x="4.01706" y="5.98379" width="16" height="2"/><rect x="6.01706" y="1.98477" width="12" height="2"/><path d="M20.0101,9.97573H4.01657a2.008,2.008,0,0,0-2.00324,2.01264v7.97479a2.00792,2.00792,0,0,0,2.00324,2.01263H20.0101a2.008,2.008,0,0,0,2.00323-2.01263V11.98837A2.008,2.008,0,0,0,20.0101,9.97573Zm.00323,10.009h-16v-8h16Z"/><polygon points="11.017 18.976 13.017 18.976 13.017 16.987 15.017 16.987 15.017 14.983 13.017 14.983 13.017 12.976 11.017 12.976 11.017 14.986 9.017 14.986 9.017 16.987 11.017 16.987 11.017 18.976"/></svg>