<svg xmlns="http://www.w3.org/2000/svg" viewBox="0 0 24 24"><path d="M7.30481,9h-1.621L3.5,15H5.10345l.44605-1.22559H7.439L7.88513,15H9.48859ZM5.91345,12.77441l.58081-1.59576.58081,1.59576Z"/><path d="M14.74432,9h-3.5v6h1.5V13h2a1.47321,1.47321,0,0,0,1.5-1.5v-1A1.47325,1.47325,0,0,0,14.74432,9Zm0,2.5h-2v-1h2Z"/><rect x="17.99976" y="9" width="1.5" height="6"/><path d="M21.80911,6.19089V17.80911H2.19089V6.19089H21.80911M22,4H2A2,2,0,0,0,0,6V18a2,2,0,0,0,2,2H22a2,2,0,0,0,2-2V6a2,2,0,0,0-2-2Z"/></svg>