<svg xmlns="http://www.w3.org/2000/svg" viewBox="0 0 24 24"><path d="M1.00925,3.00749,1,5H23l-.00908-1.99251A1.99986,1.99986,0,0,0,21,1H3A1.99971,1.99971,0,0,0,1.00925,3.00749ZM4.00669,4.00758a.99917.99917,0,1,1,.99916-.99917A.99919.99919,0,0,1,4.00669,4.00758Zm2.99756-.00092a.99917.99917,0,1,1,.99917-.99916A1.00212,1.00212,0,0,1,7.00425,4.00666Z"/><path d="M1,6V20a2.0006,2.0006,0,0,0,2,2H21a2.00644,2.00644,0,0,0,2-2.00671V6ZM21,19a1,1,0,0,1-1,1H4a1,1,0,0,1-1-1V8H21Z"/><path d="M12,10a4,4,0,1,0,4,4H12Z"/></svg>