<svg xmlns="http://www.w3.org/2000/svg" viewBox="0 0 24 24"><polygon points="18.5 9 13 3.5 13 9 18.5 9"/><path d="M14,2H6A2,2,0,0,0,4,4V20a2,2,0,0,0,2,2H18a2,2,0,0,0,2-2V8Zm5,16v3H5V3h8.75L19,8.4Z"/><path d="M15.65375,16.32l-1.07-.83a3.8825,3.8825,0,0,0,.04-.49,2.62581,2.62581,0,0,0-.04-.49l1.06-.83a.25964.25964,0,0,0,.06-.32l-1-1.73a.25362.25362,0,0,0-.31-.11l-1.24.5a3.41983,3.41983,0,0,0-.85-.49005l-.18994-1.32a.23884.23884,0,0,0-.24005-.21h-2a.25675.25675,0,0,0-.25.21l-.19,1.32a3.99506,3.99506,0,0,0-.85.49005l-1.24-.5a.26192.26192,0,0,0-.31.11l-1,1.73a.24754.24754,0,0,0,.06.32l1.06.83a4.01385,4.01385,0,0,0,0,.98l-1.06.83a.25961.25961,0,0,0-.06.32l1,1.73a.25362.25362,0,0,0,.31.11l1.24-.5a3.42052,3.42052,0,0,0,.85.49l.19,1.32a.249.249,0,0,0,.25.21h2a.25677.25677,0,0,0,.25-.21l.19-1.32a3.69471,3.69471,0,0,0,.84-.49l1.25.5a.26192.26192,0,0,0,.31-.11l1-1.73A.25969.25969,0,0,0,15.65375,16.32Zm-4.78.18a1.5,1.5,0,1,1,1.5-1.5A1.498,1.498,0,0,1,10.87373,16.5Z"/><circle cx="10.87248" cy="15" r="0.5"/></svg>