<svg xmlns="http://www.w3.org/2000/svg" viewBox="0 0 24 24"><path d="M20.00311,9.986H18.5119L13.21008,6.555A1.95745,1.95745,0,0,0,14,5a2.03035,2.03035,0,0,0-1-1.72119V2H12V4a1,1,0,1,1-1,1H10a1.95767,1.95767,0,0,0,.79565,1.55981L5.50128,9.986H3.99689A1.99685,1.99685,0,0,0,2,11.98291v8.02295a1.9969,1.9969,0,0,0,1.99689,1.99689H19.99628A2.00372,2.00372,0,0,0,22,19.999V11.98291A1.99685,1.99685,0,0,0,20.00311,9.986Zm-8.0083-3.01153L12,6.975l.0166-.00165L16.67206,9.986H7.34113ZM20,20H4V12H20Z"/><path d="M14,19a1,1,0,0,0,1-1V14a1,1,0,0,0-2,0v4A1,1,0,0,0,14,19Z"/><path d="M18,19a1,1,0,0,0,1-1V14a1,1,0,0,0-2,0v4A1,1,0,0,0,18,19Z"/><path d="M6,19a1,1,0,0,0,1-1V14a1,1,0,0,0-2,0v4A1,1,0,0,0,6,19Z"/><path d="M10,19a1,1,0,0,0,1-1V14a1,1,0,0,0-2,0v4A1,1,0,0,0,10,19Z"/></svg>