<svg xmlns="http://www.w3.org/2000/svg" viewBox="0 0 24 24"><path d="M20,10H18.5L13.21008,6.5A1.85387,1.85387,0,0,0,14,5a2.03073,2.03073,0,0,0-1-1.72137V2H12V4a.99973.99973,0,1,1-1,1H10a1.84576,1.84576,0,0,0,.79565,1.5L5.50128,9.98493,4,10a2.00228,2.00228,0,0,0-2,2v8a2.00231,2.00231,0,0,0,2,2H20a1.99746,1.99746,0,0,0,2-2V12A2.00228,2.00228,0,0,0,20,10ZM12,7h0c.00568,0,.01093-.02723.0166-.02729L16.67206,10,7.34113,9.98493Zm8,13H4V12H20Z"/><path d="M14,19a1,1,0,0,0,1-1V14a1,1,0,0,0-2,0v4A1,1,0,0,0,14,19Z"/><path d="M18,19a1,1,0,0,0,1-1V14a1,1,0,0,0-2,0v4A1,1,0,0,0,18,19Z"/><path d="M6,19a1,1,0,0,0,1-1V14a1,1,0,0,0-2,0v4A1,1,0,0,0,6,19Z"/><path d="M10,19a1,1,0,0,0,1-1V14a1,1,0,0,0-2,0v4A1,1,0,0,0,10,19Z"/></svg>