<svg xmlns="http://www.w3.org/2000/svg" viewBox="0 0 24 24"><path d="M20.00311,9.98493H18.5119L13.21008,6.55437A1.95712,1.95712,0,0,0,14,4.99959a2.03,2.03,0,0,0-1-1.721V2H12V3.99973a.99986.99986,0,1,1-1,.99986H10a1.95733,1.95733,0,0,0,.79565,1.5596L5.50128,9.98493H3.99689A1.99672,1.99672,0,0,0,2,11.98154v8.02185A1.99676,1.99676,0,0,0,3.99689,22H19.99628A2.00358,2.00358,0,0,0,22,19.99655v-8.015A1.99672,1.99672,0,0,0,20.00311,9.98493ZM11.99481,6.9738,12,6.97435l.0166-.00164,4.65546,3.01222H7.34113ZM20,19.99753H4v-7.9989H20Z"/><path d="M14,19a1,1,0,0,0,1-1V14a1,1,0,0,0-2,0v4A1,1,0,0,0,14,19Z"/><path d="M18,19a1,1,0,0,0,1-1V14a1,1,0,0,0-2,0v4A1,1,0,0,0,18,19Z"/><path d="M6,19a1,1,0,0,0,1-1V14a1,1,0,0,0-2,0v4A1,1,0,0,0,6,19Z"/><path d="M10,19a1,1,0,0,0,1-1V14a1,1,0,0,0-2,0v4A1,1,0,0,0,10,19Z"/></svg>