<svg xmlns="http://www.w3.org/2000/svg" viewBox="0 0 24 24"><path d="M15.6,3l1.41,1.41L15,6a6.69146,6.69146,0,0,1,2,2h3.01v2H18s.01.66.01,1v1h2v2h-2v1c0,.34-.01,1-.01,1h2.01v2H17A5.66666,5.66666,0,0,1,7,18H4.01V16H6s.01-.66.01-1V14h-2V12h2V11c0-.34-.01-1-.01-1H4.01V8H7A6.80839,6.80839,0,0,1,9,6L7.01,4.41,8.42,3,10.6,5.17A5.91943,5.91943,0,0,1,12.01,5a6.06615,6.06615,0,0,1,1.42.17L15.6,3M11.01,13.99011h2v-6h-2v6m0,4h2v-2h-2v2M16,0,12.73788,2.88356q-.36456-.03385-.72788-.03391-.36139,0-.72191.03325L8,0,4,4,5.77052,5.8722H2.01V19.97745H5.77436a7.94344,7.94344,0,0,0,12.47126,0H22.01V5.8722H18.2484L20,4"/></svg>