<svg xmlns="http://www.w3.org/2000/svg" viewBox="0 0 24 24"><path d="M15.59317,3,17.0025,4.41,15,6a6.69318,6.69318,0,0,1,2,2h3v2H18v2h2v2H18l-.008,2H20v2H17A5.66667,5.66667,0,0,1,7,18H4V16H6V14H4V12H6V10H4V8H7A6.81005,6.81005,0,0,1,9,6L7.0075,4.41,8.41676,3l2.17891,2.17A5.872,5.872,0,0,1,12,5a6.1026,6.1026,0,0,1,1.42427.17L15.59317,3M11,14h2V8H11v6m0,4h2V16H11l.0055,2M16,0,12.73251,2.88356C12.4896,2.861,12.24177,2.84965,12,2.84965c-.24081,0-.47664.01112-.71655.03325L8,0,4,4,6,6H2V20H6a7.5,7.5,0,0,0,12,0h4V6H18l2-2"/></svg>