<svg xmlns="http://www.w3.org/2000/svg" viewBox="0 0 24 24"><path d="M19.03326,17.17263h1.3823l-2.41449-2.41449-2.41449,2.41449h1.38833A3.39467,3.39467,0,0,1,14.657,20.92112a3.621,3.621,0,0,0,4.37626-3.74849Z"/><path d="M5.97619,12C3.5638,12,1,12.64248,1,13.83333v7.33334C1,22.35752,3.5638,23,5.97619,23s4.97619-.64248,4.97619-1.83333V13.83333C10.95238,12.64248,8.38858,12,5.97619,12Zm0,8.38095c-2.75869,0-4.45238-.76266-4.45238-1.30952v-.71615a8.55474,8.55474,0,0,0,4.45238.978,8.55474,8.55474,0,0,0,4.45238-.978v.71615C10.42857,19.61829,8.73489,20.381,5.97619,20.381Zm0-2.09524c-2.75869,0-4.45238-.76266-4.45238-1.30952v-.7164a8.5521,8.5521,0,0,0,4.45238.97831,8.5521,8.5521,0,0,0,4.45238-.97831v.7164C10.42857,17.52305,8.73489,18.28571,5.97619,18.28571Zm4.45238,2.881c0,.54683-1.69368,1.30952-4.45238,1.30952s-4.45238-.76267-4.45238-1.30952v-.71615a8.55474,8.55474,0,0,0,4.45238.978,8.55474,8.55474,0,0,0,4.45238-.978ZM5.97619,16.19048c-2.75869,0-4.45238-.76267-4.45238-1.30953V13.83333c0-.54685,1.69369-1.30952,4.45238-1.30952s4.45238.76267,4.45238,1.30952V14.881C10.42857,15.42781,8.73489,16.19048,5.97619,16.19048Z"/><path d="M18.02381,2c-2.41239,0-4.97619.64248-4.97619,1.83333v7.33334c0,1.19085,2.5638,1.83333,4.97619,1.83333S23,12.35752,23,11.16667V3.83333C23,2.64248,20.4362,2,18.02381,2Zm0,8.381c-2.7587,0-4.45238-.76266-4.45238-1.30952V8.35528a8.55474,8.55474,0,0,0,4.45238.978,8.55474,8.55474,0,0,0,4.45238-.978v.71615C22.47619,9.61829,20.7825,10.381,18.02381,10.381Zm0-2.09524c-2.7587,0-4.45238-.76266-4.45238-1.30952v-.7164a8.5521,8.5521,0,0,0,4.45238.97831,8.5521,8.5521,0,0,0,4.45238-.97831v.7164C22.47619,7.52305,20.7825,8.28571,18.02381,8.28571Zm4.45238,2.881c0,.54683-1.69369,1.30952-4.45238,1.30952s-4.45238-.76267-4.45238-1.30952v-.71615a8.55474,8.55474,0,0,0,4.45238.97805,8.55474,8.55474,0,0,0,4.45238-.97805ZM18.02381,6.19048c-2.7587,0-4.45238-.76267-4.45238-1.30953V3.83333c0-.54685,1.69368-1.30952,4.45238-1.30952s4.45238.76267,4.45238,1.30952V4.881C22.47619,5.42781,20.7825,6.19048,18.02381,6.19048Z"/></svg>