<svg xmlns="http://www.w3.org/2000/svg" viewBox="0 0 24 24"><path d="M12.07953,18H4V10H20v2.07953a6.939,6.939,0,0,1,2,.60315V9.98291A1.99685,1.99685,0,0,0,20.00311,7.986H18.5119L13.21008,4.555A1.95745,1.95745,0,0,0,14,3a2.03035,2.03035,0,0,0-1-1.72119V0H12V2a1,1,0,1,1-1,1H10a1.95767,1.95767,0,0,0,.79565,1.55981L5.50128,7.986H3.99689A1.99685,1.99685,0,0,0,2,9.98291v8.02295a1.9969,1.9969,0,0,0,1.99689,1.99689H12.08A6.32712,6.32712,0,0,1,12.07953,18ZM11.99481,4.97449,12,4.975l.0166-.00165L16.67206,7.986H7.34113Z"/><path d="M15,13.26V12a1,1,0,0,0-2,0v3.408A7.027,7.027,0,0,1,15,13.26Z"/><path d="M18,11a1,1,0,0,0-1,1v.2937A6.99364,6.99364,0,0,1,19,12,1,1,0,0,0,18,11Z"/><path d="M6,11a1,1,0,0,0-1,1v4a1,1,0,0,0,2,0V12A1,1,0,0,0,6,11Z"/><path d="M10,11a1,1,0,0,0-1,1v4a1,1,0,0,0,2,0V12A1,1,0,0,0,10,11Z"/><path d="M23.87871,20.31855l-1.06944-.82983a3.88452,3.88452,0,0,0,.03995-.48988,2.62623,2.62623,0,0,0-.03995-.48987l1.05944-.82983a.25966.25966,0,0,0,.06-.31993l-.99948-1.72958a.25346.25346,0,0,0-.30984-.11L21.38,16.01955a3.41826,3.41826,0,0,0-.84959-.48994L20.34058,14.21a.23873.23873,0,0,0-.23992-.21h-1.999a.25665.25665,0,0,0-.24987.21l-.1899,1.31964a3.9933,3.9933,0,0,0-.84953.48994l-1.23934-.49988a.26174.26174,0,0,0-.30984.11l-.99948,1.72958a.24754.24754,0,0,0,.06.31993l1.05944.82983a4.0133,4.0133,0,0,0,0,.97975l-1.05944.82983a.25962.25962,0,0,0-.06.31993l.99948,1.72958a.25345.25345,0,0,0,.30984.11l1.23934-.49989a3.41828,3.41828,0,0,0,.84953.48988l.1899,1.3197a.24887.24887,0,0,0,.24987.21h1.999a.25666.25666,0,0,0,.24987-.21l.1899-1.3197a3.69246,3.69246,0,0,0,.83959-.48988l1.24935.49989a.26173.26173,0,0,0,.30983-.11l.99948-1.72958A.25969.25969,0,0,0,23.87871,20.31855Zm-4.75753.18a1.49966,1.49966,0,1,1,1.49922-1.49966A1.49745,1.49745,0,0,1,19.12118,20.4985Z"/></svg>