<svg xmlns="http://www.w3.org/2000/svg" viewBox="0 0 24 24"><path d="M23.97089,14.81171a3.28581,3.28581,0,0,0-.27234-.94233c-.6764.67235-1.48345,1.47447-2.15979,2.14679-.47184-.469-1.035-1.02881-1.50684-1.49774.67639-.688,1.48336-1.50883,2.15979-2.19671a3.29344,3.29344,0,0,0-4.47027,4.09387c-1.01789,1.01212-2.41031,2.39549-3.42805,3.40735-.76985.87227-2.037,1.36119-.56491,2.40886,1.13125,1.50464,1.4688.306,2.42339-.51173,1.017-1.01121,2.41087-2.396,3.428-3.40733A3.28985,3.28985,0,0,0,23.97089,14.81171Z"/><path d="M16,3V1.99176a.98262.98262,0,0,0-.07843-.386A.998.998,0,0,0,15.00214,1H10.99786a.998.998,0,0,0-.91943.60571A.98262.98262,0,0,0,10,1.99176V3Z"/><path d="M15.67156,4.5l.0581.12765L15.67155,4.5h0m.32178-.5H10C8.43356,7.44618,6.56639,11.554,5,15H15.51959a5.27036,5.27036,0,0,1,3.37482-4.6261L15.99334,4ZM6.553,14c1.26282-2.77812,2.82733-6.22052,4.09083-9h4.70593c.684,1.50271,1.54755,3.40019,2.23157,4.90289A6.2403,6.2403,0,0,0,14.64459,14Z"/><path d="M6.00214,2.95825V3H8V1.99219q0-.1311.01294-.25861.01272-.12753.0368-.25152.0238-.12406.05756-.24451Q8.14081,1.117,8.18262,1H7a.99794.99794,0,0,0-.91943.60571.98107.98107,0,0,0-.07787.3525"/><path d="M4.59326,18.0542A3.80012,3.80012,0,0,1,4.44452,17H3a1.99806,1.99806,0,0,0,2,2H5a4.29553,4.29553,0,0,1-.23193-.45819A4.03132,4.03132,0,0,1,4.59326,18.0542Z"/><path d="M15.30231,16H7v1.00281A1.99806,1.99806,0,0,0,9.00043,19h3.2832l.7547-.75Z"/><polyline points="3 15 1 15 6 4 8 4"/><circle cx="12.5" cy="9.5" r="1.5"/></svg>