<svg xmlns="http://www.w3.org/2000/svg" viewBox="0 0 24 24"><path d="M23.97089,14.81171a3.28581,3.28581,0,0,0-.27234-.94233l-.53992.53669-.54.53668-.54.53674-.53991.53668-.37671-.37445-.37671-.37445-.37671-.37445-.37671-.37439.53992-.54919.54-.5492.53991-.54919.54-.54913a3.07655,3.07655,0,0,0-.94806-.29175,3.21143,3.21143,0,0,0-.98572.01715,3.3094,3.3094,0,0,0-.94805.31671,3.37688,3.37688,0,0,0-1.41895,1.38385,3.2026,3.2026,0,0,0-.32019.87055,3.14237,3.14237,0,0,0,.1507,1.79736l-1.1427,1.1358-1.1427,1.1358L14.2934,19.82294l-1.1427,1.1358a.51948.51948,0,0,0-.113.16541.46886.46886,0,0,0,0,.36822.51909.51909,0,0,0,.113.16534l.28881.287.28882.28711.28876.28705.28882.28711a.52628.52628,0,0,0,.17346.14117.49067.49067,0,0,0,.197.05225.43114.43114,0,0,0,.18762-.032.35114.35114,0,0,0,.14514-.11151l1.1427-1.13581,1.1427-1.1358,1.1427-1.1358,1.14264-1.13581a3.198,3.198,0,0,0,1.80823.14978,3.24739,3.24739,0,0,0,.87586-.31829,3.36168,3.36168,0,0,0,.78167-.58039,3.21213,3.21213,0,0,0,.60352-.83,3.26029,3.26029,0,0,0,.30688-.94233A3.33526,3.33526,0,0,0,23.97089,14.81171Z"/><path d="M16,3V1.99176a.98262.98262,0,0,0-.07843-.386A.998.998,0,0,0,15.00214,1H10.99786a.998.998,0,0,0-.91943.60571A.98262.98262,0,0,0,10,1.99176V3Z"/><path d="M15.67156,4.5l.0581.12765L15.67155,4.5h0m2.55128,5.6054.00473.01039q-.08018.039-.159.08043l.15422-.09082M15.99334,4H9.99993C8.43349,7.44618,6.56639,11.554,5,15H15.51959a5.27036,5.27036,0,0,1,3.37482-4.6261L15.99334,4ZM6.553,14c1.26282-2.77812,2.82733-6.22052,4.09083-9h4.70593c.684,1.50271,1.54755,3.40019,2.23157,4.90289q-.10044.05915-.19874.122A6.24023,6.24023,0,0,0,14.64459,14Z"/><path d="M8,3V1.99219q0-.1311.01294-.25861.01272-.12753.0368-.25152.0238-.12406.05756-.24451Q8.14081,1.117,8.18262,1H5.99786a.998.998,0,0,0-.91943.60571A.98262.98262,0,0,0,5,1.99176V3Z"/><path d="M5.14874,18.0542a3.85281,3.85281,0,0,1-.11035-.514A3.78138,3.78138,0,0,1,5,17.00293l-.75-.00073-.75-.00067-.75-.00074L2,17.00012v.00269A1.99806,1.99806,0,0,0,4.00043,19H5.55548a4.29553,4.29553,0,0,1-.23193-.45819A4.033,4.033,0,0,1,5.14874,18.0542Z"/><path d="M15.30231,16H7v1.00281A1.99806,1.99806,0,0,0,9.00043,19h3.2832l.7547-.75Z"/><polygon points="5 4 0 15 3 15 3.455 14 1.455 14 5.545 5 7.545 5 8 4 5 4"/><polygon points="7.546 5 6.546 5 2.455 14 3.455 14 7.546 5"/><circle cx="12.5" cy="9.5" r="1.5"/></svg>