<svg xmlns="http://www.w3.org/2000/svg" viewBox="0 0 24 24"><polygon points="10.78 14.626 12.083 16.6 12.862 16.6 12.862 13.4 12.083 13.4 12.083 15.383 10.78 13.4 10 13.4 10 16.6 10.78 16.6 10.78 14.626"/><polygon points="15.2 15.8 14.418 13.445 13.6 13.445 14.719 16.6 15.681 16.6 16.8 13.445 15.987 13.445 15.2 15.8"/><polygon points="8.96 15.975 7.78 15.975 7.78 15.273 8.824 15.273 8.824 14.672 7.78 14.672 7.78 14.025 8.96 14.025 8.96 13.4 7 13.4 7 16.6 8.96 16.6 8.96 15.975"/><path d="M18,8H17V6A5,5,0,0,0,7,6V8H6a2.00591,2.00591,0,0,0-2,2V20a2.00591,2.00591,0,0,0,2,2H18a2.00591,2.00591,0,0,0,2-2V10A2.00591,2.00591,0,0,0,18,8ZM9,6a3,3,0,0,1,6,0V8H9Zm9,14H6V10H18Z"/><path d="M14.8,10.8H13.29065a.4834.4834,0,0,1-.486-.35193A.27072.27072,0,0,1,12.8,10.4H11.2a.27072.27072,0,0,1-.0047.048.48333.48333,0,0,1-.4859.35193H9.2A1.16622,1.16622,0,0,0,8,12h.8a.36415.36415,0,0,1,.4-.4h1.5094a1.28584,1.28584,0,0,0,1.21436-.8h.15252a1.28578,1.28578,0,0,0,1.21436.8H14.8a.36415.36415,0,0,1,.4.4H16A1.16622,1.16622,0,0,0,14.8,10.8Z"/><path d="M9.2,19.2h1.50934a.4834.4834,0,0,1,.486.35193A.27072.27072,0,0,1,11.2,19.6h1.6a.27072.27072,0,0,1,.0047-.048.48333.48333,0,0,1,.4859-.35193H14.8A1.16622,1.16622,0,0,0,16,18h-.8a.36415.36415,0,0,1-.4.4h-1.5094a1.28584,1.28584,0,0,0-1.21436.8h-.15252a1.28578,1.28578,0,0,0-1.21436-.8H9.2a.36415.36415,0,0,1-.4-.4H8A1.16622,1.16622,0,0,0,9.2,19.2Z"/></svg>