<svg xmlns="http://www.w3.org/2000/svg" viewBox="0 0 24 24"><path d="M17.1177,15l.87888,7L6.00338,22l.87891-7H17.1177M18,14H6l-.98883,7.87543A1,1,0,0,0,6.00342,23H17.99658a1,1,0,0,0,.99225-1.12457L18,14Z"/><path d="M14,1c.55231,0,1,1.26941,1,2.83527A6.30272,6.30272,0,0,1,14.71436,5.804,5.1098,5.1098,0,0,1,17,9H15a1,1,0,0,0-2,0H11A1,1,0,0,0,9,9H7A5.10972,5.10972,0,0,1,9.28253,5.806,6.30975,6.30975,0,0,1,9,3.83527C9,2.26941,9.44769,1,10,1c.55225,0,1,1.26941,1,2.83527a7.09423,7.09423,0,0,1-.1189,1.30212,4.62618,4.62618,0,0,1,2.234-.001A7.11546,7.11546,0,0,1,13,3.83527C13,2.26941,13.44769,1,14,1m0-1c-1.47621,0-2,2.066-2,3.83527q0,.08259.00153.16473h-.00318Q12,3.91769,12,3.83527C12,2.066,11.47621,0,10,0S8,2.066,8,3.83527a8.23949,8.23949,0,0,0,.14323,1.55755A6.04023,6.04023,0,0,0,6.02444,8.78026L6,10h4v0h4v0h4l-.02444-1.21972a6.03893,6.03893,0,0,0-2.121-3.38941A8.14176,8.14176,0,0,0,16,3.83527C16,2.066,15.47621,0,14,0Z"/><polygon points="21 11 3 11 3 13 21 13 21 11 21 11"/></svg>