<svg xmlns="http://www.w3.org/2000/svg" viewBox="0 0 24.00001 24.00001"><circle cx="7.00001" cy="2" r="1"/><circle cx="3.00001" cy="6" r="1"/><circle cx="12.00001" cy="1" r="1"/><circle cx="17.00001" cy="2" r="1"/><circle cx="21.00001" cy="6" r="1"/><path d="M18,10l-6,2.5v3.9A8.12451,8.12451,0,0,0,18,24a8.12458,8.12458,0,0,0,6-7.6V12.5Zm5,6.5A6.91,6.91,0,0,1,18,23a6.91,6.91,0,0,1-5-6.5V13l5-2,5,2Z"/><circle cx="12.00001" cy="23" r="1"/><path d="M10.4,10.4a.80233.80233,0,0,0,.8-.8V8h1.6a1.60052,1.60052,0,0,0,1.5899-1.50048,6.02687,6.02687,0,0,1,2.35352,1.85717L18,7.833l1.08.45008a7.99665,7.99665,0,1,0-8.39062,11.60028,9.57041,9.57041,0,0,1-.5896-2.20185,5.96146,5.96146,0,0,1-3.99487-6.77667L9.6,14.4V15.2a1.58544,1.58544,0,0,0,.4,1.04522V12H8.8V10.4Z"/><circle cx="3.00001" cy="18" r="1"/><circle cx="7.00001" cy="22" r="1"/><circle cx="1.00001" cy="12" r="1"/></svg>