<svg id="Layer_1" data-name="Layer 1" xmlns="http://www.w3.org/2000/svg" viewBox="0 0 24 18">
  <path d="M15,4a1.00368,1.00368,0,0,0-1-1H10A1.00368,1.00368,0,0,0,9,4V5h6Z" transform="translate(0 -3)"/>
  <path d="M13.7,8l3.2,7H7.1l3.18-7h3.42217M15,6H9L4,17H20L14.99,6Z" transform="translate(0 -3)"/>
  <circle cx="12" cy="8" r="1.5"/>
  <path d="M16,18v1H8V18H6v1.00281A1.99841,1.99841,0,0,0,8,21h8a1.99845,1.99845,0,0,0,2-1.99719V18Z" transform="translate(0 -3)"/>
  <polygon points="5 8 3.5 8 3.5 5.5 0 9 3.5 12.5 3.5 10 5 10 5 8"/>
  <polygon points="24 9 20.5 5.5 20.5 8 19 8 19 10 20.5 10 20.5 12.5 24 9"/>
</svg>
