<svg id="Layer_2" data-name="Layer 2" xmlns="http://www.w3.org/2000/svg" viewBox="0 0 20 19">
  <path d="M19.75,12,17.5,11l-2.25,1L13,13v3a6.40493,6.40493,0,0,0,1.28247,3.80438A5.77647,5.77647,0,0,0,17.5,22a5.77647,5.77647,0,0,0,3.21753-2.19562A6.40493,6.40493,0,0,0,22,16V13Zm.09814,7.28687A4.7874,4.7874,0,0,1,17.5,20.965V16.5H14V13.65l1.75-.77746L17.5,12.095v4.4H21A5.80322,5.80322,0,0,1,19.84814,19.28687Z" transform="translate(-2 -3)"/>
  <path d="M13,4a1.00368,1.00368,0,0,0-1-1H8A1.00368,1.00368,0,0,0,7,4V5h6Z" transform="translate(-2 -3)"/>
  <circle cx="8" cy="8" r="1.5"/>
  <polygon points="10.085 13.995 10.085 13.995 10 13.995 10 12.994 10 12 3.1 12 6.28 5 9.7 5 11.404 8.726 11.805 8.548 13.229 7.915 10.99 3 5 3 0 14 10.086 14 10.085 13.995"/>
  <path d="M13.48145,20.40332A7.48756,7.48756,0,0,1,12.67865,19H6V18H4v1.00281A1.99841,1.99841,0,0,0,6,21h8l.00763-.00079A7.24315,7.24315,0,0,1,13.48145,20.40332Z" transform="translate(-2 -3)"/>
</svg>
