<svg xmlns="http://www.w3.org/2000/svg" viewBox="0 0 24 24"><path d="M15,21H13a2,2,0,0,1,0-4h2V15H13a4,4,0,0,0,0,8h2Z"/><path d="M23,19a4,4,0,0,1-4,4H17V21h2a2,2,0,0,0,0-4H17V15h2A4,4,0,0,1,23,19Z"/><rect x="14" y="18" width="4" height="2"/><path d="M16,2H11.82A2.98811,2.98811,0,0,0,6.18,2H2A2.00587,2.00587,0,0,0,0,4V18a2.00591,2.00591,0,0,0,2,2H7.09033a5.58042,5.58042,0,0,1,0-2H2V4H16v9h2V4A2.00587,2.00587,0,0,0,16,2Zm-7.75.5a.69416.69416,0,0,1,.04071-.20172A.76046.76046,0,0,1,8.45,2a.73.73,0,0,1,1.1,0,.76046.76046,0,0,1,.1593.29828A.69416.69416,0,0,1,9.75,2.5a.75.75,0,0,1-1.5,0Z"/><path d="M9,5A3.00879,3.00879,0,0,0,6,8a2.96066,2.96066,0,0,0,.05048.497,2.98935,2.98935,0,0,0,5.899,0A2.96066,2.96066,0,0,0,12,8,3.00879,3.00879,0,0,0,9,5ZM9,9a1,1,0,1,1,1-1A1.003,1.003,0,0,1,9,9Z"/><path d="M9.65222,11.92474C6.72679,11.687,2.29426,13.14949,3,16.6c.2214-2.418,5.0387-3.43289,7.35083-2.97535A6.07987,6.07987,0,0,1,13.25433,13,9.34064,9.34064,0,0,0,9.65222,11.92474Z"/></svg>