<svg xmlns="http://www.w3.org/2000/svg" viewBox="0 0 24 24"><rect x="14" y="18" width="4" height="2"/><path d="M19,15H17v2h2a2,2,0,0,1,0,4H17v2h2a4,4,0,0,0,0-8Z"/><path d="M13,17h2V15H13a4,4,0,0,0,0,8h2V21H13a2,2,0,0,1,0-4Z"/><circle cx="5" cy="4" r="1"/><circle cx="15" cy="4" r="1"/><circle cx="5" cy="20" r="1"/><path d="M7.81183,22H3V2H17V13h2V2a2,2,0,0,0-2-2H3A2,2,0,0,0,1,2V22a2,2,0,0,0,2,2H9.69061A6.03966,6.03966,0,0,1,7.81183,22Z"/><path d="M14.57788,13A4.99759,4.99759,0,1,0,6,14H9v.54059A5.9687,5.9687,0,0,1,13,13ZM10,13a2,2,0,1,1,2-2A2,2,0,0,1,10,13Z"/></svg>